<?xml version="1.0" standalone="no"?>
<!DOCTYPE svg PUBLIC "-//W3C//DTD SVG 20010904//EN"
 "http://www.w3.org/TR/2001/REC-SVG-20010904/DTD/svg10.dtd">
<svg version="1.0" xmlns="http://www.w3.org/2000/svg"
 width="960.000000pt" height="540.000000pt" viewBox="0 0 960.000000 540.000000"
 preserveAspectRatio="xMidYMid meet">

<g transform="translate(0.000000,540.000000) scale(0.100000,-0.100000)"
fill="#000000" stroke="none">
<path d="M1745 5390 c3 -5 8 -10 11 -10 2 0 4 5 4 10 0 6 -5 10 -11 10 -5 0
-7 -4 -4 -10z"/>
<path d="M2062 5299 c-35 -56 -61 -103 -59 -105 3 -3 17 17 32 43 16 26 46 74
67 106 21 31 35 57 31 57 -4 0 -36 -46 -71 -101z"/>
<path d="M3037 5393 c-2 -4 -12 -32 -22 -61 -10 -32 -26 -59 -41 -69 -14 -9
-22 -18 -20 -21 3 -3 13 1 22 9 15 12 16 12 11 -6 -3 -11 -11 -43 -17 -72 -8
-36 -19 -57 -37 -68 -13 -9 -22 -19 -19 -22 3 -3 13 0 22 8 15 12 16 12 11 -6
-20 -65 -87 -440 -86 -480 0 -16 11 31 24 105 46 275 111 553 150 647 13 32
15 58 2 36z"/>
<path d="M4750 5387 c0 -8 -30 -43 -67 -78 -125 -120 -242 -249 -368 -409
l-126 -159 -57 -11 c-60 -13 -101 -29 -72 -29 8 0 35 4 59 10 24 5 46 8 48 6
2 -3 -33 -59 -77 -126 -144 -215 -299 -523 -315 -627 l-7 -40 58 -18 58 -18
-54 -21 c-30 -11 -58 -25 -62 -31 -14 -20 -8 -28 15 -21 12 3 33 8 47 9 14 2
41 10 60 20 l35 17 -24 -21 c-33 -28 -13 -25 32 5 20 14 37 22 37 17 0 -16
-53 -46 -85 -48 -42 -4 -76 -10 -102 -18 -19 -6 -23 -14 -23 -53 0 -40 2 -44
15 -33 9 7 19 10 22 6 4 -4 1 -11 -7 -16 -13 -8 -13 -10 0 -10 11 0 11 -3 2
-12 -10 -10 -15 -10 -21 1 -6 9 -10 5 -13 -14 -5 -26 34 -97 95 -170 l25 -30
-25 75 c-29 87 -28 177 3 211 32 36 155 59 196 38 13 -7 26 -4 47 12 27 20 43
22 163 23 133 1 249 -14 299 -40 14 -7 34 -29 44 -48 22 -40 36 -48 27 -14
l-5 22 31 -22 c24 -18 33 -34 43 -79 11 -54 8 -158 -6 -213 -5 -18 -4 -21 3
-10 19 30 34 124 29 176 -3 30 -3 54 1 54 3 0 20 -12 36 -27 17 -16 23 -19 15
-8 -27 33 -60 105 -49 105 38 0 178 -97 274 -189 43 -42 71 -64 62 -49 -13 19
-14 27 -5 30 9 3 5 15 -12 39 -27 36 -52 89 -43 89 11 0 49 -23 74 -44 14 -11
0 6 -30 37 -66 70 -170 142 -280 193 -60 29 -80 43 -81 58 -1 17 -2 18 -6 4
-9 -34 -37 -13 -46 32 -4 21 -4 21 -6 -7 l-1 -32 -42 14 c-24 7 -63 18 -88 25
-52 13 -140 73 -147 100 -6 23 -33 34 -47 20 -7 -7 -5 -10 7 -10 9 0 30 -20
47 -45 l31 -45 -38 0 c-21 1 -58 5 -83 10 -29 5 -47 5 -51 -2 -4 -6 -20 -7
-38 -3 -18 4 -37 2 -44 -4 -22 -17 -208 -25 -281 -11 -36 7 -69 16 -71 21 -9
14 92 254 151 363 103 187 245 404 268 411 6 1 27 8 46 14 l35 10 -32 -5 c-22
-4 -33 -2 -33 6 0 33 393 492 454 529 42 26 45 26 39 -1 -2 -13 9 8 26 47 35
79 34 75 21 75 -5 0 -10 -6 -10 -13z m-560 -1507 c0 -5 -8 -10 -17 -10 -15 0
-16 2 -3 10 19 12 20 12 20 0z m65 0 c-3 -5 -11 -10 -16 -10 -6 0 -7 5 -4 10
3 6 11 10 16 10 6 0 7 -4 4 -10z m65 6 c0 -3 -4 -8 -10 -11 -5 -3 -10 -1 -10
4 0 6 5 11 10 11 6 0 10 -2 10 -4z m-286 -31 c-33 -26 -54 -36 -54 -26 0 10
62 50 69 44 3 -2 -4 -10 -15 -18z m66 10 c-7 -8 -20 -15 -28 -15 -13 0 -12 3
4 15 25 19 40 19 24 0z m410 -16 c0 -6 -4 -7 -10 -4 -5 3 -10 11 -10 16 0 6 5
7 10 4 6 -3 10 -11 10 -16z m177 -39 c9 -47 2 -71 -10 -32 -3 9 -10 32 -15 50
-8 25 -8 32 2 32 8 0 17 -21 23 -50z m-122 30 c3 -5 2 -10 -4 -10 -5 0 -13 5
-16 10 -3 6 -2 10 4 10 5 0 13 -4 16 -10z m50 -10 c10 -11 13 -20 7 -20 -6 0
-16 9 -22 20 -6 11 -9 20 -7 20 2 0 12 -9 22 -20z m149 -66 c42 -42 46 -51 12
-29 -22 15 -63 65 -52 65 2 0 20 -16 40 -36z m96 -43 c1 7 21 -8 46 -36 32
-35 44 -43 39 -27 -3 12 -4 22 -2 22 4 0 67 -99 67 -106 0 -15 -18 1 -34 31
-10 19 -23 32 -27 29 -5 -2 -25 14 -45 36 -20 22 -39 38 -42 36 -3 -3 1 -12 8
-21 8 -10 9 -15 1 -15 -6 0 -11 3 -11 8 0 4 -16 24 -35 44 -45 48 -45 62 0 18
22 -21 35 -29 35 -19z m-1060 -71 c-20 -13 -33 -13 -25 0 3 6 14 10 23 10 15
0 15 -2 2 -10z"/>
<path d="M5082 5308 c-52 -95 -184 -376 -217 -461 l-18 -47 -66 -2 -66 -1 55
-8 c36 -4 18 -5 -53 -3 -60 3 -113 5 -120 7 -6 1 -12 -5 -14 -13 -3 -13 15
-15 123 -12 l126 3 -6 -33 -7 -33 15 33 c10 21 22 32 36 32 11 0 20 5 20 10 0
6 -7 10 -15 10 -8 0 -15 4 -15 9 0 15 40 101 76 162 20 33 32 64 28 71 -4 6
-3 8 4 4 6 -4 28 19 53 56 23 35 86 118 140 186 54 67 94 122 89 122 -12 0
-204 -242 -255 -323 -10 -15 -20 -26 -22 -23 -4 4 69 152 136 274 22 39 37 72
32 72 -4 0 -31 -42 -59 -92z"/>
<path d="M5311 5378 c-13 -36 -34 -129 -29 -133 2 -2 13 32 24 76 20 77 22
102 5 57z"/>
<path d="M5447 5348 c-17 -57 -47 -206 -93 -460 l-29 -157 -30 5 -30 4 30 -14
c36 -18 26 -19 -35 -5 -68 15 -79 20 -58 28 17 6 17 7 0 16 -9 6 -33 8 -52 4
-30 -5 -31 -7 -8 -8 15 0 30 -5 33 -11 4 -6 -12 -8 -42 -5 l-48 5 43 -11 c24
-6 46 -17 49 -26 4 -11 8 -12 14 -2 6 10 18 10 63 0 31 -7 58 -16 60 -20 3 -4
-1 -62 -9 -128 -8 -66 -17 -181 -20 -254 -8 -175 -10 -183 -36 -168 -31 16
-35 3 -5 -16 24 -16 26 -23 26 -83 l0 -67 -25 38 c-14 20 -27 37 -29 37 -1 0
12 -30 31 -66 23 -46 34 -82 35 -118 1 -28 5 77 9 234 4 157 14 347 23 423 9
77 16 143 16 148 0 5 5 9 10 9 15 0 12 -100 -7 -257 -11 -95 -16 -225 -17
-414 l-1 -277 -35 -10 -35 -9 38 -2 c21 0 39 -7 41 -13 2 -7 11 -55 20 -107
18 -100 77 -306 93 -322 5 -5 -6 36 -24 91 -35 107 -73 278 -73 329 0 27 4 31
35 37 43 8 36 25 -8 21 l-32 -2 -9 130 c-10 141 14 574 36 635 6 19 8 58 5 95
-3 34 -4 65 -1 68 3 3 24 -1 46 -9 47 -16 59 -18 38 -4 -8 5 -15 14 -15 21 0
6 -15 19 -34 28 l-35 16 3 70 c4 121 46 380 87 539 19 73 11 86 -9 14z m-100
-610 c-3 -7 -5 -2 -5 12 0 14 2 19 5 13 2 -7 2 -19 0 -25z m53 -48 c8 -5 11
-10 5 -10 -5 0 -17 5 -25 10 -8 5 -10 10 -5 10 6 0 17 -5 25 -10z"/>
<path d="M5831 5384 c0 -11 3 -14 6 -6 3 7 2 16 -1 19 -3 4 -6 -2 -5 -13z"/>
<path d="M6451 5384 c0 -11 3 -14 6 -6 3 7 2 16 -1 19 -3 4 -6 -2 -5 -13z"/>
<path d="M6675 5323 c-129 -606 -391 -1053 -783 -1332 -123 -88 -130 -94 -87
-70 61 34 131 86 230 170 243 206 430 506 561 896 43 129 110 401 100 410 -2
3 -12 -31 -21 -74z"/>
<path d="M7370 5394 c0 -4 13 -63 29 -133 49 -207 87 -466 131 -886 l9 -90 -5
100 c-5 121 -57 542 -84 690 -23 123 -70 325 -76 325 -2 0 -4 -3 -4 -6z"/>
<path d="M7481 5354 c0 -11 3 -14 6 -6 3 7 2 16 -1 19 -3 4 -6 -2 -5 -13z"/>
<path d="M5822 5335 c0 -16 2 -22 5 -12 2 9 2 23 0 30 -3 6 -5 -1 -5 -18z"/>
<path d="M6382 5340 c0 -14 2 -19 5 -12 2 6 2 18 0 25 -3 6 -5 1 -5 -13z"/>
<path d="M6371 5294 c0 -11 3 -14 6 -6 3 7 2 16 -1 19 -3 4 -6 -2 -5 -13z"/>
<path d="M2529 5269 l-24 -20 28 17 c15 9 27 18 27 20 0 8 -8 4 -31 -17z"/>
<path d="M5811 5254 c0 -11 3 -14 6 -6 3 7 2 16 -1 19 -3 4 -6 -2 -5 -13z"/>
<path d="M4025 5249 c-4 -6 -5 -12 -2 -15 2 -3 7 2 10 11 7 17 1 20 -8 4z"/>
<path d="M6361 5244 c0 -11 3 -14 6 -6 3 7 2 16 -1 19 -3 4 -6 -2 -5 -13z"/>
<path d="M4691 5219 c-6 -18 -9 -34 -7 -36 2 -2 9 10 15 28 6 18 9 34 7 36 -2
2 -9 -10 -15 -28z"/>
<path d="M6411 5234 c0 -11 3 -14 6 -6 3 7 2 16 -1 19 -3 4 -6 -2 -5 -13z"/>
<path d="M5265 5200 c-4 -17 -5 -34 -2 -36 2 -3 7 10 11 27 3 18 4 34 2 36 -2
3 -7 -10 -11 -27z"/>
<path d="M8274 5210 c3 -14 6 -32 6 -39 0 -11 3 -12 11 -4 8 8 6 19 -6 39 -15
28 -16 28 -11 4z"/>
<path d="M4006 5205 c-9 -26 -7 -32 5 -12 6 10 9 21 6 23 -2 3 -7 -2 -11 -11z"/>
<path d="M4176 5203 c-6 -14 -5 -15 5 -6 7 7 10 15 7 18 -3 3 -9 -2 -12 -12z"/>
<path d="M1753 5170 c0 -25 2 -35 4 -22 2 12 2 32 0 45 -2 12 -4 2 -4 -23z"/>
<path d="M2414 5194 c-18 -14 -18 -15 4 -4 12 6 22 13 22 15 0 8 -5 6 -26 -11z"/>
<path d="M6351 5194 c0 -11 3 -14 6 -6 3 7 2 16 -1 19 -3 4 -6 -2 -5 -13z"/>
<path d="M2574 5184 c-18 -14 -18 -15 4 -4 12 6 22 13 22 15 0 8 -5 6 -26 -11z"/>
<path d="M7511 5184 c0 -11 3 -14 6 -6 3 7 2 16 -1 19 -3 4 -6 -2 -5 -13z"/>
<path d="M1975 5150 c-9 -16 -13 -30 -11 -30 3 0 12 14 21 30 9 17 13 30 11
30 -3 0 -12 -13 -21 -30z"/>
<path d="M6341 5154 c0 -11 3 -14 6 -6 3 7 2 16 -1 19 -3 4 -6 -2 -5 -13z"/>
<path d="M6981 5144 c0 -11 3 -14 6 -6 3 7 2 16 -1 19 -3 4 -6 -2 -5 -13z"/>
<path d="M2738 5124 c-27 -13 -48 -27 -48 -29 0 -3 23 6 50 20 28 14 50 28 50
30 0 7 1 7 -52 -21z"/>
<path d="M5246 5119 c-8 -42 0 -50 9 -9 4 17 5 34 2 36 -2 3 -7 -10 -11 -27z"/>
<path d="M7522 5130 c0 -14 2 -19 5 -12 2 6 2 18 0 25 -3 6 -5 1 -5 -13z"/>
<path d="M6331 5114 c0 -11 3 -14 6 -6 3 7 2 16 -1 19 -3 4 -6 -2 -5 -13z"/>
<path d="M6982 5090 c0 -19 2 -27 5 -17 2 9 2 25 0 35 -3 9 -5 1 -5 -18z"/>
<path d="M8326 5107 c3 -10 9 -15 12 -12 3 3 0 11 -7 18 -10 9 -11 8 -5 -6z"/>
<path d="M1662 5064 c-1 -23 -9 -47 -17 -54 -8 -7 -15 -18 -14 -24 0 -7 2 -6
6 2 2 6 9 10 14 6 14 -8 21 19 16 67 l-4 44 -1 -41z"/>
<path d="M1752 5075 c0 -16 2 -22 5 -12 2 9 2 23 0 30 -3 6 -5 -1 -5 -18z"/>
<path d="M4116 5085 c-9 -26 -7 -32 5 -12 6 10 9 21 6 23 -2 3 -7 -2 -11 -11z"/>
<path d="M3956 5075 c-9 -26 -7 -32 5 -12 6 10 9 21 6 23 -2 3 -7 -2 -11 -11z"/>
<path d="M6321 5074 c0 -11 3 -14 6 -6 3 7 2 16 -1 19 -3 4 -6 -2 -5 -13z"/>
<path d="M7532 5070 c0 -14 2 -19 5 -12 2 6 2 18 0 25 -3 6 -5 1 -5 -13z"/>
<path d="M2310 5050 c-9 -6 -10 -10 -3 -10 6 0 15 5 18 10 8 12 4 12 -15 0z"/>
<path d="M5231 5044 c0 -11 3 -14 6 -6 3 7 2 16 -1 19 -3 4 -6 -2 -5 -13z"/>
<path d="M6311 5034 c0 -11 3 -14 6 -6 3 7 2 16 -1 19 -3 4 -6 -2 -5 -13z"/>
<path d="M7542 5000 c0 -14 2 -19 5 -12 2 6 2 18 0 25 -3 6 -5 1 -5 -13z"/>
<path d="M5221 4994 c0 -11 3 -14 6 -6 3 7 2 16 -1 19 -3 4 -6 -2 -5 -13z"/>
<path d="M6326 4985 c-9 -26 -7 -32 5 -12 6 10 9 21 6 23 -2 3 -7 -2 -11 -11z"/>
<path d="M6813 4955 c0 -22 2 -30 4 -17 2 12 2 30 0 40 -3 9 -5 -1 -4 -23z"/>
<path d="M1680 4972 c0 -19 19 -53 46 -82 15 -16 20 -30 15 -39 -11 -17 -131
-43 -131 -28 0 6 -6 4 -12 -5 -7 -9 -84 -37 -170 -62 -192 -56 -301 -97 -483
-186 -159 -77 -244 -136 -303 -212 -56 -73 -65 -100 -64 -203 1 -164 56 -316
148 -412 45 -48 54 -53 94 -53 94 0 217 96 416 327 151 174 226 257 236 261 4
2 -21 -54 -56 -125 -100 -201 -302 -684 -370 -884 -106 -317 -209 -687 -319
-1159 -81 -345 -81 -301 -6 -376 35 -35 69 -64 76 -64 7 0 15 17 18 38 4 20
11 51 15 67 5 17 21 91 35 165 72 366 150 695 231 975 89 307 275 839 351
1005 l34 75 -5 -47 c-3 -25 -8 -84 -11 -130 -3 -61 1 -43 15 67 14 104 29 170
47 215 31 73 210 430 223 444 5 5 3 -12 -5 -38 -8 -26 -19 -75 -25 -109 -6
-34 -22 -108 -36 -164 -125 -525 -182 -1010 -190 -1613 -6 -392 -4 -378 -52
-520 -3 -10 -2 -12 5 -5 6 6 19 35 29 65 19 54 19 55 21 20 16 -229 51 -506
68 -552 7 -18 53 -41 66 -32 5 3 34 -2 65 -11 31 -9 59 -14 62 -10 3 3 -9 60
-26 128 -80 310 -99 793 -56 1412 7 116 16 224 19 240 2 17 11 102 20 190 17
168 58 501 75 595 5 30 18 108 30 173 11 65 20 121 20 125 1 4 29 -72 64 -168
80 -221 102 -273 187 -440 73 -144 117 -206 157 -221 39 -15 100 21 195 115
l84 82 -29 -75 c-38 -102 -66 -217 -78 -320 -12 -101 -12 -113 0 -86 5 11 9
40 9 65 3 117 74 350 156 509 56 108 97 158 149 182 l41 19 -39 0 c-32 0 -37
3 -31 18 4 9 11 32 17 50 8 28 13 32 46 33 l37 2 -33 6 c-18 3 -33 9 -32 14 0
4 0 16 0 27 0 12 7 20 18 20 9 0 24 5 32 11 11 7 6 8 -20 4 -33 -5 -36 -3 -53
34 -45 99 -274 292 -459 386 -122 63 -313 135 -356 135 -22 0 -91 42 -104 63
-5 8 -8 7 -8 -4 0 -47 -59 -12 -94 56 -9 17 -16 24 -16 17z m140 -112 c11 -7
11 -10 2 -10 -23 0 -55 -90 -56 -158 -1 -54 -3 -60 -14 -45 -10 13 -13 43 -10
107 4 72 8 91 23 102 22 16 35 17 55 4z m236 -80 c106 -40 267 -117 319 -153
129 -90 309 -260 331 -314 33 -77 5 -174 -99 -347 -52 -85 -99 -147 -165 -217
-97 -102 -147 -135 -188 -125 -30 8 -74 68 -126 171 l-39 80 43 -47 c50 -55
112 -98 140 -98 11 0 49 23 84 51 100 79 182 185 248 315 63 128 58 155 -47
269 -196 215 -611 432 -718 375 -24 -13 -25 -1 -4 40 31 60 60 60 221 0z
m-336 16 c0 -13 -6 -28 -12 -33 -7 -5 -74 -31 -148 -58 -222 -78 -432 -173
-595 -268 -87 -51 -238 -163 -284 -211 -34 -35 -34 -37 -35 -123 -1 -51 3 -89
9 -91 6 -2 17 18 26 44 18 51 23 49 34 -11 13 -74 65 -195 92 -212 23 -15 27
-15 67 4 57 28 240 197 396 364 69 74 168 179 221 234 89 93 128 136 193 210
22 25 27 28 36 15 23 -34 22 -35 -225 -322 -66 -77 -160 -188 -209 -247 -148
-175 -301 -322 -375 -359 -35 -18 -77 -32 -93 -32 -62 0 -161 132 -203 270 -9
30 -19 103 -22 161 -5 98 -4 111 17 155 84 173 410 343 945 493 77 22 146 40
153 40 6 1 12 -10 12 -23z m0 -71 c0 -14 -34 -58 -99 -127 -24 -26 -37 -34
-42 -26 -5 8 -10 1 -15 -18 -15 -58 -589 -646 -681 -696 -44 -25 -52 -26 -70
-13 -27 19 -68 122 -88 223 -14 66 -15 91 -5 136 11 52 15 58 83 109 107 79
123 89 237 151 110 60 326 156 445 198 119 43 220 77 228 77 4 1 7 -6 7 -14z
m279 -16 c142 -48 378 -191 495 -299 49 -45 106 -116 106 -131 0 -5 -36 -8
-79 -6 -46 1 -74 6 -68 10 8 6 5 7 -6 3 -15 -5 -80 18 -119 41 -5 2 -8 1 -8
-2 0 -12 151 -75 226 -94 42 -11 77 -21 79 -23 10 -10 -11 -61 -27 -66 -14 -3
-16 -8 -8 -17 8 -10 4 -23 -15 -51 -14 -21 -28 -40 -30 -42 -2 -2 -31 11 -65
29 -70 37 -151 106 -258 217 -51 54 -62 62 -36 28 62 -79 210 -210 284 -252
38 -21 70 -42 70 -46 0 -5 -9 -17 -20 -28 -11 -11 -20 -23 -20 -28 0 -12 -182
-189 -209 -202 -22 -11 -27 -10 -48 16 -64 77 -169 302 -234 497 -62 184 -117
370 -124 421 -7 46 -7 46 22 46 16 0 57 -10 92 -21z m-105 -130 c18 -112 163
-503 253 -682 l34 -68 -29 15 c-16 8 -34 22 -41 30 -7 9 -17 14 -21 11 -10 -6
-90 168 -144 317 -63 175 -149 466 -140 479 12 20 81 -59 88 -102z m-100 -207
c5 -8 -18 -219 -49 -452 -17 -134 -29 -239 -45 -400 -6 -63 -15 -153 -20 -200
-36 -328 -48 -1012 -22 -1260 17 -159 48 -346 67 -400 23 -64 21 -70 -17 -59
-18 5 -47 9 -64 9 -16 0 -38 6 -47 13 -57 42 -108 734 -88 1198 24 555 85 983
218 1529 l48 195 7 -82 c4 -46 9 -87 12 -91z m-232 -160 c-136 -284 -221 -502
-356 -907 -164 -488 -242 -788 -362 -1380 -24 -121 -46 -224 -47 -229 -2 -5
-29 15 -61 45 l-58 54 12 65 c11 57 48 220 146 635 38 164 145 533 218 755 84
257 350 876 410 954 50 66 160 178 164 167 2 -7 -28 -78 -66 -159z m1062 27
c8 -9 -1 -10 -38 -4 -78 11 -102 26 -32 21 32 -3 64 -10 70 -17z"/>
<path d="M1581 4664 c0 -11 3 -14 6 -6 3 7 2 16 -1 19 -3 4 -6 -2 -5 -13z"/>
<path d="M1571 4614 c0 -11 3 -14 6 -6 3 7 2 16 -1 19 -3 4 -6 -2 -5 -13z"/>
<path d="M1940 4605 c0 -5 5 -17 10 -25 5 -8 10 -10 10 -5 0 6 -5 17 -10 25
-5 8 -10 11 -10 5z"/>
<path d="M1966 4547 c3 -10 9 -15 12 -12 3 3 0 11 -7 18 -10 9 -11 8 -5 -6z"/>
<path d="M2175 4410 c10 -11 20 -20 23 -20 3 0 -3 9 -13 20 -10 11 -20 20 -23
20 -3 0 3 -9 13 -20z"/>
<path d="M2220 4366 c0 -2 8 -10 18 -17 15 -13 16 -12 3 4 -13 16 -21 21 -21
13z"/>
<path d="M2130 4286 c0 -2 8 -10 18 -17 15 -13 16 -12 3 4 -13 16 -21 21 -21
13z"/>
<path d="M2330 4276 c0 -2 8 -10 18 -17 15 -13 16 -12 3 4 -13 16 -21 21 -21
13z"/>
<path d="M2175 4230 c10 -11 20 -20 23 -20 3 0 -3 9 -13 20 -10 11 -20 20 -23
20 -3 0 3 -9 13 -20z"/>
<path d="M2270 4125 c35 -36 67 -65 69 -65 3 0 -24 29 -59 65 -35 36 -67 65
-69 65 -3 0 24 -29 59 -65z"/>
<path d="M2540 4150 c8 -5 20 -10 25 -10 6 0 3 5 -5 10 -8 5 -19 10 -25 10 -5
0 -3 -5 5 -10z"/>
<path d="M2354 4051 c7 -11 46 -35 46 -28 0 3 -12 12 -26 22 -15 9 -23 12 -20
6z"/>
<path d="M5212 4935 c0 -16 2 -22 5 -12 2 9 2 23 0 30 -3 6 -5 -1 -5 -18z"/>
<path d="M7552 4925 c0 -16 2 -22 5 -12 2 9 2 23 0 30 -3 6 -5 -1 -5 -18z"/>
<path d="M6973 4890 c0 -25 2 -35 4 -22 2 12 2 32 0 45 -2 12 -4 2 -4 -23z"/>
<path d="M2108 4893 c7 -3 16 -2 19 1 4 3 -2 6 -13 5 -11 0 -14 -3 -6 -6z"/>
<path d="M5202 4880 c0 -14 2 -19 5 -12 2 6 2 18 0 25 -3 6 -5 1 -5 -13z"/>
<path d="M6796 4820 c-4 -41 -19 -134 -32 -207 -25 -137 -28 -166 -13 -123 5
16 6 -5 2 -55 -6 -87 -7 -90 -22 -80 -6 3 -9 18 -5 33 4 19 0 16 -14 -13 -22
-46 -19 -65 9 -58 15 4 19 0 19 -17 0 -45 -51 -309 -78 -406 l-28 -99 -42 3
c-24 1 -51 -2 -60 -8 -14 -9 -10 -10 18 -9 70 4 73 2 67 -33 l-6 -33 16 30 c9
17 17 37 18 45 1 8 14 54 28 101 14 48 37 156 52 240 34 194 29 181 62 174
l28 -5 -30 14 -30 15 30 1 30 2 -28 10 c-25 9 -28 14 -23 42 3 17 8 74 11 126
3 52 13 152 21 222 9 70 14 136 12 145 -3 10 -8 -16 -12 -57z"/>
<path d="M8131 4864 c0 -11 3 -14 6 -6 3 7 2 16 -1 19 -3 4 -6 -2 -5 -13z"/>
<path d="M1958 4863 c6 -2 18 -2 25 0 6 3 1 5 -13 5 -14 0 -19 -2 -12 -5z"/>
<path d="M2118 4863 c12 -2 32 -2 45 0 12 2 2 4 -23 4 -25 0 -35 -2 -22 -4z"/>
<path d="M6275 4849 c-4 -6 -5 -12 -2 -15 2 -3 7 2 10 11 7 17 1 20 -8 4z"/>
<path d="M6250 4836 c0 -8 4 -17 9 -20 5 -4 7 3 4 14 -6 23 -13 26 -13 6z"/>
<path d="M5191 4814 c0 -11 3 -14 6 -6 3 7 2 16 -1 19 -3 4 -6 -2 -5 -13z"/>
<path d="M6213 4733 c-17 -43 -42 -104 -56 -135 -15 -32 -25 -58 -22 -58 11 0
125 254 117 262 -5 5 -22 -27 -39 -69z"/>
<path d="M4435 4770 l-40 -7 40 -1 c22 0 63 3 90 8 l50 7 -50 0 c-27 0 -68 -3
-90 -7z"/>
<path d="M5063 4773 c9 -2 25 -2 35 0 9 3 1 5 -18 5 -19 0 -27 -2 -17 -5z"/>
<path d="M5751 4754 c0 -11 3 -14 6 -6 3 7 2 16 -1 19 -3 4 -6 -2 -5 -13z"/>
<path d="M6962 4730 c0 -19 2 -27 5 -17 2 9 2 25 0 35 -3 9 -5 1 -5 -18z"/>
<path d="M8466 4690 c14 -129 23 -158 18 -55 -3 55 -10 105 -16 110 -6 7 -7
-13 -2 -55z"/>
<path d="M4571 4694 c0 -11 3 -14 6 -6 3 7 2 16 -1 19 -3 4 -6 -2 -5 -13z"/>
<path d="M3940 4680 c0 -5 7 -7 15 -4 8 4 15 8 15 10 0 2 -7 4 -15 4 -8 0 -15
-4 -15 -10z"/>
<path d="M4782 4613 c-12 -37 -19 -69 -17 -71 2 -2 13 26 24 64 12 37 19 69
17 71 -2 2 -13 -26 -24 -64z"/>
<path d="M5172 4650 c0 -19 2 -27 5 -17 2 9 2 25 0 35 -3 9 -5 1 -5 -18z"/>
<path d="M5473 4664 c15 -8 27 -18 27 -22 0 -5 20 -18 45 -30 25 -12 45 -19
45 -17 0 8 -122 85 -134 85 -6 -1 1 -8 17 -16z"/>
<path d="M6911 4664 c0 -11 3 -14 6 -6 3 7 2 16 -1 19 -3 4 -6 -2 -5 -13z"/>
<path d="M6943 4581 c-7 -55 -9 -100 -4 -110 13 -22 23 56 19 139 l-3 65 -12
-94z"/>
<path d="M3821 4634 c0 -11 3 -14 6 -6 3 7 2 16 -1 19 -3 4 -6 -2 -5 -13z"/>
<path d="M4561 4604 c0 -11 3 -14 6 -6 3 7 2 16 -1 19 -3 4 -6 -2 -5 -13z"/>
<path d="M6902 4590 c0 -14 2 -19 5 -12 2 6 2 18 0 25 -3 6 -5 1 -5 -13z"/>
<path d="M5162 4560 c0 -19 2 -27 5 -17 2 9 2 25 0 35 -3 9 -5 1 -5 -18z"/>
<path d="M2841 4478 c-6 -51 -17 -156 -23 -233 -6 -78 -16 -143 -22 -147 -8
-6 -6 -11 4 -18 13 -8 16 5 22 88 4 53 14 164 23 245 18 164 16 210 -4 65z"/>
<path d="M4751 4514 c0 -11 3 -14 6 -6 3 7 2 16 -1 19 -3 4 -6 -2 -5 -13z"/>
<path d="M6892 4510 c0 -14 2 -19 5 -12 2 6 2 18 0 25 -3 6 -5 1 -5 -13z"/>
<path d="M7102 4490 c0 -14 2 -19 5 -12 2 6 2 18 0 25 -3 6 -5 1 -5 -13z"/>
<path d="M7592 4475 c0 -16 2 -22 5 -12 2 9 2 23 0 30 -3 6 -5 -1 -5 -18z"/>
<path d="M5733 4415 c0 -44 2 -61 4 -37 2 23 2 59 0 80 -2 20 -4 1 -4 -43z"/>
<path d="M4552 4440 c0 -19 2 -27 5 -17 2 9 2 25 0 35 -3 9 -5 1 -5 -18z"/>
<path d="M6882 4450 c0 -14 2 -19 5 -12 2 6 2 18 0 25 -3 6 -5 1 -5 -13z"/>
<path d="M6922 4450 c0 -14 2 -19 5 -12 2 6 2 18 0 25 -3 6 -5 1 -5 -13z"/>
<path d="M5152 4435 c0 -16 2 -22 5 -12 2 9 2 23 0 30 -3 6 -5 -1 -5 -18z"/>
<path d="M5365 4428 c3 -18 10 -72 15 -121 12 -99 49 -280 84 -410 20 -77 21
-90 9 -103 -24 -23 -4 -16 58 22 56 34 83 57 38 34 -24 -13 -25 -13 -38 20 -9
23 -10 22 -8 -10 1 -25 -2 -35 -13 -35 -26 0 -99 312 -121 523 -7 61 -16 112
-21 112 -5 0 -6 -15 -3 -32z"/>
<path d="M4731 4434 c0 -11 3 -14 6 -6 3 7 2 16 -1 19 -3 4 -6 -2 -5 -13z"/>
<path d="M6731 4434 c0 -11 3 -14 6 -6 3 7 2 16 -1 19 -3 4 -6 -2 -5 -13z"/>
<path d="M4611 4414 c0 -11 3 -14 6 -6 3 7 2 16 -1 19 -3 4 -6 -2 -5 -13z"/>
<path d="M6942 4362 c-2 -64 -4 -73 -19 -70 -14 3 -18 13 -16 43 l1 40 -15
-42 c-17 -51 -31 -56 -26 -10 l3 32 -11 -27 c-6 -16 -17 -28 -25 -28 -11 0
-10 -4 4 -18 9 -10 19 -15 22 -11 3 4 22 0 43 -8 31 -13 37 -20 38 -47 2 -31
2 -31 6 -3 3 19 9 27 18 23 15 -6 14 16 -2 36 -7 8 -14 47 -16 88 l-3 75 -2
-73z m-3 -88 c2 -2 2 -7 -2 -10 -3 -3 -16 2 -29 11 l-23 17 25 -7 c14 -4 27
-9 29 -11z"/>
<path d="M6912 4400 c0 -14 2 -19 5 -12 2 6 2 18 0 25 -3 6 -5 1 -5 -13z"/>
<path d="M4721 4394 c0 -11 3 -14 6 -6 3 7 2 16 -1 19 -3 4 -6 -2 -5 -13z"/>
<path d="M7121 4374 c0 -11 3 -14 6 -6 3 7 2 16 -1 19 -3 4 -6 -2 -5 -13z"/>
<path d="M6601 4373 c-1 -7 -8 -13 -16 -13 -13 0 -13 -2 -3 -14 8 -9 15 -10
19 -4 4 6 22 8 42 4 21 -4 38 -2 42 4 4 6 -9 10 -34 10 -22 0 -42 5 -44 13 -4
10 -6 10 -6 0z"/>
<path d="M7017 4320 c-4 -14 -10 -74 -12 -135 -2 -77 -1 -90 4 -45 l6 65 8
-75 c20 -184 43 -334 72 -459 13 -58 22 -107 20 -109 -2 -3 -14 12 -26 32 -29
49 -36 46 -8 -4 25 -44 59 -80 59 -62 0 6 -11 57 -25 114 -34 138 -63 323 -72
449 l-6 103 39 -22 39 -23 -42 38 c-40 36 -43 41 -45 98 -2 47 -5 54 -11 35z"/>
<path d="M8431 4314 c0 -11 3 -14 6 -6 3 7 2 16 -1 19 -3 4 -6 -2 -5 -13z"/>
<path d="M4701 4303 c-1 -21 -5 -23 -65 -23 -53 0 -65 3 -69 18 -4 13 -5 11
-6 -5 -1 -16 5 -23 18 -23 11 0 22 -6 24 -12 4 -10 6 -10 6 0 1 7 16 12 41 12
l40 0 2 -47 1 -48 6 45 c6 45 6 45 51 51 l45 6 -38 1 c-29 2 -40 7 -47 25 l-9
22 0 -22z"/>
<path d="M7141 4274 c0 -11 3 -14 6 -6 3 7 2 16 -1 19 -3 4 -6 -2 -5 -13z"/>
<path d="M3741 4254 c0 -11 3 -14 6 -6 3 7 2 16 -1 19 -3 4 -6 -2 -5 -13z"/>
<path d="M4818 4263 c12 -2 30 -2 40 0 9 3 -1 5 -23 4 -22 0 -30 -2 -17 -4z"/>
<path d="M7547 4130 c14 -343 0 -766 -26 -793 -8 -8 -79 136 -121 243 -12 30
-26 60 -31 65 -20 20 83 -233 125 -306 20 -35 25 -54 20 -78 -4 -17 -10 -31
-14 -31 -9 0 -126 244 -135 283 -4 15 -10 26 -13 23 -7 -8 36 -120 91 -231 27
-55 49 -109 49 -120 1 -35 -23 -134 -33 -140 -5 -4 -9 -2 -9 2 0 5 -11 20 -25
35 -28 31 -95 133 -95 146 0 5 -7 16 -16 23 -27 22 27 -77 89 -163 l55 -77
-12 -48 -12 -48 -33 45 c-18 25 -51 78 -73 118 -48 87 -58 82 -58 -28 0 -87
-21 -232 -45 -308 -25 -84 -54 -144 -65 -137 -18 11 -11 -14 20 -68 29 -52 41
-105 20 -92 -5 3 -10 4 -10 2 0 -3 16 -14 35 -26 41 -24 35 -32 93 115 105
262 169 507 232 878 l28 169 -10 251 c-5 138 -13 294 -18 346 -7 78 -7 70 -3
-50z m-222 -1175 c-8 -100 -34 -217 -46 -210 -5 4 -6 -1 -3 -9 8 -21 -77 -189
-90 -176 -7 7 -4 22 8 47 33 68 64 171 76 250 19 124 20 129 30 113 14 -23 24
14 14 58 l-8 37 -6 -35 c-7 -33 -7 -32 -9 15 l-1 50 20 -30 c18 -26 20 -40 15
-110z m95 -73 c0 -59 -146 -445 -170 -450 -10 -2 -21 14 -33 47 l-17 49 40 68
c50 86 86 196 101 314 l12 90 33 -48 c19 -26 34 -57 34 -70z"/>
<path d="M7290 2883 c0 -28 3 -34 10 -23 13 20 13 60 0 60 -5 0 -10 -17 -10
-37z"/>
<path d="M4888 4253 c7 -3 16 -2 19 1 4 3 -2 6 -13 5 -11 0 -14 -3 -6 -6z"/>
<path d="M6866 4234 c-4 -14 -5 -28 -3 -31 3 -2 8 8 11 23 4 14 5 28 3 31 -3
2 -8 -8 -11 -23z"/>
<path d="M4928 4243 c6 -2 18 -2 25 0 6 3 1 5 -13 5 -14 0 -19 -2 -12 -5z"/>
<path d="M6841 4234 c0 -11 3 -14 6 -6 3 7 2 16 -1 19 -3 4 -6 -2 -5 -13z"/>
<path d="M4978 4233 c7 -3 16 -2 19 1 4 3 -2 6 -13 5 -11 0 -14 -3 -6 -6z"/>
<path d="M5151 4218 c0 -16 -3 -28 -4 -28 -2 0 -30 9 -62 20 -66 23 -96 26
-48 5 18 -7 52 -32 77 -56 39 -35 46 -48 47 -83 2 -30 3 -33 6 -13 2 15 9 27
14 27 6 0 3 10 -5 22 -21 29 -20 48 1 48 15 0 16 1 1 13 -9 6 -19 26 -21 42
-4 30 -4 30 -6 3z m-15 -42 c10 -8 15 -18 11 -22 -4 -4 -17 2 -29 14 -25 25
-13 30 18 8z"/>
<path d="M6657 4193 c-8 -26 -18 -57 -22 -68 -6 -16 -5 -17 4 -5 14 18 43 112
37 118 -3 2 -11 -18 -19 -45z"/>
<path d="M7151 4224 c0 -11 3 -14 6 -6 3 7 2 16 -1 19 -3 4 -6 -2 -5 -13z"/>
<path d="M7211 4214 c0 -11 3 -14 6 -6 3 7 2 16 -1 19 -3 4 -6 -2 -5 -13z"/>
<path d="M4571 4184 c0 -11 3 -14 6 -6 3 7 2 16 -1 19 -3 4 -6 -2 -5 -13z"/>
<path d="M6835 4178 c3 -14 2 -28 -3 -30 -8 -3 -43 -110 -38 -115 1 -2 15 25
30 60 22 51 25 68 16 88 l-10 24 5 -27z"/>
<path d="M7161 4184 c0 -11 3 -14 6 -6 3 7 2 16 -1 19 -3 4 -6 -2 -5 -13z"/>
<path d="M6354 4138 c-9 -29 -37 -100 -60 -157 -24 -58 -42 -107 -39 -109 5
-5 25 42 81 192 25 65 43 120 41 123 -3 2 -13 -20 -23 -49z"/>
<path d="M7226 4145 c4 -22 8 -54 9 -70 1 -17 7 -40 12 -50 6 -11 16 -42 22
-70 18 -75 82 -277 86 -273 2 2 -4 31 -14 64 -41 131 -70 247 -59 236 25 -25
28 -10 4 19 -14 17 -29 43 -32 57 -3 15 -12 50 -20 77 -12 42 -13 44 -8 10z"/>
<path d="M7603 4105 c0 -44 2 -61 4 -37 2 23 2 59 0 80 -2 20 -4 1 -4 -43z"/>
<path d="M5672 4120 c0 -30 3 -82 7 -115 6 -55 5 -62 -19 -89 -41 -48 66 43
125 106 l50 53 -60 -57 c-33 -32 -66 -58 -72 -58 -7 0 -14 36 -18 98 -8 113
-14 141 -13 62z"/>
<path d="M4683 4110 c0 -30 2 -43 4 -27 2 15 2 39 0 55 -2 15 -4 2 -4 -28z"/>
<path d="M6953 4105 c0 -27 2 -38 4 -22 2 15 2 37 0 50 -2 12 -4 0 -4 -28z"/>
<path d="M3331 4114 c0 -11 3 -14 6 -6 3 7 2 16 -1 19 -3 4 -6 -2 -5 -13z"/>
<path d="M5849 4103 l-24 -28 28 24 c25 23 32 31 24 31 -2 0 -14 -12 -28 -27z"/>
<path d="M3722 4100 c0 -14 2 -19 5 -12 2 6 2 18 0 25 -3 6 -5 1 -5 -13z"/>
<path d="M7170 4108 c0 -19 12 -33 33 -41 15 -5 14 -2 -5 23 -24 33 -28 36
-28 18z"/>
<path d="M6616 4085 c-9 -26 -7 -32 5 -12 6 10 9 21 6 23 -2 3 -7 -2 -11 -11z"/>
<path d="M4611 4074 c0 -11 3 -14 6 -6 3 7 2 16 -1 19 -3 4 -6 -2 -5 -13z"/>
<path d="M4603 4036 c3 -8 9 -31 13 -51 9 -51 17 -36 9 19 -4 25 -12 46 -17
46 -6 0 -8 -6 -5 -14z"/>
<path d="M4669 4015 c-3 -16 -2 -42 1 -57 l5 -28 11 23 c7 17 7 33 -1 58 l-12
34 -4 -30z"/>
<path d="M7004 3935 c0 -55 1 -76 3 -47 2 29 2 74 0 100 -2 26 -3 2 -3 -53z"/>
<path d="M7206 3998 c5 -36 102 -366 123 -418 19 -49 11 -1 -13 71 -14 41 -40
128 -59 194 -19 66 -39 136 -46 155 l-11 35 6 -37z"/>
<path d="M5172 3995 c0 -16 2 -22 5 -12 2 9 2 23 0 30 -3 6 -5 -1 -5 -18z"/>
<path d="M6567 3965 c-9 -19 -15 -35 -12 -35 7 0 37 61 33 66 -3 2 -12 -12
-21 -31z"/>
<path d="M6962 3965 c0 -16 2 -22 5 -12 2 9 2 23 0 30 -3 6 -5 -1 -5 -18z"/>
<path d="M3708 3972 c-2 -4 -1 -25 3 -47 4 -29 7 -33 8 -13 1 19 7 27 23 30
22 3 22 3 -4 20 -15 10 -29 14 -30 10z"/>
<path d="M2690 3946 c0 -2 9 -6 20 -9 11 -3 18 -1 14 4 -5 9 -34 13 -34 5z"/>
<path d="M5512 3920 c0 -14 2 -19 5 -12 2 6 2 18 0 25 -3 6 -5 1 -5 -13z"/>
<path d="M2799 3888 c-2 -110 0 -160 5 -166 3 -3 6 43 6 101 0 59 -2 107 -5
107 -3 0 -5 -19 -6 -42z"/>
<path d="M4839 3911 c49 -38 79 -52 87 -40 4 8 3 9 -4 5 -7 -4 -12 -3 -12 1 0
5 -21 19 -47 31 -42 20 -45 20 -24 3z"/>
<path d="M5182 3910 c0 -14 2 -19 5 -12 2 6 2 18 0 25 -3 6 -5 1 -5 -13z"/>
<path d="M7591 3904 c0 -11 3 -14 6 -6 3 7 2 16 -1 19 -3 4 -6 -2 -5 -13z"/>
<path d="M6972 3890 c0 -14 2 -19 5 -12 2 6 2 18 0 25 -3 6 -5 1 -5 -13z"/>
<path d="M5675 3854 c-44 -24 -117 -58 -163 -75 -45 -18 -81 -34 -79 -36 2 -2
17 1 32 7 15 6 29 9 31 8 1 -2 23 -57 47 -123 50 -136 99 -237 151 -310 106
-148 109 -154 95 -172 -13 -15 -12 -15 9 -4 21 11 30 31 14 31 -24 0 -160 292
-211 455 -23 72 -41 135 -41 141 0 8 120 74 134 74 2 0 6 -24 10 -53 8 -74 70
-309 107 -409 54 -147 56 -154 33 -180 l-19 -23 24 20 c39 33 145 174 205 272
77 127 159 283 153 290 -3 3 -25 -33 -47 -78 -61 -122 -134 -241 -213 -348
l-70 -95 -29 73 c-77 196 -152 517 -127 547 17 21 28 0 30 -56 0 -25 5 -56 9
-70 5 -14 6 13 3 65 -3 50 -6 90 -7 91 0 1 -37 -19 -81 -42z m-102 -176 c34
-110 99 -278 125 -322 3 -5 -1 -6 -8 -1 -30 18 -170 349 -170 401 0 8 6 14 13
14 7 0 24 -39 40 -92z"/>
<path d="M5609 3873 c-13 -16 -12 -17 4 -4 16 13 21 21 13 21 -2 0 -10 -8 -17
-17z"/>
<path d="M3740 3861 c0 -30 -20 -36 -28 -10 l-6 24 -6 -25 c-6 -23 -11 -25
-56 -23 -27 1 -40 -1 -29 -4 11 -3 25 -9 31 -14 5 -4 19 -6 31 -3 19 5 21 1
21 -69 1 -67 -1 -75 -21 -85 -21 -10 -20 -11 8 -11 17 0 35 3 41 7 11 7 30
232 19 232 -3 0 -5 -9 -5 -19z m-16 -68 c-10 -40 -14 -41 -14 -5 0 18 5 32 10
32 6 0 8 -11 4 -27z"/>
<path d="M6497 3840 c-28 -43 -25 -51 13 -39 16 4 19 7 8 8 -22 1 -22 4 -3 41
22 42 13 37 -18 -10z"/>
<path d="M4960 3857 c0 -2 23 -19 52 -36 28 -18 45 -25 38 -16 -13 15 -90 60
-90 52z"/>
<path d="M5191 3844 c0 -11 3 -14 6 -6 3 7 2 16 -1 19 -3 4 -6 -2 -5 -13z"/>
<path d="M6726 3843 c-6 -14 -5 -15 5 -6 7 7 10 15 7 18 -3 3 -9 -2 -12 -12z"/>
<path d="M3473 3815 c0 -22 2 -30 4 -17 2 12 2 30 0 40 -3 9 -5 -1 -4 -23z"/>
<path d="M6982 3830 c0 -14 2 -19 5 -12 2 6 2 18 0 25 -3 6 -5 1 -5 -13z"/>
<path d="M6222 3815 c-17 -37 -14 -45 4 -12 9 16 14 31 11 33 -2 2 -9 -7 -15
-21z"/>
<path d="M2640 3806 c0 -8 4 -17 9 -20 5 -4 7 3 4 14 -6 23 -13 26 -13 6z"/>
<path d="M4980 3816 c0 -2 8 -10 18 -17 15 -13 16 -12 3 4 -13 16 -21 21 -21
13z"/>
<path d="M6370 3805 c0 -8 2 -15 4 -15 2 0 6 7 10 15 3 8 1 15 -4 15 -6 0 -10
-7 -10 -15z"/>
<path d="M8274 3660 c0 -91 2 -128 3 -82 2 45 2 119 0 165 -1 45 -3 8 -3 -83z"/>
<path d="M8463 3755 c0 -38 2 -53 4 -32 2 20 2 52 0 70 -2 17 -4 1 -4 -38z"/>
<path d="M5201 3794 c0 -11 3 -14 6 -6 3 7 2 16 -1 19 -3 4 -6 -2 -5 -13z"/>
<path d="M3558 3783 c6 -2 18 -2 25 0 6 3 1 5 -13 5 -14 0 -19 -2 -12 -5z"/>
<path d="M6459 3774 c-6 -8 -19 -14 -28 -15 -14 0 -14 -1 1 -7 30 -12 -158
-276 -227 -319 -20 -12 -20 -12 0 -6 22 7 -44 -67 -155 -176 -47 -46 -54 -54
-23 -32 23 17 85 77 139 134 53 56 109 108 123 114 l26 13 -25 -6 c-18 -3 -21
-2 -10 4 8 5 46 12 84 15 38 4 74 12 80 18 8 9 1 10 -28 4 -74 -13 -118 -16
-114 -8 2 4 40 64 86 133 54 81 91 127 105 131 l22 5 -22 6 c-13 4 -27 0 -34
-8z"/>
<path d="M6991 3774 c0 -11 3 -14 6 -6 3 7 2 16 -1 19 -3 4 -6 -2 -5 -13z"/>
<path d="M5030 3777 c0 -2 15 -16 33 -33 l32 -29 -29 33 c-28 30 -36 37 -36
29z"/>
<path d="M5430 3770 c-9 -6 -10 -10 -3 -10 6 0 15 5 18 10 8 12 4 12 -15 0z"/>
<path d="M5212 3750 c0 -14 2 -19 5 -12 2 6 2 18 0 25 -3 6 -5 1 -5 -13z"/>
<path d="M6683 3754 c3 -4 2 -16 -4 -28 -10 -20 -10 -20 5 -2 16 20 17 20 61
-2 25 -12 45 -20 45 -17 0 3 -22 16 -50 30 -48 24 -70 32 -57 19z"/>
<path d="M7582 3730 c0 -19 2 -27 5 -17 2 9 2 25 0 35 -3 9 -5 1 -5 -18z"/>
<path d="M7001 3734 c0 -11 3 -14 6 -6 3 7 2 16 -1 19 -3 4 -6 -2 -5 -13z"/>
<path d="M4276 3730 c-52 -16 -92 -64 -107 -128 -13 -58 2 -67 21 -13 21 62
41 86 91 108 22 9 39 23 39 30 0 15 -3 15 -44 3z"/>
<path d="M6368 3734 c-4 -3 -12 -6 -20 -8 -15 -2 -72 -56 -59 -56 5 0 14 7 22
16 7 8 29 24 48 34 20 11 31 19 25 20 -6 0 -13 -3 -16 -6z"/>
<path d="M3952 3698 c-28 -91 -17 -201 29 -292 29 -60 97 -136 120 -136 10 0
19 -4 19 -8 0 -4 16 -6 35 -4 19 2 35 0 35 -4 0 -5 29 -10 63 -11 35 0 106 -8
158 -16 52 -9 123 -18 159 -21 56 -5 60 -4 30 5 -46 14 -47 16 -24 35 17 14
16 14 -11 1 -28 -12 -75 -12 -75 0 0 3 8 12 18 20 11 10 6 9 -17 -2 -30 -15
-41 -15 -126 -1 -51 9 -118 16 -149 16 -31 0 -70 7 -85 15 -91 46 -156 210
-133 334 5 28 6 54 2 56 -5 3 -10 0 -12 -7 -8 -23 -30 4 -24 28 9 36 -1 29
-12 -8z m51 -256 c17 -43 44 -86 72 -115 52 -55 43 -63 -14 -12 -40 36 -78
104 -91 163 -13 54 3 36 33 -36z"/>
<path d="M1452 3690 c0 -19 2 -27 5 -17 2 9 2 25 0 35 -3 9 -5 1 -5 -18z"/>
<path d="M3486 3640 c10 -164 65 -407 139 -615 54 -153 62 -179 74 -265 9 -64
9 -64 8 -12 -2 53 7 68 18 31 4 -11 9 -18 11 -16 3 3 -15 49 -39 103 -88 195
-161 464 -198 729 -16 115 -18 120 -13 45z"/>
<path d="M4382 3708 c-9 -9 -6 -14 10 -22 50 -26 75 -138 43 -199 -8 -15 -10
-25 -5 -22 6 4 19 27 31 52 24 52 20 97 -13 151 -24 40 -51 55 -66 40z"/>
<path d="M5221 3704 c0 -11 3 -14 6 -6 3 7 2 16 -1 19 -3 4 -6 -2 -5 -13z"/>
<path d="M7011 3694 c0 -11 3 -14 6 -6 3 7 2 16 -1 19 -3 4 -6 -2 -5 -13z"/>
<path d="M5771 3674 c0 -11 3 -14 6 -6 3 7 2 16 -1 19 -3 4 -6 -2 -5 -13z"/>
<path d="M7141 3684 c-2 -23 80 -263 113 -335 19 -41 35 -69 35 -63 1 7 -11
38 -26 70 -15 33 -48 122 -74 199 -26 77 -48 135 -48 129z"/>
<path d="M5231 3664 c0 -11 3 -14 6 -6 3 7 2 16 -1 19 -3 4 -6 -2 -5 -13z"/>
<path d="M6577 3645 c-24 -50 -20 -58 4 -12 11 22 19 41 17 43 -3 2 -12 -12
-21 -31z"/>
<path d="M4280 3610 c-11 -11 -20 -27 -20 -35 0 -25 23 -65 37 -65 9 0 6 7 -7
20 -38 38 -15 84 40 78 32 -3 35 -6 38 -38 3 -24 -2 -38 -14 -47 -10 -7 -13
-13 -7 -13 19 0 36 30 36 62 0 54 -63 78 -103 38z"/>
<path d="M3711 3554 c0 -38 4 -91 9 -119 5 -33 6 -11 3 65 -6 128 -13 161 -12
54z"/>
<path d="M7070 3561 c16 -33 34 -62 39 -65 4 -3 -7 24 -26 59 -43 81 -54 86
-13 6z"/>
<path d="M2800 3595 c5 -6 11 -38 13 -70 l3 -60 2 71 c2 57 -1 71 -13 71 -10
0 -12 -4 -5 -12z"/>
<path d="M5251 3594 c0 -11 3 -14 6 -6 3 7 2 16 -1 19 -3 4 -6 -2 -5 -13z"/>
<path d="M2720 3585 c-7 -9 -11 -17 -9 -20 3 -2 10 5 17 15 14 24 10 26 -8 5z"/>
<path d="M6547 3583 c-4 -3 -7 -11 -7 -17 0 -6 5 -5 12 2 6 6 9 14 7 17 -3 3
-9 2 -12 -2z"/>
<path d="M6551 3525 c-23 -31 -46 -53 -50 -50 -5 2 -16 -6 -24 -19 -10 -15
-30 -26 -54 -30 -98 -18 -234 -75 -278 -118 -20 -19 -20 -19 10 -4 16 8 32 13
35 10 7 -8 -47 -51 -100 -79 -25 -13 -41 -24 -37 -25 5 0 17 5 28 11 41 22 40
2 -1 -29 -51 -37 -47 -41 11 -11 23 11 43 19 45 16 2 -2 -8 -31 -23 -63 -34
-74 -39 -169 -11 -226 10 -21 22 -38 26 -38 4 0 79 -14 167 -31 88 -17 170
-32 183 -34 13 -2 29 -8 37 -15 11 -9 13 -7 10 7 -2 10 -4 20 -4 23 -1 3 -13
6 -28 7 -15 0 -29 6 -31 12 -2 6 -7 9 -11 7 -8 -6 -248 29 -273 39 -47 19 -52
114 -12 255 7 22 6 23 -8 12 -14 -11 -16 -9 -15 20 2 35 39 68 77 68 10 0 41
14 69 31 57 36 181 69 257 69 60 0 86 -22 109 -91 l15 -44 -6 50 -5 50 23 -23
c21 -20 23 -31 22 -110 0 -70 -6 -99 -27 -149 -29 -71 -28 -83 3 -23 42 82 62
227 40 286 -6 15 -9 29 -6 31 12 12 99 -48 163 -112 102 -101 103 -119 23
-221 -91 -115 -91 -112 -9 -56 41 29 79 52 84 52 5 0 16 -7 26 -16 17 -16 18
-15 6 15 -9 25 -9 34 3 46 13 12 20 12 57 -5 48 -21 48 -21 -2 -121 -15 -28
-23 -55 -18 -58 5 -3 24 -48 42 -99 19 -51 38 -95 42 -98 13 -8 11 0 -17 70
l-27 64 26 33 c45 60 84 152 101 237 19 96 20 112 6 112 -5 0 -10 -11 -10 -25
0 -14 -5 -25 -10 -25 -6 0 -9 -10 -7 -22 2 -13 2 -17 0 -10 -3 7 -9 10 -13 7
-9 -5 -5 6 36 103 l15 37 15 -28 c9 -16 18 -26 21 -23 3 3 -11 44 -32 92 -20
48 -43 108 -51 134 -8 26 -21 53 -29 60 -19 16 -19 6 -1 -23 7 -12 26 -59 41
-104 27 -80 28 -82 11 -124 -38 -95 -62 -139 -75 -139 -11 0 -11 -3 -1 -15 7
-8 8 -15 2 -15 -5 0 -15 7 -22 15 -7 8 -9 15 -4 15 4 0 -4 12 -18 28 -14 15
-35 46 -47 69 -11 23 -25 44 -31 48 -23 14 -10 35 23 35 17 1 45 6 60 13 26
11 24 12 -31 13 -40 1 -75 9 -106 23 -47 23 -56 35 -33 44 6 3 -1 6 -18 7 -16
0 -41 7 -54 14 -23 13 -23 14 -5 24 16 10 11 12 -31 12 -27 1 -58 5 -68 8 -16
7 -14 11 14 31 18 14 38 24 45 24 7 0 11 4 8 9 -7 12 -34 10 -34 -2 0 -16 -50
-32 -110 -35 -60 -3 -127 -25 -140 -45 -6 -10 -9 -9 -12 1 -4 11 -9 12 -27 2
-27 -17 -36 -16 -22 0 6 8 37 20 68 28 l58 13 -50 6 -50 5 36 40 c35 40 73 95
65 95 -2 0 -22 -25 -45 -55z m84 -135 c3 -5 2 -10 -4 -10 -5 0 -13 5 -16 10
-3 6 -2 10 4 10 5 0 13 -4 16 -10z m43 -10 c7 -11 11 -20 9 -20 -2 0 -12 9
-22 20 -10 11 -14 20 -9 20 5 0 15 -9 22 -20z m-258 7 c0 -2 -10 -12 -22 -23
l-23 -19 19 23 c18 21 26 27 26 19z m330 -49 c0 -14 -19 1 -31 25 -12 22 -12
22 10 3 11 -11 21 -23 21 -28z m-425 7 c-16 -14 -34 -25 -40 -25 -5 0 4 11 20
25 17 13 35 24 40 24 6 0 -3 -11 -20 -24z m475 -15 c12 -16 18 -30 13 -29 -12
0 -56 59 -44 59 5 0 19 -13 31 -30z m-545 -10 c-16 -16 -33 -30 -39 -30 -5 0
3 14 19 30 16 17 33 30 39 30 5 0 -3 -13 -19 -30z m603 -25 c27 -43 29 -59 1
-25 -28 35 -41 60 -32 60 4 0 18 -16 31 -35z m67 -65 c10 -22 25 -46 33 -53
12 -10 12 -6 -2 21 -9 17 -12 32 -7 32 5 0 14 -13 21 -30 7 -16 19 -35 28 -42
12 -10 14 -10 8 0 -4 6 -4 12 1 12 10 -1 65 -91 59 -97 -2 -3 -12 7 -21 21
-10 14 -21 23 -26 21 -4 -3 -16 6 -25 20 -9 13 -20 23 -24 20 -4 -2 -14 3 -22
13 -23 25 -60 102 -50 102 5 0 17 -18 27 -40z m65 -200 c0 -5 -2 -10 -4 -10
-3 0 -8 5 -11 10 -3 6 -1 10 4 10 6 0 11 -4 11 -10z m180 6 c0 -3 -4 -8 -10
-11 -5 -3 -10 -1 -10 4 0 6 5 11 10 11 6 0 10 -2 10 -4z m-1050 -46 c0 -17 7
-47 15 -67 18 -44 18 -44 0 -37 -18 7 -36 62 -33 102 3 41 18 42 18 2z m830 0
c0 -5 -4 -10 -10 -10 -5 0 -10 5 -10 10 0 6 5 10 10 10 6 0 10 -4 10 -10z
m203 -16 c15 -5 12 -44 -4 -44 -5 0 -6 -6 -3 -14 5 -13 -45 -106 -58 -106 -3
0 -9 13 -13 29 -4 19 1 43 16 75 21 43 39 59 39 36 0 -5 5 -10 10 -10 17 0 11
28 -7 33 -10 3 -13 5 -6 6 6 0 18 -2 26 -5z"/>
<path d="M8092 3555 c0 -16 2 -22 5 -12 2 9 2 23 0 30 -3 6 -5 -1 -5 -18z"/>
<path d="M1431 3544 c0 -11 3 -14 6 -6 3 7 2 16 -1 19 -3 4 -6 -2 -5 -13z"/>
<path d="M4646 3506 c-3 -30 -8 -63 -11 -73 -3 -10 1 -4 10 14 19 42 31 113
18 113 -6 0 -13 -24 -17 -54z"/>
<path d="M6500 3520 c-25 -6 -25 -6 -3 -12 13 -3 26 -2 29 4 9 14 2 16 -26 8z"/>
<path d="M5281 3500 c0 -8 4 -22 9 -30 12 -18 12 -2 0 25 -6 13 -9 15 -9 5z"/>
<path d="M2063 3445 c0 -33 2 -45 4 -27 2 18 2 45 0 60 -2 15 -4 0 -4 -33z"/>
<path d="M8093 3430 c0 -36 2 -50 4 -32 2 17 2 47 0 65 -2 17 -4 3 -4 -33z"/>
<path d="M1422 3460 c0 -14 2 -19 5 -12 2 6 2 18 0 25 -3 6 -5 1 -5 -13z"/>
<path d="M7811 3434 c0 -11 3 -14 6 -6 3 7 2 16 -1 19 -3 4 -6 -2 -5 -13z"/>
<path d="M1412 3390 c0 -14 2 -19 5 -12 2 6 2 18 0 25 -3 6 -5 1 -5 -13z"/>
<path d="M2788 3390 c-15 -11 -36 -35 -47 -54 -33 -53 -24 -53 12 0 17 27 40
50 50 52 15 3 17 -6 19 -80 l2 -83 3 78 c2 42 0 84 -5 93 -7 13 -12 12 -34 -6z"/>
<path d="M5320 3394 c0 -6 7 -19 16 -30 14 -18 14 -18 3 6 -14 31 -19 36 -19
24z"/>
<path d="M7801 3379 c0 -15 -8 -61 -17 -103 -8 -42 -14 -82 -11 -89 6 -18 39
179 34 200 -3 12 -5 9 -6 -8z"/>
<path d="M6084 3358 l-19 -23 23 19 c21 18 27 26 19 26 -2 0 -12 -10 -23 -22z"/>
<path d="M3732 3340 c0 -19 2 -27 5 -17 2 9 2 25 0 35 -3 9 -5 1 -5 -18z"/>
<path d="M5360 3321 c5 -11 15 -23 21 -27 6 -3 3 5 -6 20 -20 30 -30 35 -15 7z"/>
<path d="M2067 3090 c2 -118 10 -267 17 -330 16 -142 20 -79 5 85 -6 66 -14
197 -19 290 -9 169 -9 169 -3 -45z"/>
<path d="M3055 3090 c2 -126 10 -261 20 -325 8 -60 22 -186 30 -280 40 -468
174 -913 325 -1078 46 -51 110 -93 129 -85 5 2 -22 49 -59 105 -232 350 -411
1037 -440 1687 l-8 191 3 -215z m115 -854 c88 -356 190 -617 316 -812 34 -54
48 -84 39 -84 -24 0 -112 96 -153 168 -90 155 -186 466 -227 737 -26 172 -20
169 25 -9z"/>
<path d="M2421 3264 c0 -16 4 -38 9 -49 6 -13 7 -5 3 25 -7 53 -13 66 -12 24z"/>
<path d="M2711 3264 c0 -11 3 -14 6 -6 3 7 2 16 -1 19 -3 4 -6 -2 -5 -13z"/>
<path d="M6319 3260 c-20 -10 -44 -30 -53 -44 -21 -33 -12 -33 26 -1 16 14 38
25 49 25 12 0 19 7 19 20 0 11 -1 20 -2 20 -2 -1 -19 -9 -39 -20z"/>
<path d="M3331 3254 c0 -11 3 -14 6 -6 3 7 2 16 -1 19 -3 4 -6 -2 -5 -13z"/>
<path d="M5424 3242 c32 -34 49 -42 40 -17 -4 8 -11 15 -17 15 -6 0 -20 8 -31
17 -12 10 -8 3 8 -15z"/>
<path d="M6410 3256 c0 -8 11 -34 25 -57 29 -51 30 -71 10 -128 -17 -49 0 -45
21 5 22 53 18 114 -11 157 -26 38 -45 48 -45 23z"/>
<path d="M2698 3209 c-3 -16 -1 -47 3 -67 6 -31 7 -26 8 31 1 71 -4 87 -11 36z"/>
<path d="M8251 3224 c0 -11 3 -14 6 -6 3 7 2 16 -1 19 -3 4 -6 -2 -5 -13z"/>
<path d="M2832 3190 c0 -14 2 -19 5 -12 2 6 2 18 0 25 -3 6 -5 1 -5 -13z"/>
<path d="M1381 3174 c0 -11 3 -14 6 -6 3 7 2 16 -1 19 -3 4 -6 -2 -5 -13z"/>
<path d="M2446 3170 c15 -62 238 -430 252 -416 2 3 -22 42 -55 88 -61 86 -147
231 -182 308 -12 25 -18 34 -15 20z"/>
<path d="M5950 3170 c-14 -11 -41 -28 -60 -39 -19 -11 -64 -35 -100 -55 -36
-20 -60 -36 -55 -36 6 0 34 14 64 30 l55 30 40 -38 c23 -21 50 -44 61 -52 11
-8 -5 9 -35 37 -49 45 -53 52 -41 67 8 10 23 15 33 13 10 -3 18 0 18 6 0 6 12
21 28 34 33 27 27 30 -8 3z"/>
<path d="M6661 3164 c0 -11 3 -14 6 -6 3 7 2 16 -1 19 -3 4 -6 -2 -5 -13z"/>
<path d="M6307 3155 c-26 -26 -30 -55 -11 -76 37 -41 87 -11 82 50 -3 30 -7
36 -29 39 -15 2 -34 -4 -42 -13z m57 -52 c-11 -32 -50 -44 -60 -19 -9 25 4 64
24 69 29 6 47 -18 36 -50z"/>
<path d="M7761 3158 c-2 -31 -72 -251 -112 -351 -88 -220 -197 -401 -305 -509
-32 -32 -60 -56 -62 -53 -3 3 1 13 9 23 8 10 -4 -2 -25 -28 -21 -25 -89 -94
-150 -154 -61 -60 -106 -106 -99 -103 8 5 13 -16 18 -70 10 -120 21 -127 17
-11 l-4 103 119 115 c65 64 137 130 159 148 41 32 42 32 48 9 3 -12 6 -67 7
-122 2 -107 15 -270 18 -220 0 17 8 50 17 74 23 68 51 216 59 316 9 114 -1
108 -15 -10 -16 -136 -51 -299 -61 -283 -5 7 -8 65 -8 128 1 63 -2 123 -6 133
-5 12 5 33 33 70 101 132 183 284 257 478 43 112 98 305 92 321 -4 8 -6 7 -6
-4z"/>
<path d="M8242 3140 c0 -14 2 -19 5 -12 2 6 2 18 0 25 -3 6 -5 1 -5 -13z"/>
<path d="M6642 3086 c-7 -26 -21 -66 -32 -88 -11 -24 -14 -35 -6 -28 22 17 57
109 54 138 -2 22 -5 18 -16 -22z"/>
<path d="M5729 3093 l-24 -28 28 24 c25 23 32 31 24 31 -2 0 -14 -12 -28 -27z"/>
<path d="M6221 3104 c0 -11 3 -14 6 -6 3 7 2 16 -1 19 -3 4 -6 -2 -5 -13z"/>
<path d="M1372 3090 c0 -14 2 -19 5 -12 2 6 2 18 0 25 -3 6 -5 1 -5 -13z"/>
<path d="M5530 3106 c0 -2 8 -10 18 -17 15 -13 16 -12 3 4 -13 16 -21 21 -21
13z"/>
<path d="M8231 3070 c0 -19 -8 -76 -16 -126 -10 -66 -12 -100 -4 -125 5 -19
10 -153 11 -299 2 -242 2 -256 11 -155 6 72 6 186 -2 330 -7 155 -7 240 0 287
6 37 9 80 6 95 -4 25 -4 24 -6 -7z"/>
<path d="M2843 3030 c0 -25 2 -35 4 -22 2 12 2 32 0 45 -2 12 -4 2 -4 -23z"/>
<path d="M5970 3041 c5 -11 15 -23 21 -27 6 -3 3 5 -6 20 -20 30 -30 35 -15 7z"/>
<path d="M2730 3035 c0 -5 5 -17 10 -25 5 -8 10 -10 10 -5 0 6 -5 17 -10 25
-5 8 -10 11 -10 5z"/>
<path d="M5580 2995 c-16 -9 -19 -14 -9 -15 8 0 24 7 35 15 24 18 7 19 -26 0z"/>
<path d="M5980 2996 c0 -5 69 -46 77 -46 9 0 -40 36 -59 43 -10 3 -18 5 -18 3z"/>
<path d="M3602 2950 c0 -19 2 -27 5 -17 2 9 2 25 0 35 -3 9 -5 1 -5 -18z"/>
<path d="M2142 2925 c0 -16 2 -22 5 -12 2 9 2 23 0 30 -3 6 -5 -1 -5 -18z"/>
<path d="M2849 2892 c-2 -38 0 -62 6 -62 6 0 9 20 7 48 -5 77 -8 81 -13 14z"/>
<path d="M3811 2934 c0 -11 3 -14 6 -6 3 7 2 16 -1 19 -3 4 -6 -2 -5 -13z"/>
<path d="M2786 2917 c3 -10 9 -15 12 -12 3 3 0 11 -7 18 -10 9 -11 8 -5 -6z"/>
<path d="M1341 2874 c0 -11 3 -14 6 -6 3 7 2 16 -1 19 -3 4 -6 -2 -5 -13z"/>
<path d="M2815 2880 c3 -5 8 -10 11 -10 2 0 4 5 4 10 0 6 -5 10 -11 10 -5 0
-7 -4 -4 -10z"/>
<path d="M2151 2824 c0 -11 3 -14 6 -6 3 7 2 16 -1 19 -3 4 -6 -2 -5 -13z"/>
<path d="M1307 2669 c-58 -335 -89 -471 -175 -784 -109 -394 -212 -641 -437
-1045 -119 -216 -204 -354 -273 -445 -24 -33 -49 -67 -55 -75 -6 -8 22 17 61
55 137 132 359 430 513 690 83 139 154 265 162 288 12 34 -2 16 -36 -45 -106
-192 -171 -300 -283 -469 -97 -146 -338 -451 -299 -379 5 8 25 40 45 70 35 52
180 307 267 470 233 433 395 942 509 1595 19 110 33 208 32 219 -2 10 -16 -55
-31 -145z"/>
<path d="M6610 2786 c0 -2 7 -7 16 -10 8 -3 12 -2 9 4 -6 10 -25 14 -25 6z"/>
<path d="M2162 2750 c0 -14 2 -19 5 -12 2 6 2 18 0 25 -3 6 -5 1 -5 -13z"/>
<path d="M8412 2720 c0 -14 2 -19 5 -12 2 6 2 18 0 25 -3 6 -5 1 -5 -13z"/>
<path d="M2720 2724 c0 -5 7 -20 17 -33 11 -16 16 -44 16 -80 l0 -56 6 50 c5
44 7 48 18 30 6 -11 14 -17 17 -14 3 3 -10 27 -29 53 -41 58 -45 62 -45 50z"/>
<path d="M3750 2724 c0 -6 7 -19 16 -30 14 -18 14 -18 3 6 -14 31 -19 36 -19
24z"/>
<path d="M2172 2680 c0 -14 2 -19 5 -12 2 6 2 18 0 25 -3 6 -5 1 -5 -13z"/>
<path d="M3890 2695 c0 -5 5 -17 10 -25 5 -8 10 -10 10 -5 0 6 -5 17 -10 25
-5 8 -10 11 -10 5z"/>
<path d="M3712 2660 c0 -19 2 -27 5 -17 2 9 2 25 0 35 -3 9 -5 1 -5 -18z"/>
<path d="M8161 2674 c0 -11 3 -14 6 -6 3 7 2 16 -1 19 -3 4 -6 -2 -5 -13z"/>
<path d="M2882 2650 c0 -19 2 -27 5 -17 2 9 2 25 0 35 -3 9 -5 1 -5 -18z"/>
<path d="M3797 2635 c9 -19 18 -33 21 -31 4 5 -26 66 -33 66 -3 0 3 -16 12
-35z"/>
<path d="M6940 2666 c0 -2 12 -12 28 -21 l27 -18 -19 21 c-17 20 -36 29 -36
18z"/>
<path d="M7448 2542 c-31 -64 -66 -133 -78 -152 -22 -35 -22 -35 -1 -10 25 29
146 268 139 275 -2 3 -30 -48 -60 -113z"/>
<path d="M2101 2605 c0 -22 6 -118 13 -213 8 -95 13 -196 10 -225 -2 -29 -8
-113 -14 -187 -16 -201 -20 -239 -31 -313 -11 -65 -13 -69 -67 -115 -31 -26
-80 -71 -110 -99 -55 -52 -55 -53 -48 -100 3 -26 11 -52 16 -57 19 -19 14 -22
-100 -75 -56 -26 -65 -41 -89 -144 -17 -71 -24 -85 -53 -107 -18 -13 -50 -43
-72 -65 l-38 -40 50 100 c98 196 171 393 222 594 66 266 131 702 129 866 l-2
80 -8 -106 c-29 -381 -120 -850 -214 -1099 -57 -153 -136 -329 -185 -411 -33
-56 -188 -224 -197 -215 -2 2 22 45 53 97 112 185 244 453 230 467 -3 3 -11
-10 -18 -28 -38 -110 -240 -475 -327 -590 -22 -30 -80 -89 -128 -133 -49 -43
-129 -115 -180 -160 -50 -45 -92 -86 -92 -91 -2 -15 342 299 589 539 97 93
190 182 206 197 24 21 34 41 44 90 22 106 31 120 91 147 30 13 67 30 82 38 16
8 29 13 31 11 71 -115 223 -326 359 -497 45 -57 98 -130 117 -164 20 -34 62
-84 99 -116 52 -47 191 -210 191 -226 0 -9 -155 66 -175 85 -40 37 -445 287
-410 254 6 -6 53 -37 105 -69 52 -32 139 -88 194 -124 111 -74 126 -84 246
-154 47 -27 101 -59 120 -71 l35 -21 -38 38 c-42 43 -187 222 -187 232 0 4 55
-22 123 -57 118 -61 127 -68 276 -216 84 -84 155 -151 157 -149 2 2 -51 62
-118 132 l-123 129 110 -74 c61 -40 145 -100 188 -133 42 -33 80 -58 83 -55 8
8 -213 173 -326 243 -52 32 -168 96 -257 143 -88 46 -180 99 -202 119 -77 66
-118 167 -157 388 -23 127 -23 128 -19 50 4 -77 28 -215 42 -239 3 -6 -4 -2
-17 9 -26 23 -224 286 -297 395 -84 126 -98 165 -67 190 35 30 36 47 2 101
l-31 52 34 28 c19 16 36 29 39 29 3 0 19 -22 35 -50 16 -27 32 -50 35 -50 4 0
25 16 47 35 33 28 43 32 52 22 6 -8 20 -63 32 -123 11 -60 25 -114 30 -120 5
-6 6 -14 2 -18 -4 -4 -3 -10 3 -14 6 -4 21 -43 33 -87 21 -78 21 -79 16 -25
-12 132 -27 245 -33 255 -3 5 -5 26 -5 45 2 30 1 32 -6 10 -6 -22 -8 -20 -14
20 -3 25 -20 198 -37 385 -58 648 -78 850 -79 810z m39 -755 c-16 -159 -22
-200 -32 -206 -5 -3 -6 5 -3 18 6 28 12 88 21 243 6 97 9 112 15 80 5 -22 4
-83 -1 -135z"/>
<path d="M2182 2610 c0 -14 2 -19 5 -12 2 6 2 18 0 25 -3 6 -5 1 -5 -13z"/>
<path d="M3920 2625 c0 -5 5 -17 10 -25 5 -8 10 -10 10 -5 0 6 -5 17 -10 25
-5 8 -10 11 -10 5z"/>
<path d="M3722 2590 c0 -19 2 -27 5 -17 2 9 2 25 0 35 -3 9 -5 1 -5 -18z"/>
<path d="M2895 2578 c5 -47 -10 -49 -50 -8 -16 16 -31 28 -33 25 -3 -3 5 -16
18 -30 23 -24 24 -30 22 -178 -3 -174 13 -236 20 -81 3 57 12 113 20 133 l16
34 12 -69 c11 -60 10 -78 -5 -134 -10 -36 -19 -76 -22 -90 l-4 -25 15 25 c17
29 22 9 5 -22 -8 -16 -8 -24 4 -35 12 -12 15 -13 15 -2 -1 8 0 22 0 33 2 16 4
17 20 5 15 -12 16 -12 5 2 -8 10 -10 25 -4 45 8 28 8 28 19 -20 8 -38 7 -57
-3 -87 -8 -21 -10 -41 -5 -44 4 -3 13 10 20 28 11 29 13 30 20 12 16 -37 10
-4 -20 118 -17 67 -44 185 -60 262 -16 77 -28 123 -25 103z m-1 -66 c-7 -4
-14 -18 -17 -32 -4 -21 -4 -20 -6 8 -1 24 3 32 17 32 11 0 13 -3 6 -8z m43
-264 c-3 -7 -5 -2 -5 12 0 14 2 19 5 13 2 -7 2 -19 0 -25z"/>
<path d="M1923 2555 c0 -27 2 -38 4 -22 2 15 2 37 0 50 -2 12 -4 0 -4 -28z"/>
<path d="M8391 2564 c0 -11 3 -14 6 -6 3 7 2 16 -1 19 -3 4 -6 -2 -5 -13z"/>
<path d="M2191 2554 c0 -11 3 -14 6 -6 3 7 2 16 -1 19 -3 4 -6 -2 -5 -13z"/>
<path d="M3732 2520 c0 -19 2 -27 5 -17 2 9 2 25 0 35 -3 9 -5 1 -5 -18z"/>
<path d="M3858 2535 c14 -27 101 -145 107 -145 4 0 -100 149 -112 160 -3 3 -1
-4 5 -15z"/>
<path d="M6811 2514 c0 -11 3 -14 6 -6 3 7 2 16 -1 19 -3 4 -6 -2 -5 -13z"/>
<path d="M8121 2514 c0 -11 3 -14 6 -6 3 7 2 16 -1 19 -3 4 -6 -2 -5 -13z"/>
<path d="M2201 2494 c0 -11 3 -14 6 -6 3 7 2 16 -1 19 -3 4 -6 -2 -5 -13z"/>
<path d="M2411 2495 c-1 -31 35 -231 63 -349 51 -211 162 -573 172 -563 2 2
-10 44 -27 93 -16 49 -54 175 -83 279 -46 164 -68 263 -114 510 -5 28 -10 41
-11 30z"/>
<path d="M8382 2485 c0 -16 2 -22 5 -12 2 9 2 23 0 30 -3 6 -5 -1 -5 -18z"/>
<path d="M2751 2420 c-4 -247 111 -876 211 -1150 93 -254 111 -293 63 -136
-39 129 -83 340 -100 481 -8 72 -17 140 -19 153 -4 28 10 29 19 1 4 -11 9 -18
11 -16 3 3 -2 22 -12 43 -28 65 -33 101 -18 121 18 24 17 36 -1 29 -12 -4 -15
3 -16 32 -1 20 -5 51 -10 67 -12 45 -3 -97 20 -320 18 -167 36 -284 57 -373 4
-15 4 -24 0 -21 -3 3 -21 69 -41 146 -85 346 -121 560 -154 928 l-8 90 -2 -75z"/>
<path d="M3742 2455 c0 -16 2 -22 5 -12 2 9 2 23 0 30 -3 6 -5 -1 -5 -18z"/>
<path d="M2211 2454 c0 -11 3 -14 6 -6 3 7 2 16 -1 19 -3 4 -6 -2 -5 -13z"/>
<path d="M6834 2437 c3 -10 6 -28 6 -39 0 -12 3 -18 6 -15 9 9 44 -38 44 -59
0 -9 3 -14 7 -11 3 4 18 -3 32 -15 15 -15 11 -6 -11 22 -20 25 -48 65 -63 90
-15 25 -24 37 -21 27z"/>
<path d="M3752 2390 c0 -19 2 -27 5 -17 2 9 2 25 0 35 -3 9 -5 1 -5 -18z"/>
<path d="M2221 2394 c0 -11 3 -14 6 -6 3 7 2 16 -1 19 -3 4 -6 -2 -5 -13z"/>
<path d="M7891 2394 c0 -11 3 -14 6 -6 3 7 2 16 -1 19 -3 4 -6 -2 -5 -13z"/>
<path d="M4030 2315 c35 -36 67 -65 69 -65 3 0 -24 29 -59 65 -35 36 -67 65
-69 65 -3 0 24 -29 59 -65z"/>
<path d="M7872 2315 c-37 -172 -151 -516 -222 -670 -90 -195 -121 -256 -181
-363 -40 -70 -118 -195 -175 -279 l-102 -151 61 35 c78 44 166 121 241 211
l58 70 34 -20 c41 -24 105 -25 158 -3 51 22 41 29 -14 10 -23 -8 -53 -15 -67
-15 -32 0 -93 26 -93 40 0 7 7 7 22 -1 25 -14 146 -6 178 11 34 18 20 20 -40
4 -68 -18 -111 -18 -135 0 -17 12 -16 16 27 77 47 66 109 172 91 154 -6 -5
-40 -55 -76 -110 -120 -184 -241 -319 -353 -396 -24 -16 -44 -28 -44 -25 0 2
39 62 86 133 204 306 357 624 473 988 51 159 93 322 89 344 -2 9 -9 -11 -16
-44z"/>
<path d="M8361 2354 c0 -11 3 -14 6 -6 3 7 2 16 -1 19 -3 4 -6 -2 -5 -13z"/>
<path d="M6831 2344 c0 -11 3 -14 6 -6 3 7 2 16 -1 19 -3 4 -6 -2 -5 -13z"/>
<path d="M7501 2283 c-20 -122 -60 -289 -81 -346 -11 -29 -19 -68 -19 -87 1
-32 2 -31 9 11 4 26 13 56 19 66 14 26 66 238 81 328 6 39 13 78 15 88 2 9 0
17 -4 17 -4 0 -13 -35 -20 -77z"/>
<path d="M2231 2334 c0 -11 3 -14 6 -6 3 7 2 16 -1 19 -3 4 -6 -2 -5 -13z"/>
<path d="M3762 2325 c0 -16 2 -22 5 -12 2 9 2 23 0 30 -3 6 -5 -1 -5 -18z"/>
<path d="M8081 2334 c0 -11 3 -14 6 -6 3 7 2 16 -1 19 -3 4 -6 -2 -5 -13z"/>
<path d="M4088 2325 c6 -11 21 -29 34 -40 22 -19 22 -19 -2 10 -40 48 -43 51
-32 30z"/>
<path d="M6821 2304 c0 -11 3 -14 6 -6 3 7 2 16 -1 19 -3 4 -6 -2 -5 -13z"/>
<path d="M8071 2294 c0 -11 3 -14 6 -6 3 7 2 16 -1 19 -3 4 -6 -2 -5 -13z"/>
<path d="M7186 2283 c-6 -14 -5 -15 5 -6 7 7 10 15 7 18 -3 3 -9 -2 -12 -12z"/>
<path d="M3772 2270 c0 -14 2 -19 5 -12 2 6 2 18 0 25 -3 6 -5 1 -5 -13z"/>
<path d="M6812 2260 c0 -14 2 -19 5 -12 2 6 2 18 0 25 -3 6 -5 1 -5 -13z"/>
<path d="M6882 2260 c0 -14 2 -19 5 -12 2 6 2 18 0 25 -3 6 -5 1 -5 -13z"/>
<path d="M4169 2228 c19 -21 31 -38 25 -38 -11 -1 77 -49 91 -50 5 0 -8 12
-30 26 -22 15 -58 43 -80 63 l-40 36 34 -37z"/>
<path d="M8342 2240 c0 -14 2 -19 5 -12 2 6 2 18 0 25 -3 6 -5 1 -5 -13z"/>
<path d="M7017 2224 c17 -16 34 -40 36 -54 4 -21 5 -21 4 4 -2 20 -12 36 -37
54 l-35 25 32 -29z"/>
<path d="M3782 2215 c0 -16 2 -22 5 -12 2 9 2 23 0 30 -3 6 -5 -1 -5 -18z"/>
<path d="M4124 2231 c7 -11 46 -35 46 -28 0 3 -12 12 -26 22 -15 9 -23 12 -20
6z"/>
<path d="M7143 2214 c-9 -14 -25 -29 -34 -33 -12 -4 -15 -11 -10 -20 6 -10 17
-1 40 33 18 25 30 46 27 46 -3 0 -13 -12 -23 -26z"/>
<path d="M6801 2204 c0 -11 3 -14 6 -6 3 7 2 16 -1 19 -3 4 -6 -2 -5 -13z"/>
<path d="M8213 2180 c0 -25 2 -35 4 -22 2 12 2 32 0 45 -2 12 -4 2 -4 -23z"/>
<path d="M2261 2194 c0 -11 3 -14 6 -6 3 7 2 16 -1 19 -3 4 -6 -2 -5 -13z"/>
<path d="M6873 2140 c0 -36 2 -50 4 -32 2 17 2 47 0 65 -2 17 -4 3 -4 -33z"/>
<path d="M6792 2160 c0 -14 2 -19 5 -12 2 6 2 18 0 25 -3 6 -5 1 -5 -13z"/>
<path d="M2860 2165 c0 -5 5 -17 10 -25 5 -8 10 -10 10 -5 0 6 -5 17 -10 25
-5 8 -10 11 -10 5z"/>
<path d="M3792 2150 c0 -14 4 -36 8 -50 6 -20 8 -21 8 -5 0 11 -4 34 -8 50 -7
27 -8 27 -8 5z"/>
<path d="M2271 2144 c0 -11 3 -14 6 -6 3 7 2 16 -1 19 -3 4 -6 -2 -5 -13z"/>
<path d="M7041 2110 c-1 -29 -11 -45 -48 -81 -27 -25 -61 -56 -78 -68 l-30
-23 -6 64 -6 63 -1 -63 c-2 -59 -4 -63 -34 -82 -18 -11 -45 -20 -60 -20 -16 0
-28 -4 -28 -10 0 -5 5 -10 12 -10 7 0 -8 -20 -32 -45 -46 -47 -59 -51 -41 -13
10 20 10 21 -1 4 -7 -10 -33 -46 -57 -80 l-44 -61 95 92 c82 78 104 94 152
108 30 9 58 21 61 26 4 5 -5 5 -20 -1 -44 -17 -41 -11 11 21 55 34 139 113
187 174 27 35 28 37 5 17 l-26 -24 -5 24 c-3 16 -5 13 -6 -12z"/>
<path d="M6754 2022 c-17 -59 -34 -116 -39 -127 -5 -14 -5 -17 2 -10 19 18 85
245 72 245 -2 0 -18 -49 -35 -108z"/>
<path d="M8192 2055 c-7 -43 -10 -80 -8 -82 6 -6 29 134 24 148 -2 7 -9 -23
-16 -66z"/>
<path d="M2885 2107 c-8 -19 -2 -31 13 -26 5 2 6 13 2 24 -7 19 -8 19 -15 2z"/>
<path d="M8311 2084 c0 -11 3 -14 6 -6 3 7 2 16 -1 19 -3 4 -6 -2 -5 -13z"/>
<path d="M1426 2065 c-9 -26 -7 -32 5 -12 6 10 9 21 6 23 -2 3 -7 -2 -11 -11z"/>
<path d="M3812 2050 c0 -14 2 -19 5 -12 2 6 2 18 0 25 -3 6 -5 1 -5 -13z"/>
<path d="M8301 2044 c0 -11 3 -14 6 -6 3 7 2 16 -1 19 -3 4 -6 -2 -5 -13z"/>
<path d="M2931 2014 c-13 -29 -14 -44 -3 -44 11 0 32 59 23 65 -5 2 -13 -7
-20 -21z"/>
<path d="M3021 2034 c-1 -15 40 -136 45 -131 2 2 -7 35 -20 73 -14 38 -25 64
-25 58z"/>
<path d="M4920 2033 c0 -6 8 -17 18 -24 16 -13 16 -13 2 6 -8 11 -16 22 -17
24 -2 2 -3 0 -3 -6z"/>
<path d="M2301 2014 c0 -11 3 -14 6 -6 3 7 2 16 -1 19 -3 4 -6 -2 -5 -13z"/>
<path d="M3822 1995 c0 -16 2 -22 5 -12 2 9 2 23 0 30 -3 6 -5 -1 -5 -18z"/>
<path d="M8291 2004 c0 -11 3 -14 6 -6 3 7 2 16 -1 19 -3 4 -6 -2 -5 -13z"/>
<path d="M2311 1974 c0 -11 3 -14 6 -6 3 7 2 16 -1 19 -3 4 -6 -2 -5 -13z"/>
<path d="M6969 1959 l-24 -20 28 17 c15 9 27 18 27 20 0 8 -8 4 -31 -17z"/>
<path d="M3835 1910 c2 -30 13 -77 24 -105 26 -65 25 -51 -4 65 -22 87 -23 90
-20 40z"/>
<path d="M8162 1912 c-24 -98 -24 -98 -14 -82 12 19 36 120 30 125 -3 3 -10
-16 -16 -43z"/>
<path d="M8246 1865 c-15 -47 -29 -93 -32 -103 -5 -14 -4 -15 5 -2 14 19 64
180 58 186 -2 3 -16 -34 -31 -81z"/>
<path d="M6920 1930 c-9 -6 -10 -10 -3 -10 6 0 15 5 18 10 8 12 4 12 -15 0z"/>
<path d="M7916 1844 c-20 -48 -35 -89 -32 -91 2 -2 20 35 40 83 20 48 35 89
33 91 -2 2 -20 -36 -41 -83z"/>
<path d="M3356 1893 c26 -112 195 -515 210 -501 3 3 -9 33 -25 67 -41 81 -121
276 -155 379 -27 80 -43 109 -30 55z"/>
<path d="M6976 1885 c10 -8 24 -14 29 -14 6 0 1 6 -9 14 -11 8 -24 15 -30 15
-5 0 -1 -7 10 -15z"/>
<path d="M1336 1855 c-9 -26 -7 -32 5 -12 6 10 9 21 6 23 -2 3 -7 -2 -11 -11z"/>
<path d="M3081 1858 c-1 -12 31 -89 35 -85 3 2 -4 24 -15 48 -11 24 -20 41
-20 37z"/>
<path d="M5725 1850 c-3 -6 1 -7 9 -4 18 7 21 14 7 14 -6 0 -13 -4 -16 -10z"/>
<path d="M1306 1785 c-9 -26 -7 -32 5 -12 6 10 9 21 6 23 -2 3 -7 -2 -11 -11z"/>
<path d="M2361 1774 c0 -11 3 -14 6 -6 3 7 2 16 -1 19 -3 4 -6 -2 -5 -13z"/>
<path d="M7036 1752 l-19 -27 24 22 c12 12 21 24 18 27 -2 2 -13 -8 -23 -22z"/>
<path d="M3132 1730 c9 -27 28 -50 28 -35 0 9 -30 65 -35 65 -2 0 1 -14 7 -30z"/>
<path d="M7821 1753 c-1 -6 -4 -20 -7 -30 -5 -17 -5 -17 6 0 6 10 9 23 6 30
-3 9 -5 9 -5 0z"/>
<path d="M3881 1740 c0 -8 4 -24 9 -35 5 -13 9 -14 9 -5 0 8 -4 24 -9 35 -5
13 -9 14 -9 5z"/>
<path d="M1260 1690 c-11 -21 -20 -43 -20 -47 0 -10 34 45 43 70 12 31 -2 18
-23 -23z"/>
<path d="M2960 1707 c0 -10 103 -185 125 -212 21 -25 14 -13 -62 115 -35 58
-63 101 -63 97z"/>
<path d="M6925 1638 c-36 -40 -86 -105 -111 -145 -25 -39 -52 -74 -59 -77 -27
-10 -15 -24 20 -23 19 1 30 4 24 8 -28 17 31 117 139 239 35 38 61 70 58 70
-2 0 -34 -33 -71 -72z"/>
<path d="M7402 1685 c0 -16 2 -22 5 -12 2 9 2 23 0 30 -3 6 -5 -1 -5 -18z"/>
<path d="M3901 1670 c0 -8 4 -24 9 -35 5 -13 9 -14 9 -5 0 8 -4 24 -9 35 -5
13 -9 14 -9 5z"/>
<path d="M6570 1667 c-8 -7 -22 -21 -30 -32 -8 -11 0 -7 18 9 29 27 37 37 30
36 -2 0 -10 -6 -18 -13z"/>
<path d="M7780 1656 c-15 -39 -12 -46 6 -13 9 16 13 31 10 34 -3 3 -10 -6 -16
-21z"/>
<path d="M3170 1651 c0 -5 5 -13 10 -16 6 -3 10 -2 10 4 0 5 -4 13 -10 16 -5
3 -10 2 -10 -4z"/>
<path d="M3985 1611 c108 -114 362 -306 602 -455 l141 -88 -60 -77 c-58 -73
-263 -376 -275 -407 -9 -25 -28 -15 -96 52 -83 81 -142 163 -207 286 -57 108
-67 112 -14 5 46 -92 102 -175 173 -256 48 -55 52 -63 31 -57 -14 3 -2 -4 26
-18 28 -13 54 -28 58 -34 3 -5 -10 -44 -30 -87 -33 -71 -67 -190 -80 -278 l-5
-38 -37 32 c-20 17 -100 90 -177 162 -77 72 -115 105 -85 73 94 -98 518 -478
447 -400 l-27 31 40 102 c63 159 122 413 101 434 -8 8 -11 -1 -11 -31 0 -64
-37 -223 -82 -348 -55 -156 -55 -156 -108 -108 l-43 39 6 75 c5 76 38 182 84
273 22 44 27 48 51 43 26 -6 26 -6 8 9 -16 12 -17 19 -9 38 23 49 104 168 113
165 19 -6 148 -124 157 -143 8 -15 12 3 17 70 8 105 37 235 67 305 12 28 23
50 25 50 3 0 53 -24 112 -54 59 -29 118 -56 132 -60 14 -4 -16 13 -66 37 -288
140 -683 406 -939 631 -68 60 -78 67 -40 27z m754 -639 c-16 -37 -29 -75 -29
-84 0 -30 -17 -20 -24 13 -12 60 -7 80 29 116 19 19 39 32 44 29 5 -3 -4 -36
-20 -74z m-66 -112 c4 -14 -3 -5 -14 18 -12 26 -18 50 -13 60 5 13 9 8 14 -18
4 -19 10 -46 13 -60z m-1 -43 c15 -21 18 -36 13 -63 l-6 -35 -18 23 c-10 13
-30 46 -44 74 -24 48 -25 52 -9 75 l16 23 14 -34 c8 -19 23 -47 34 -63z m-26
-78 c30 -42 46 -100 27 -99 -5 1 -39 29 -78 64 l-69 64 29 43 29 44 14 -35 c8
-19 29 -56 48 -81z"/>
<path d="M2401 1634 c0 -11 3 -14 6 -6 3 7 2 16 -1 19 -3 4 -6 -2 -5 -13z"/>
<path d="M3196 1608 c94 -161 241 -297 370 -346 42 -15 56 -28 97 -87 58 -86
177 -232 195 -239 7 -3 -18 31 -56 77 -38 45 -94 118 -125 163 -49 70 -62 82
-99 93 -104 30 -254 158 -337 284 -24 37 -45 67 -48 67 -2 0 -1 -6 3 -12z"/>
<path d="M3820 1617 c0 -4 12 -37 26 -74 14 -38 43 -125 65 -196 22 -70 49
-152 60 -183 35 -93 31 -54 -5 52 -48 141 -50 148 -37 139 8 -4 7 5 -3 27 -8
18 -33 78 -56 133 -41 97 -50 115 -50 102z"/>
<path d="M1167 1498 c-31 -61 -55 -113 -53 -116 5 -4 89 157 106 204 18 46 4
23 -53 -88z"/>
<path d="M6455 1569 c-27 -23 -51 -42 -52 -43 -1 -1 24 -2 55 -2 45 -1 52 1
32 8 -36 13 -36 15 -5 48 39 41 30 37 -30 -11z"/>
<path d="M7741 1565 c-29 -65 -26 -71 5 -12 14 27 23 51 21 54 -3 2 -15 -17
-26 -42z"/>
<path d="M8066 1595 c-9 -26 -7 -32 5 -12 6 10 9 21 6 23 -2 3 -7 -2 -11 -11z"/>
<path d="M8131 1573 c-10 -26 -10 -27 4 -9 8 11 15 23 15 28 0 15 -7 8 -19
-19z"/>
<path d="M3937 1555 c3 -16 12 -43 19 -60 l14 -30 -5 29 c-4 16 -12 43 -20 60
l-14 31 6 -30z"/>
<path d="M2656 1550 c3 -14 11 -32 16 -40 6 -10 7 -7 2 10 -3 14 -11 32 -16
40 -6 10 -7 7 -2 -10z"/>
<path d="M7289 1493 c-28 -43 -99 -163 -157 -266 -59 -104 -119 -204 -135
-222 -15 -19 -57 -53 -92 -76 -35 -22 -62 -46 -59 -53 2 -6 -3 -20 -11 -31
-16 -19 -16 -19 -12 6 l4 27 -49 -30 c-26 -16 -48 -32 -48 -34 0 -3 4 -3 9 0
10 6 21 -26 21 -62 0 -26 -27 -72 -42 -72 -7 0 -8 15 -5 38 4 20 4 47 1 59 -6
22 -8 22 -63 -18 -31 -22 -153 -105 -271 -184 -252 -168 -301 -209 -299 -251
2 -25 2 -26 6 -5 4 21 8 23 51 16 75 -11 303 -89 377 -130 38 -20 63 -30 56
-21 -17 21 2 44 66 82 44 25 123 129 123 161 0 7 16 23 35 34 19 12 35 23 35
26 0 3 -20 -7 -45 -22 -53 -30 -113 -53 -172 -64 -50 -10 -55 -2 -15 21 41 25
175 157 209 208 41 61 78 136 104 210 25 73 19 89 -12 28 -46 -91 -119 -178
-189 -228 -26 -17 -17 -5 30 46 36 38 82 101 103 141 25 47 49 79 71 92 57 36
120 112 181 221 98 176 195 341 219 374 30 40 39 56 31 56 -3 0 -28 -35 -56
-77z m-479 -670 c0 -16 -9 -39 -20 -53 l-20 -25 0 41 c0 37 13 64 32 64 4 0 8
-12 8 -27z m43 -88 c-27 -55 -51 -76 -37 -32 6 21 52 87 60 87 2 0 -8 -25 -23
-55z m-172 -89 c-26 -28 -119 -82 -154 -90 l-28 -7 6 48 c4 26 14 53 22 58 8
6 49 35 91 66 l77 56 3 -55 c2 -44 -1 -59 -17 -76z m119 26 c0 -10 -7 -27 -15
-38 -13 -18 -14 -18 -9 6 9 38 13 50 19 50 3 0 5 -8 5 -18z m-40 -46 c0 -32
-39 -96 -59 -96 -17 0 3 77 27 103 14 15 27 27 29 27 2 0 3 -15 3 -34z m-268
-23 c-2 -16 -9 -32 -16 -38 -6 -5 -12 -27 -12 -48 -2 -44 -53 -150 -94 -195
-26 -29 -31 -31 -59 -21 l-31 11 34 47 c38 52 75 121 87 163 13 47 1 32 -30
-36 -38 -84 -86 -153 -112 -161 -33 -11 -34 2 -1 39 38 44 78 112 88 149 4 20
26 41 73 72 36 25 69 45 72 45 3 0 4 -12 1 -27z m192 -58 c-6 -41 -13 -52 -62
-90 -31 -24 -75 -50 -99 -57 -24 -7 -43 -16 -43 -21 0 -5 8 -6 18 -3 9 2 45 8
80 11 71 8 74 3 43 -58 -10 -20 -15 -39 -11 -42 15 -9 76 52 95 95 15 34 35
53 35 35 0 -18 -73 -117 -97 -131 -15 -9 -47 -30 -71 -46 l-42 -29 -33 19
c-17 11 -53 27 -79 37 -27 10 -48 20 -48 23 0 2 18 31 40 64 22 33 49 86 61
119 18 48 27 60 48 65 45 8 125 37 145 50 26 18 29 14 20 -41z m-364 -51 c-6
-14 -15 -35 -21 -46 -14 -26 -89 -108 -99 -108 -4 0 -1 26 7 58 13 54 19 61
66 90 29 18 53 32 54 32 1 0 -2 -12 -7 -26z m-133 -107 c-9 -40 -12 -43 -38
-39 -16 2 -29 8 -29 12 0 7 66 70 74 70 2 0 -1 -19 -7 -43z m513 18 c0 -14
-30 -62 -49 -79 -26 -24 -26 -20 -1 38 12 25 27 46 35 46 8 0 15 -2 15 -5z"/>
<path d="M8036 1525 c-9 -26 -7 -32 5 -12 6 10 9 21 6 23 -2 3 -7 -2 -11 -11z"/>
<path d="M3750 1521 c0 -6 4 -13 10 -16 6 -3 7 1 4 9 -7 18 -14 21 -14 7z"/>
<path d="M6550 1505 c0 -2 23 -16 50 -30 63 -32 66 -25 4 9 -48 27 -54 29 -54
21z"/>
<path d="M2696 1450 c14 -55 187 -420 199 -420 7 0 -9 38 -49 114 -31 59 -65
132 -140 296 -9 21 -13 25 -10 10z"/>
<path d="M6284 1454 c-18 -14 -18 -15 4 -4 12 6 22 13 22 15 0 8 -5 6 -26 -11z"/>
<path d="M7726 1453 c-6 -14 -5 -15 5 -6 7 7 10 15 7 18 -3 3 -9 -2 -12 -12z"/>
<path d="M7992 1425 c-12 -25 -20 -45 -17 -45 7 0 47 81 43 86 -3 2 -14 -17
-26 -41z"/>
<path d="M3135 1413 c15 -24 30 -43 32 -43 7 0 -31 61 -46 73 -8 7 -2 -7 14
-30z"/>
<path d="M6210 1415 c-25 -13 -41 -24 -37 -25 11 0 87 39 87 45 0 7 0 7 -50
-20z"/>
<path d="M7979 1338 c-24 -29 -36 -47 -26 -39 20 16 81 91 74 91 -3 0 -25 -24
-48 -52z"/>
<path d="M6100 1365 c-14 -8 -20 -14 -15 -14 6 0 21 6 35 14 14 8 21 14 15 14
-5 0 -21 -6 -35 -14z"/>
<path d="M6468 1353 c7 -3 16 -2 19 1 4 3 -2 6 -13 5 -11 0 -14 -3 -6 -6z"/>
<path d="M4025 1318 c4 -13 11 -27 16 -33 5 -5 4 5 -2 23 -12 36 -24 44 -14
10z"/>
<path d="M6388 1333 c7 -3 16 -2 19 1 4 3 -2 6 -13 5 -11 0 -14 -3 -6 -6z"/>
<path d="M6258 1323 c12 -2 30 -2 40 0 9 3 -1 5 -23 4 -22 0 -30 -2 -17 -4z"/>
<path d="M1374 1199 c-193 -240 -322 -380 -668 -724 -193 -192 -310 -313 -261
-268 124 114 508 492 586 579 170 187 221 246 309 353 102 124 145 181 136
181 -3 0 -49 -54 -102 -121z"/>
<path d="M3980 1263 c122 -218 326 -414 430 -412 18 0 9 6 -29 21 -38 15 -73
39 -117 85 -75 75 -109 123 -170 236 -47 89 -61 99 -18 14 38 -75 111 -187
147 -224 17 -18 26 -33 21 -33 -28 0 -190 198 -250 306 -20 35 -38 64 -41 64
-3 0 10 -26 27 -57z"/>
<path d="M6158 1313 c12 -2 32 -2 45 0 12 2 2 4 -23 4 -25 0 -35 -2 -22 -4z"/>
<path d="M5905 1294 c-38 -13 -39 -13 -6 -9 18 3 49 5 69 5 39 0 40 4 2 13
-14 3 -43 -1 -65 -9z"/>
<path d="M6048 1303 c12 -2 30 -2 40 0 9 3 -1 5 -23 4 -22 0 -30 -2 -17 -4z"/>
<path d="M3240 1260 c12 -16 24 -30 26 -30 3 0 -4 14 -16 30 -12 17 -24 30
-26 30 -3 0 4 -13 16 -30z"/>
<path d="M7904 1275 c-4 -9 -27 -27 -53 -40 -25 -13 -40 -24 -32 -25 11 0 11
-3 0 -17 -13 -15 -12 -15 6 -5 44 24 109 89 97 96 -7 4 -15 1 -18 -9z"/>
<path d="M2321 1235 c0 -22 8 -101 19 -175 57 -393 95 -468 305 -595 53 -32
98 -62 101 -67 3 -4 10 -8 16 -8 5 0 -15 27 -46 61 -77 83 -182 244 -254 391
-64 131 -121 289 -123 341 -1 18 -5 46 -9 62 -7 29 -8 29 -9 -10z m129 -403
c59 -116 188 -323 209 -336 6 -4 11 -12 11 -17 0 -14 -85 36 -143 84 -58 48
-87 103 -120 227 -33 124 -41 174 -28 165 6 -3 38 -59 71 -123z"/>
<path d="M3270 1216 c0 -2 8 -10 18 -17 15 -13 16 -12 3 4 -13 16 -21 21 -21
13z"/>
<path d="M3300 1176 c0 -2 8 -10 18 -17 15 -13 16 -12 3 4 -13 16 -21 21 -21
13z"/>
<path d="M2570 1145 c0 -5 5 -17 10 -25 5 -8 10 -10 10 -5 0 6 -5 17 -10 25
-5 8 -10 11 -10 5z"/>
<path d="M2631 1135 c0 -5 13 -35 29 -65 16 -30 29 -50 29 -45 0 6 -13 35 -29
65 -16 30 -29 51 -29 45z"/>
<path d="M3356 1103 c63 -85 256 -321 299 -368 42 -45 42 -43 -7 15 -108 131
-185 227 -246 308 -35 45 -65 82 -69 82 -3 0 7 -17 23 -37z"/>
<path d="M2590 1091 c0 -6 4 -13 10 -16 6 -3 7 1 4 9 -7 18 -14 21 -14 7z"/>
<path d="M4001 1095 c0 -5 8 -26 19 -45 11 -19 19 -30 19 -25 0 6 -8 26 -19
45 -11 19 -19 31 -19 25z"/>
<path d="M5354 1068 c-16 -12 -49 -40 -74 -61 -54 -47 -153 -97 -195 -97 -25
-1 -27 -2 -13 -11 12 -7 28 -5 54 6 58 24 59 19 7 -42 -82 -98 -82 -102 2 -13
104 110 139 143 203 192 47 37 59 48 48 48 -2 0 -16 -10 -32 -22z"/>
<path d="M2621 1035 c0 -5 6 -21 14 -35 8 -14 14 -20 14 -15 0 6 -6 21 -14 35
-8 14 -14 21 -14 15z"/>
<path d="M2904 1006 c40 -110 467 -746 543 -807 9 -8 -6 15 -33 51 -28 36 -71
101 -96 145 -47 82 -151 302 -163 343 -4 13 -9 21 -12 18 -8 -8 22 -86 78
-200 27 -55 47 -101 45 -103 -7 -7 -209 303 -285 436 -70 123 -91 154 -77 117z"/>
<path d="M3062 990 c0 -8 8 -37 18 -65 10 -27 18 -43 18 -35 0 8 -8 38 -18 65
-10 28 -18 43 -18 35z"/>
<path d="M2721 960 c14 -31 19 -36 19 -24 0 6 -7 19 -16 30 -14 18 -14 18 -3
-6z"/>
<path d="M2680 911 c0 -6 4 -13 10 -16 6 -3 7 1 4 9 -7 18 -14 21 -14 7z"/>
<path d="M3885 901 c60 -69 258 -227 333 -265 56 -29 35 -10 -35 30 -36 22
-123 88 -192 148 -69 60 -117 99 -106 87z"/>
<path d="M2750 907 c0 -9 61 -107 67 -107 2 0 -6 17 -18 38 -34 56 -49 77 -49
69z"/>
<path d="M2710 860 c6 -11 13 -20 16 -20 2 0 0 9 -6 20 -6 11 -13 20 -16 20
-2 0 0 -9 6 -20z"/>
<path d="M1700 851 c11 -21 56 -38 187 -71 66 -16 330 -100 403 -127 10 -4 12
-2 5 5 -14 14 -221 83 -404 133 -88 24 -163 51 -173 61 -23 23 -31 23 -18 -1z"/>
<path d="M7135 783 c-27 -32 -39 -49 -26 -38 24 21 86 95 79 95 -2 0 -26 -26
-53 -57z"/>
<path d="M2740 810 c6 -11 13 -20 16 -20 2 0 0 9 -6 20 -6 11 -13 20 -16 20
-2 0 0 -9 6 -20z"/>
<path d="M3120 805 c0 -5 5 -17 10 -25 5 -8 10 -10 10 -5 0 6 -5 17 -10 25 -5
8 -10 11 -10 5z"/>
<path d="M6981 619 c-58 -55 -98 -97 -89 -94 12 5 18 -5 28 -47 13 -52 39
-121 40 -104 0 5 -10 44 -22 87 l-21 79 84 86 c100 101 93 94 88 94 -2 -1 -51
-46 -108 -101z"/>
<path d="M2820 686 c0 -2 8 -10 18 -17 15 -13 16 -12 3 4 -13 16 -21 21 -21
13z"/>
<path d="M2870 620 c11 -16 26 -33 32 -36 7 -4 -1 9 -16 29 -34 44 -46 50 -16
7z"/>
<path d="M3730 647 c0 -1 35 -36 78 -77 l77 -75 -75 78 c-69 71 -80 82 -80 74z"/>
<path d="M2985 560 c10 -11 20 -20 23 -20 3 0 -3 9 -13 20 -10 11 -20 20 -23
20 -3 0 3 -9 13 -20z"/>
<path d="M2939 532 c17 -22 38 -45 48 -53 10 -8 -2 10 -26 39 -51 60 -68 71
-22 14z"/>
<path d="M4692 525 c0 -16 2 -22 5 -12 2 9 2 23 0 30 -3 6 -5 -1 -5 -18z"/>
<path d="M2563 483 c48 -49 127 -101 127 -84 0 5 -19 20 -42 34 -24 14 -59 41
-78 61 -19 19 -39 36 -45 36 -5 0 12 -21 38 -47z"/>
<path d="M3010 527 c0 -2 15 -16 33 -33 l32 -29 -29 33 c-28 30 -36 37 -36 29z"/>
<path d="M6849 503 c-13 -16 -12 -17 4 -4 9 7 17 15 17 17 0 8 -8 3 -21 -13z"/>
<path d="M4706 455 c3 -22 12 -51 19 -65 19 -34 18 -25 -5 45 -17 48 -19 52
-14 20z"/>
<path d="M7001 474 c0 -11 3 -14 6 -6 3 7 2 16 -1 19 -3 4 -6 -2 -5 -13z"/>
<path d="M3045 410 c28 -31 52 -54 55 -53 2 2 -20 27 -50 56 l-54 52 49 -55z"/>
<path d="M3095 430 c17 -19 31 -37 33 -39 1 -2 4 -2 7 1 3 2 -12 20 -33 39
l-37 34 30 -35z"/>
<path d="M7011 424 c0 -11 3 -14 6 -6 3 7 2 16 -1 19 -3 4 -6 -2 -5 -13z"/>
<path d="M3225 290 c49 -50 92 -90 95 -90 2 0 -36 40 -85 90 -49 50 -92 90
-95 90 -2 0 36 -40 85 -90z"/>
<path d="M4740 357 c0 -14 41 -88 86 -157 44 -66 44 -66 34 -119 -5 -30 -10
-60 -10 -67 0 -19 34 -18 50 1 11 13 14 13 27 -2 14 -17 14 -17 8 2 -29 88
-42 114 -81 164 -24 31 -60 86 -79 121 -19 36 -35 61 -35 57z"/>
<path d="M7041 315 c1 -19 18 -51 18 -35 0 8 -4 22 -9 30 -5 8 -9 11 -9 5z"/>
<path d="M6001 257 c-25 -28 -32 -41 -17 -27 26 23 71 80 64 80 -2 0 -23 -24
-47 -53z"/>
<path d="M206 142 l-120 -127 103 100 c86 84 152 157 139 154 -2 0 -57 -57
-122 -127z"/>
<path d="M6075 240 c4 -18 13 -47 21 -64 11 -27 13 -28 14 -8 0 25 9 28 30 10
12 -11 12 -10 1 5 -7 9 -22 17 -32 17 -14 0 -19 7 -19 29 0 17 -5 33 -11 37
-8 4 -9 -3 -4 -26z"/>
<path d="M6282 200 c62 -33 80 -65 76 -137 -2 -34 0 -59 5 -54 12 12 11 105
-1 128 -17 30 -80 83 -100 83 -10 -1 -2 -9 20 -20z"/>
<path d="M704 102 c-55 -53 -87 -86 -70 -72 43 36 182 170 176 169 -3 0 -50
-43 -106 -97z"/>
<path d="M3340 176 c0 -2 8 -10 18 -17 15 -13 16 -12 3 4 -13 16 -21 21 -21
13z"/>
<path d="M3467 168 c6 -7 36 -48 67 -91 31 -42 59 -77 63 -77 3 0 -6 15 -19
33 -13 17 -44 58 -67 90 -24 31 -46 57 -48 57 -3 0 -1 -6 4 -12z"/>
<path d="M7050 176 c0 -2 8 -10 18 -17 15 -13 16 -12 3 4 -13 16 -21 21 -21
13z"/>
<path d="M6181 142 c13 -16 25 -28 27 -27 7 6 -11 32 -30 44 -20 12 -20 11 3
-17z"/>
<path d="M6625 130 c21 -22 41 -40 44 -40 3 0 -13 18 -34 40 -21 22 -41 40
-44 40 -3 0 13 -18 34 -40z"/>
<path d="M1963 153 c15 -2 37 -2 50 0 12 2 0 4 -28 4 -27 0 -38 -2 -22 -4z"/>
<path d="M2177 153 c18 -2 50 -2 70 0 21 2 7 4 -32 4 -38 0 -55 -2 -38 -4z"/>
<path d="M2785 153 c15 -16 216 -144 234 -150 9 -3 -24 22 -74 54 -103 68
-175 111 -160 96z"/>
<path d="M1873 143 c9 -2 23 -2 30 0 6 3 -1 5 -18 5 -16 0 -22 -2 -12 -5z"/>
<path d="M2343 143 c9 -2 23 -2 30 0 6 3 -1 5 -18 5 -16 0 -22 -2 -12 -5z"/>
<path d="M1795 130 c-25 -11 1 -11 35 0 20 6 21 8 5 8 -11 0 -29 -3 -40 -8z"/>
<path d="M2403 133 c9 -2 23 -2 30 0 6 3 -1 5 -18 5 -16 0 -22 -2 -12 -5z"/>
<path d="M3400 115 c13 -14 26 -25 28 -25 3 0 -5 11 -18 25 -13 14 -26 25 -28
25 -3 0 5 -11 18 -25z"/>
<path d="M2458 123 c6 -2 18 -2 25 0 6 3 1 5 -13 5 -14 0 -19 -2 -12 -5z"/>
<path d="M4776 113 c-6 -14 -5 -15 5 -6 7 7 10 15 7 18 -3 3 -9 -2 -12 -12z"/>
<path d="M6124 100 c2 -14 -1 -42 -8 -62 -8 -21 -10 -35 -5 -32 5 2 14 22 20
43 9 29 9 43 0 57 -11 17 -12 17 -7 -6z"/>
<path d="M7128 114 c-7 -6 107 -114 119 -114 5 0 -8 14 -27 30 -19 15 -47 42
-61 59 -14 17 -28 28 -31 25z"/>
<path d="M2605 80 c3 -5 14 -10 23 -10 15 0 15 2 2 10 -20 13 -33 13 -25 0z"/>
<path d="M4756 73 c-6 -14 -5 -15 5 -6 7 7 10 15 7 18 -3 3 -9 -2 -12 -12z"/>
<path d="M3485 40 c21 -22 41 -40 44 -40 3 0 -13 18 -34 40 -21 22 -41 40 -44
40 -3 0 13 -18 34 -40z"/>
<path d="M6221 60 c0 -14 28 -72 29 -59 0 4 -7 22 -15 40 -8 19 -14 27 -14 19z"/>
<path d="M2671 56 c2 -2 15 -9 29 -15 24 -11 24 -11 6 3 -16 13 -49 24 -35 12z"/>
<path d="M1490 30 c-8 -5 -10 -10 -5 -10 6 0 17 5 25 10 8 5 11 10 5 10 -5 0
-17 -5 -25 -10z"/>
<path d="M4726 13 c-6 -14 -5 -15 5 -6 7 7 10 15 7 18 -3 3 -9 -2 -12 -12z"/>
<path d="M1440 10 c-8 -5 -10 -10 -5 -10 6 0 17 5 25 10 8 5 11 10 5 10 -5 0
-17 -5 -25 -10z"/>
</g>
</svg>
