<?xml version="1.0" standalone="no"?>
<!DOCTYPE svg PUBLIC "-//W3C//DTD SVG 20010904//EN"
 "http://www.w3.org/TR/2001/REC-SVG-20010904/DTD/svg10.dtd">
<svg version="1.0" xmlns="http://www.w3.org/2000/svg"
 width="4026.000000pt" height="4167.000000pt" viewBox="0 0 4026.000000 4167.000000"
 preserveAspectRatio="xMidYMid meet">
<metadata>
Created by potrace 1.16, written by Peter Selinger 2001-2019
</metadata>
<g transform="translate(0.000000,4167.000000) scale(0.100000,-0.100000)"
fill="#000000" stroke="none">
<path d="M15835 39379 c-507 -45 -1019 -251 -1425 -576 -194 -154 -411 -394
-556 -614 -457 -693 -558 -1589 -269 -2375 88 -240 261 -542 432 -754 291
-362 725 -669 1170 -826 l83 -29 0 -3953 0 -3953 -4712 -8347 c-2591 -4591
-4740 -8400 -4775 -8464 -126 -232 -246 -512 -338 -793 -395 -1198 -308 -2491
244 -3631 629 -1298 1737 -2229 3100 -2605 252 -69 527 -120 851 -156 146 -16
730 -18 10205 -21 6972 -2 10121 0 10281 8 403 18 706 62 1078 156 534 136
1051 362 1511 662 589 383 1094 888 1488 1488 924 1406 1117 3108 527 4664
-66 173 -158 380 -242 540 -38 74 -2205 3783 -4814 8241 l-4744 8106 0 4045 0
4045 63 23 c159 57 416 196 581 313 263 186 493 426 681 707 98 147 232 418
289 587 232 685 185 1421 -133 2053 -397 789 -1120 1308 -2021 1448 -96 15
-465 16 -4280 18 -2319 1 -4219 -3 -4275 -7z m8333 -1779 c426 -70 742 -438
742 -866 0 -395 -264 -734 -660 -846 -72 -21 -102 -22 -685 -28 -686 -7 -659
-4 -835 -86 -410 -192 -604 -652 -459 -1089 44 -131 108 -234 214 -340 155
-155 326 -235 551 -258 l114 -11 0 -4136 c0 -4504 -4 -4183 55 -4346 17 -46
749 -1307 2129 -3665 l2104 -3594 -102 -2 c-1417 -31 -2475 -138 -3596 -363
-1144 -230 -2067 -529 -3055 -990 -1484 -693 -2424 -1047 -3419 -1290 -1614
-394 -3181 -384 -5041 30 -124 27 -680 167 -745 187 -25 8 19 87 2732 4893
1517 2687 2769 4915 2782 4952 60 161 56 -148 56 4278 l0 4047 103 7 c178 11
340 63 464 147 71 48 189 166 235 233 53 77 111 203 134 291 29 107 26 343 -4
448 -89 311 -310 534 -624 629 -71 21 -89 22 -748 28 l-675 6 -89 27 c-166 51
-277 117 -390 230 -411 412 -310 1099 205 1381 73 40 193 82 271 95 78 13
8156 14 8236 1z m4182 -21066 l146 -7 2159 -3689 c1188 -2029 2195 -3755 2237
-3836 265 -503 390 -1008 390 -1567 -1 -536 -120 -1026 -368 -1516 -379 -749
-1000 -1318 -1770 -1623 -255 -100 -539 -172 -844 -213 -129 -17 -559 -18
-10195 -21 -7219 -2 -10102 0 -10210 8 -622 45 -1183 254 -1663 617 -676 512
-1111 1266 -1228 2128 -24 177 -24 549 0 730 47 363 152 709 308 1020 42 83
3230 5740 3242 5752 1 1 110 -29 242 -66 1266 -365 2412 -566 3543 -622 309
-15 1135 -6 1406 15 986 79 1834 246 2821 557 794 249 1685 611 2859 1159 503
235 892 388 1347 529 1274 396 2604 599 4303 655 146 5 1105 -3 1275 -10z"/>
<path d="M19960 26755 c-333 -69 -586 -307 -682 -642 -30 -105 -33 -341 -4
-448 69 -262 257 -485 503 -597 133 -60 319 -87 468 -68 366 46 662 305 756
660 32 118 32 328 0 445 -89 334 -349 580 -684 649 -92 19 -266 19 -357 1z"/>
<path d="M17835 23250 c-609 -62 -1168 -290 -1647 -672 -132 -105 -361 -334
-466 -466 -299 -375 -510 -812 -611 -1267 -65 -295 -88 -689 -57 -985 28 -267
88 -524 182 -780 91 -246 283 -586 465 -820 93 -121 325 -358 452 -463 781
-647 1820 -871 2798 -603 383 105 763 298 1095 556 140 109 395 364 504 504
258 332 451 712 556 1095 196 717 130 1480 -186 2147 -212 448 -535 843 -935
1144 -421 316 -883 509 -1420 592 -149 23 -576 33 -730 18z m510 -1786 c292
-50 575 -209 766 -429 395 -456 435 -1092 102 -1594 -66 -99 -228 -266 -325
-334 -147 -104 -323 -181 -499 -218 -138 -30 -373 -32 -498 -6 -368 79 -661
274 -856 572 -157 239 -223 477 -212 770 10 268 85 488 244 715 62 88 221 243
313 307 155 105 350 186 525 217 110 19 329 20 440 0z"/>
<path d="M22803 22614 c-214 -47 -422 -186 -543 -364 -180 -265 -205 -608 -65
-897 250 -515 912 -658 1367 -295 126 100 241 277 288 442 31 107 38 308 16
421 -70 346 -345 623 -688 693 -94 19 -288 20 -375 0z"/>
<path d="M11291 8499 c-266 -52 -501 -231 -623 -474 -58 -115 -80 -210 -85
-365 -4 -105 -1 -164 10 -215 74 -349 343 -618 689 -689 70 -15 872 -16 8828
-16 7906 0 8758 2 8828 16 168 34 311 113 442 244 174 174 260 381 260 623 0
418 -276 770 -683 867 -81 20 -152 20 -8852 19 -4922 -1 -8789 -5 -8814 -10z"/>
</g>
</svg>
