<?xml version="1.0" encoding="UTF-8"?>
<svg version="1.1" xmlns="http://www.w3.org/2000/svg" width="7050" height="1568">
<path d="M0 0 C8.30824857 3.44729981 12.38931973 15.08933735 16.5 22.5625 C21.20114567 31.034187 25.97151378 39.45625898 30.875 47.8125 C35.97597092 56.50844775 41.00994174 65.24014079 46 74 C51.53953103 83.72142984 57.13375187 93.40895304 62.78344727 103.06689453 C68.93766742 113.59084625 75.02369996 124.15380137 81.10888672 134.71777344 C84.23680148 140.14659942 87.36858448 145.57319281 90.5 151 C91.75001879 153.16665583 93.00001878 155.3333225 94.25 157.5 C95.178125 159.10875 95.178125 159.10875 96.125 160.75 C146.74999999 248.49999998 146.74999999 248.49999998 148.62524414 251.75048828 C149.87435518 253.91557071 151.12354129 256.08060982 152.37280273 258.24560547 C155.51202309 263.68615706 158.64990563 269.12747216 161.78515625 274.5703125 C167.80747329 285.02206199 173.84669337 295.46299548 179.9375 305.875 C185.35921178 315.14499777 190.70204915 324.45831752 196.01922607 333.78845215 C201.22045129 342.9128284 206.48027878 352.00132774 211.78344727 361.06689453 C217.93766742 371.59084625 224.02369996 382.15380137 230.10888672 392.71777344 C233.23680148 398.14659942 236.36858448 403.57319281 239.5 409 C240.75001879 411.16665583 242.00001878 413.3333225 243.25 415.5 C244.178125 417.10875 244.178125 417.10875 245.125 418.75 C340.75 584.5 340.75 584.5 342.62524414 587.75048828 C343.87435518 589.91557071 345.12354129 592.08060982 346.37280273 594.24560547 C349.51202309 599.68615706 352.64990563 605.12747216 355.78515625 610.5703125 C361.80747329 621.02206199 367.84669337 631.46299548 373.9375 641.875 C379.35921178 651.14499777 384.70204915 660.45831752 390.01922607 669.78845215 C395.22045129 678.9128284 400.48027878 688.00132774 405.78344727 697.06689453 C410.65404345 705.39580019 415.48698908 713.74596593 420.2980957 722.109375 C423.2251748 727.19688995 426.15859469 732.28017711 429.12464905 737.34506226 C430.16582819 739.12362301 431.20448999 740.90363032 432.24243164 742.68408203 C433.5452717 744.91711472 434.85278158 747.14743186 436.16577148 749.37451172 C444.41295722 763.54376486 444.41295722 763.54376486 443.625 768.23046875 C441.15129657 770.92418907 438.16157538 772.55541697 435 774.3125 C433.88806274 774.94828979 433.88806274 774.94828979 432.75366211 775.59692383 C431.08926123 776.54822649 429.42235328 777.4951516 427.75341797 778.43847656 C423.76484195 780.70048509 419.79877483 783.00095316 415.83007812 785.29760742 C412.49434893 787.22691702 409.15581003 789.15127714 405.81640625 791.07421875 C399.20884965 794.87919818 392.60412307 798.6890651 386 802.5 C383.83334689 803.7500235 381.66668021 805.00002347 379.5 806.25 C377.89125 807.178125 377.89125 807.178125 376.25 808.125 C288.50000001 858.74999999 288.50000001 858.74999999 285.24951172 860.62524414 C283.08442929 861.87435518 280.91939018 863.12354129 278.75439453 864.37280273 C273.31384294 867.51202309 267.87252784 870.64990563 262.4296875 873.78515625 C251.97793801 879.80747329 241.53700452 885.84669337 231.125 891.9375 C221.85436069 897.35958699 212.54063301 902.70324012 203.20953369 908.02023315 C195.11292071 912.63484077 187.04216251 917.29093425 179 922 C170.4048271 927.0318979 161.77687778 932.00389124 153.125 936.9375 C140.80258417 943.96441776 128.50861547 951.03942537 116.2265625 958.13671875 C112.96475993 960.0203505 109.70138156 961.90122321 106.4375 963.78125 C94.95096882 970.39876919 83.4800328 977.04149659 72.03637695 983.73291016 C65.81687642 987.36660375 59.58078619 990.97005177 53.3347168 994.55786133 C51.71496948 995.48828247 51.71496948 995.48828247 50.0625 996.4375 C48.99491455 997.05069092 47.9273291 997.66388184 46.82739258 998.2956543 C41.17972532 1001.55102807 35.55910349 1004.84543304 29.9765625 1008.2109375 C29.40358932 1008.55627029 28.83061615 1008.90160309 28.24028015 1009.25740051 C25.49148516 1010.91622576 22.74676057 1012.58142174 20.00610352 1014.25366211 C18.53935181 1015.14323608 18.53935181 1015.14323608 17.04296875 1016.05078125 C16.18727295 1016.57325439 15.33157715 1017.09572754 14.44995117 1017.6340332 C8.27582542 1021.07640825 3.00547211 1022.10796383 -4 1021 C-8.94153611 1019.14169561 -13.44671672 1016.64057452 -18 1014 C-18.61520508 1013.64647461 -19.23041016 1013.29294922 -19.86425781 1012.92871094 C-23.2847063 1010.95476465 -26.68343031 1008.94628195 -30.07421875 1006.921875 C-35.86817777 1003.46974611 -41.71637703 1000.11276841 -47.5625 996.75 C-56.05673852 991.8588554 -64.5377097 986.94621394 -73 982 C-81.3174901 977.13892419 -89.65201634 972.30851791 -98 967.5 C-106.34798459 962.69148156 -114.68243184 957.86094317 -123 953 C-134.54722486 946.25286886 -146.12902119 939.5666063 -157.71777344 932.89111328 C-163.14659942 929.76319852 -168.57319281 926.63141552 -174 923.5 C-176.16665583 922.24998121 -178.3333225 920.99998122 -180.5 919.75 C-193.5 912.25 -206.5 904.75 -219.5 897.25 C-220.57266113 896.63116943 -221.64532227 896.01233887 -222.75048828 895.37475586 C-224.91557071 894.12564482 -227.08060982 892.87645871 -229.24560547 891.62719727 C-234.68615706 888.48797691 -240.12747216 885.35009437 -245.5703125 882.21484375 C-256.02206199 876.19252671 -266.46299548 870.15330663 -276.875 864.0625 C-286.14563931 858.64041301 -295.45936699 853.29675988 -304.79046631 847.97976685 C-313.86778636 842.80621213 -322.90571533 837.56857846 -331.921875 832.2890625 C-339.5857377 827.80833854 -347.28678835 823.39493248 -355 819 C-364.67054233 813.48979458 -374.30548938 807.92264384 -383.90869141 802.2956543 C-391.09526555 798.09186018 -398.32105289 793.9597943 -405.55889893 789.84527588 C-414.30717895 784.87032558 -423.03129413 779.86430841 -431.625 774.625 C-432.72593994 773.95561401 -432.72593994 773.95561401 -433.84912109 773.27270508 C-436.46201618 771.66298076 -438.8219399 770.1780601 -441 768 C-441.76849588 762.58091566 -439.74635224 759.17562867 -436.9375 754.75 C-436.01129287 753.23412736 -435.08693314 751.71712497 -434.1640625 750.19921875 C-433.65649414 749.37083496 -433.14892578 748.54245117 -432.62597656 747.68896484 C-429.60601466 742.69469152 -426.71835765 737.62370826 -423.8125 732.5625 C-422.5171725 730.31366071 -421.22159629 728.06496465 -419.92578125 725.81640625 C-418.9505249 724.12281982 -418.9505249 724.12281982 -417.95556641 722.39501953 C-414.80667946 716.9283002 -411.65316736 711.46425113 -408.5 706 C-407.2499765 703.83334689 -405.99997653 701.66668021 -404.75 699.5 C-372.25 643.16666667 -339.75 586.83333333 -307.25 530.5 C-306.63116943 529.42733887 -306.01233887 528.35467773 -305.37475586 527.24951172 C-304.12564482 525.08442929 -302.87645871 522.91939018 -301.62719727 520.75439453 C-298.48797691 515.31384294 -295.35009437 509.87252784 -292.21484375 504.4296875 C-286.19252671 493.97793801 -280.15330663 483.53700452 -274.0625 473.125 C-268.64041301 463.85436069 -263.29675988 454.54063301 -257.97976685 445.20953369 C-252.80621213 436.13221364 -247.56857846 427.09428467 -242.2890625 418.078125 C-237.80833735 410.41426026 -233.39505776 402.71314165 -229 395 C-223.46014067 385.27875494 -217.86625068 375.59105132 -212.21655273 365.93310547 C-206.06233258 355.40915375 -199.97630004 344.84619863 -193.89111328 334.28222656 C-190.76319852 328.85340058 -187.63141552 323.42680719 -184.5 318 C-183.24998121 315.83334417 -181.99998122 313.6666775 -180.75 311.5 C-133.25 229.16666667 -85.75 146.83333333 -38.25 64.5 C-37.63092773 63.42685547 -37.01185547 62.35371094 -36.37402344 61.24804688 C-35.12757939 59.08771707 -33.88083598 56.92755997 -32.63378906 54.76757812 C-29.45186969 49.25535607 -26.27567286 43.73996208 -23.109375 38.21875 C-2.74668111 2.74668111 -2.74668111 2.74668111 0 0 Z " fill="#156830" transform="translate(903,0)"/>
<path d="M0 0 C2.08491114 -0.00302788 4.16982117 -0.00692053 6.25472927 -0.01159257 C11.92961931 -0.02179757 17.60444566 -0.01971016 23.27934074 -0.01541197 C29.419551 -0.01293133 35.55974645 -0.02197491 41.69995117 -0.02944946 C53.70268994 -0.04215687 65.70540101 -0.0440013 77.70814335 -0.0416492 C87.4583346 -0.03981206 97.20851929 -0.04158494 106.95870972 -0.04587364 C108.36253887 -0.04647605 109.76636803 -0.04707725 111.17019719 -0.04767724 C113.28582367 -0.04858453 115.40145015 -0.04949321 117.51707662 -0.0504096 C137.15824039 -0.05882648 156.7994017 -0.06318299 176.44056702 -0.05900288 C177.54901586 -0.05876831 177.54901586 -0.05876831 178.6798576 -0.05852901 C182.42479575 -0.05772329 186.16973388 -0.05687751 189.91467202 -0.05601571 C190.65836968 -0.05584462 191.40206734 -0.05567353 192.1683013 -0.05549726 C193.67222777 -0.0551506 195.17615423 -0.05480207 196.6800807 -0.05445167 C220.12584663 -0.04908431 243.57157504 -0.05705882 267.01733398 -0.07548523 C293.38270008 -0.09618216 319.74804294 -0.10693339 346.11341763 -0.10290974 C348.92138608 -0.1025144 351.72935454 -0.10215285 354.537323 -0.10181236 C355.22867876 -0.10172163 355.92003453 -0.1016309 356.63234047 -0.10153742 C367.07913235 -0.10037033 377.52590076 -0.10702734 387.97268677 -0.11762428 C399.83679799 -0.12964692 411.70085554 -0.13098855 423.56497204 -0.11883412 C429.62105865 -0.11291937 435.67704375 -0.11191764 441.73312378 -0.12383652 C447.26905343 -0.13460582 452.80479569 -0.13169997 458.34071624 -0.11757483 C460.35028251 -0.11490326 462.35986305 -0.1173705 464.3694154 -0.1253107 C467.08700781 -0.13530911 469.80393501 -0.12708807 472.52149963 -0.1140337 C473.70960354 -0.12499772 473.70960354 -0.12499772 474.92170954 -0.13618323 C480.17111117 -0.08339933 480.17111117 -0.08339933 482.66381902 1.61045063 C484.25603925 4.20256795 484.05215785 6.46222017 484.05171204 9.47894287 C484.05872635 10.7814801 484.06574066 12.08401733 484.07296753 13.42602539 C484.0655395 14.87278901 484.05780834 16.3195511 484.04980469 17.76631165 C484.05223222 19.28734079 484.05595116 20.80836834 484.06086731 22.32939148 C484.07028613 26.463733 484.06084221 30.59783819 484.04753518 34.73216128 C484.0362316 39.05580612 484.0403274 43.37943912 484.0422821 47.70309448 C484.04316552 54.96557991 484.03207554 62.22797208 484.01367188 69.49043274 C483.99251147 77.88888471 483.9889924 86.28719995 483.99523383 94.68567318 C484.00092767 102.76039781 483.99528108 110.83507426 483.98406029 118.90979195 C483.97941375 122.347905 483.9785407 125.78598859 483.98064613 129.22410393 C483.98252912 133.27310031 483.97442436 137.32195745 483.95858574 141.37092209 C483.95434122 142.857629 483.95349346 144.34435004 483.95627594 145.83106041 C483.95949598 147.85920212 483.94919421 149.88735192 483.93818665 151.91546631 C483.93613378 153.05090598 483.93408091 154.18634565 483.93196583 155.35619259 C483.68070233 158.22403452 483.26175138 159.8802131 481.67749023 162.26069641 C478.57342114 163.81273096 475.29015923 163.40082777 471.88325214 163.39377499 C471.06488879 163.39601801 470.24652544 163.39826104 469.4033632 163.40057203 C466.63138834 163.40694322 463.85946011 163.40614616 461.08747864 163.40545654 C459.09178922 163.40858807 457.09610045 163.41216235 455.10041255 163.41614395 C449.59272459 163.42587471 444.085047 163.42939778 438.57735169 163.43198693 C432.64588746 163.43587128 426.71443247 163.44550935 420.78297424 163.45454407 C410.49508168 163.46950534 400.20718953 163.48104478 389.91929054 163.49049187 C374.3421672 163.50489978 358.76506215 163.52766106 343.18795183 163.55215698 C336.93786349 163.56194867 330.68777473 163.57146926 324.43768597 163.58098698 C323.74320812 163.58204574 323.04873028 163.58310451 322.33320766 163.58419536 C305.79180266 163.60936168 289.25039429 163.63184804 272.70898438 163.65351868 C271.98501798 163.65446912 271.26105159 163.65541955 270.51514683 163.65639879 C253.63743929 163.67853378 236.75973076 163.69940609 219.88201904 163.71809387 C219.15697198 163.71889762 218.43192491 163.71970137 217.68490672 163.72052948 C214.02923311 163.72458001 210.37355949 163.72862161 206.71788587 163.73266274 C205.99544298 163.73346174 205.27300008 163.73426073 204.52866497 163.73508393 C203.07049234 163.73669625 201.6123197 163.73830707 200.15414707 163.73991639 C176.03951478 163.76657239 151.92489901 163.7999559 127.81028628 163.84069454 C124.4012667 163.84644423 120.99224699 163.8521029 117.58322716 163.85769844 C116.57686698 163.85935115 116.57686698 163.85935115 115.55017629 163.86103724 C104.10450186 163.8795946 92.65883216 163.8895563 81.21314599 163.89731241 C71.02957157 163.90471421 60.84602315 163.91925689 50.66246597 163.93937664 C44.78933603 163.95074692 38.91624801 163.9589035 33.04310608 163.9583683 C27.65948125 163.95793872 22.27595056 163.96671816 16.89234992 163.9826181 C14.95137934 163.98675223 13.0103981 163.98758272 11.06942532 163.984654 C-14.61424387 163.95067716 -36.29807036 167.78670196 -56.32250977 185.26069641 C-56.93739258 185.7801886 -57.55227539 186.29968079 -58.18579102 186.83491516 C-72.23042313 199.65265987 -80.72818561 220.43960803 -81.60375977 239.09663391 C-82.20460674 261.0662791 -76.02745448 280.33740316 -61.78735352 297.27632141 C-48.09243681 311.71750015 -29.21571413 321.74371306 -9.12069511 322.53938484 C-2.64727216 322.69395594 3.82595429 322.674845 10.30078125 322.66133118 C12.78925912 322.66708092 15.27773421 322.67416664 17.76620483 322.68247986 C23.10800228 322.69754698 28.44969578 322.70373748 33.79150581 322.70195198 C41.54510729 322.69955234 49.29858963 322.71565558 57.05215978 322.73640453 C69.6755522 322.76987119 82.29893389 322.79156647 94.92236328 322.80439758 C95.67625507 322.80516707 96.43014685 322.80593656 97.20688384 322.80672937 C100.25971351 322.80983029 103.31254319 322.81291312 106.3653729 322.81596941 C114.73593491 322.82447397 123.10649308 322.83538394 131.47705078 322.84736633 C132.22546195 322.84843435 132.97387312 322.84950237 133.74496341 322.85060275 C146.30674449 322.86881251 158.8685006 322.89487424 171.43025726 322.92549747 C179.14450057 322.9438666 186.85868735 322.9549556 194.57295286 322.95601939 C200.51636135 322.95727251 206.45972638 322.9684811 212.40311813 322.98295975 C214.81181297 322.98717733 217.2205165 322.98814253 219.62921333 322.98528481 C289.8388617 322.91165762 356.01143962 340.48112203 407.67749023 390.26069641 C408.3382959 390.89427063 408.99910156 391.52784485 409.67993164 392.18061829 C419.15436819 401.3116686 428.03792814 410.5329699 435.67749023 421.26069641 C436.20375 421.99143372 436.73000977 422.72217102 437.2722168 423.47505188 C467.41432426 465.73480773 483.88635024 515.04556183 483.92749023 566.94819641 C483.92850235 568.10295975 483.92850235 568.10295975 483.92953491 569.28105164 C483.88366133 602.42535698 476.98678256 634.87039872 463.67749023 665.26069641 C463.35941406 665.98724426 463.04133789 666.71379211 462.71362305 667.46235657 C447.05961885 702.74704694 422.3248737 735.6241523 391.67749023 759.26069641 C391.13141113 759.68318665 390.58533203 760.10567688 390.02270508 760.54096985 C343.83052103 796.03751768 290.11736256 811.43066937 232.31138611 811.40113831 C230.26933965 811.40372653 228.2272937 811.40674096 226.18524843 811.41014171 C220.60555396 811.41815986 215.02587239 811.41999835 209.44617283 811.42073917 C203.41695193 811.42259858 197.38773758 811.43014982 191.35852051 811.43687439 C177.51102148 811.45112145 163.66352429 811.4569768 149.81601973 811.46156633 C142.97049099 811.46390687 136.12496308 811.4675098 129.27943499 811.47126171 C105.83597685 811.48408527 82.39251915 811.49481022 58.94905758 811.49826431 C57.48008501 811.49848594 56.01111243 811.49870773 54.54213986 811.49892966 C53.06971697 811.4991503 51.59729408 811.49937078 50.12487119 811.49959111 C47.17113809 811.50003366 44.21740498 811.50048077 41.26367188 811.50093079 C40.53132863 811.50104018 39.79898539 811.50114957 39.04444992 811.50126227 C15.26155544 811.50489847 -8.52130866 811.5208458 -32.3041915 811.54412115 C-57.46553103 811.56870052 -82.62685319 811.58243605 -107.78820509 811.58363223 C-110.54798123 811.58380368 -113.30775736 811.58401911 -116.06753349 811.58426666 C-116.74703856 811.58432243 -117.42654363 811.5843782 -118.12663976 811.58443566 C-129.06903273 811.58558705 -140.01139449 811.59661544 -150.95377691 811.61115372 C-161.93915858 811.62549754 -172.92450542 811.62851426 -183.90989471 811.62071374 C-189.86290912 811.61679503 -195.81581822 811.61779655 -201.76881981 811.63177109 C-207.21314573 811.64443534 -212.65728639 811.64337879 -218.10161179 811.63118038 C-220.07569897 811.62921048 -222.04979894 811.63236086 -224.02386809 811.64102474 C-226.69847782 811.65202441 -229.37242286 811.64469576 -232.04701328 811.63263321 C-232.82081865 811.6402284 -233.59462402 811.6478236 -234.39187804 811.65564895 C-238.8471506 811.61200143 -241.83086781 811.1169335 -245.32250977 808.26069641 C-245.94333553 805.42959499 -245.94333553 805.42959499 -245.9372406 801.9151001 C-245.94576548 800.94556997 -245.94576548 800.94556997 -245.95446259 799.95645338 C-245.96740258 797.78630193 -245.94454801 795.61800243 -245.921875 793.44795227 C-245.9237384 791.89412036 -245.92777362 790.34028976 -245.93382263 788.78646851 C-245.94381634 784.56325077 -245.92259722 780.34070173 -245.89534259 776.11758113 C-245.87155375 771.70359352 -245.87445787 767.28962012 -245.8740387 762.87557983 C-245.8694075 755.46339052 -245.84574339 748.05145772 -245.80957031 740.63935852 C-245.76781962 732.06136039 -245.75025475 723.4835933 -245.74695057 714.9054994 C-245.74335502 705.78428047 -245.72448588 696.66314509 -245.69983029 687.54196095 C-245.69359263 684.90844581 -245.68996203 682.27493702 -245.68679619 679.64141655 C-245.68090835 675.50868575 -245.66463104 671.37612115 -245.64019203 667.2434597 C-245.63273273 665.72366876 -245.62867886 664.20385687 -245.62821198 662.6840477 C-245.62696019 660.61562841 -245.61346244 658.54765191 -245.59666443 656.47930908 C-245.59201392 655.31990279 -245.58736341 654.1604965 -245.58257198 652.96595669 C-245.32250977 650.26069641 -245.32250977 650.26069641 -243.32250977 648.26069641 C-240.70107757 648.06212135 -238.18506936 647.99012883 -235.56229973 648.00457001 C-234.74761272 648.00117314 -233.93292571 647.99777627 -233.09355122 647.99427646 C-230.33401906 647.98523559 -227.57469472 647.99056063 -224.81515503 647.99568176 C-222.8284269 647.99211458 -220.84170019 647.98766552 -218.85497582 647.98240519 C-213.37200613 647.97042777 -207.88909591 647.9709301 -202.40611625 647.97334027 C-196.50121289 647.97375821 -190.59633043 647.96267597 -184.69143677 647.95288086 C-174.44937919 647.93739389 -164.20733544 647.92900919 -153.96526718 647.9251709 C-139.13937724 647.91955126 -124.31352405 647.90088964 -109.48765065 647.87873036 C-102.5815257 647.86842594 -95.67539986 647.85876212 -88.76927376 647.84926605 C-88.07779675 647.84831454 -87.38631973 647.84736303 -86.67388887 647.84638269 C-70.20373963 647.82386826 -53.73358512 647.80763434 -37.26342773 647.79243469 C-36.54258179 647.79176714 -35.82173584 647.79109959 -35.07904608 647.79041181 C-24.11853419 647.78026951 -13.15802201 647.77045238 -2.19750977 647.76069641 C9.46606463 647.75031073 21.1296389 647.73979139 32.79321289 647.72895813 C33.51154389 647.72829325 34.22987488 647.72762838 34.96997348 647.72694335 C51.38303669 647.71171788 67.79609542 647.69469991 84.20915031 647.67212677 C84.89989857 647.67117751 85.59064684 647.67022825 86.30232686 647.66925023 C93.20065411 647.65972983 100.09898086 647.64989944 106.997307 647.63960627 C122.46078358 647.61660509 137.92423425 647.60054187 153.38772713 647.59472692 C163.52738801 647.59047194 173.66702559 647.57921361 183.80667354 647.56250298 C189.65360081 647.55311945 195.5004845 647.54697569 201.34741974 647.54956627 C206.70827217 647.55189046 212.06903332 647.54498536 217.42986725 647.53098744 C219.36143564 647.5275472 221.29301361 647.52741204 223.22458161 647.53106004 C250.64670142 647.5777617 275.77776082 643.45459504 296.20483398 623.75239563 C311.26661774 608.49584743 318.84061915 589.1837518 319.11499023 567.88569641 C318.99436493 549.1103684 312.96454202 530.44831446 300.34155273 516.24116516 C298.67749023 514.26069641 298.67749023 514.26069641 297.70092773 512.12397766 C296.39446144 509.74541116 295.1185469 509.34715156 292.67749023 508.26069641 C291.65005128 507.39647042 290.65060586 506.49816308 289.67749023 505.57319641 C274.5523033 492.43479251 254.88620588 487.92310399 235.30427551 488.00241089 C234.22543663 487.99873518 233.14659775 487.99505948 232.03506678 487.99127239 C228.45464349 487.98136923 224.87437788 487.98542796 221.29394531 487.98945618 C218.71208025 487.98506444 216.1302166 487.97976066 213.5483551 487.97361755 C208.00247986 487.96162082 202.45663324 487.95646711 196.91074562 487.95573616 C188.86530012 487.95440291 180.81992325 487.93922311 172.77450212 487.92024099 C159.6823589 487.88944908 146.59021393 487.86526559 133.49804688 487.84736633 C132.32480725 487.84575731 132.32480725 487.84575731 131.12786581 487.84411579 C122.41929082 487.83231828 113.71071512 487.8221098 105.00213623 487.81367493 C101.85201007 487.81060125 98.70188393 487.80751238 95.55175781 487.80439758 C94.77450475 487.80363224 93.99725169 487.8028669 93.1964455 487.80207837 C80.16574313 487.78892736 67.13509027 487.76419023 54.10442466 487.73065418 C46.09618035 487.71053033 38.08804251 487.70005154 30.07977273 487.70264339 C23.91594603 487.70381554 17.75223919 487.68947106 11.58844566 487.66983414 C9.08496576 487.66429826 6.58146853 487.6636895 4.07798767 487.66877174 C-53.75935523 487.7737445 -110.21019983 471.39376653 -155.32250977 434.26069641 C-155.86649414 433.81822571 -156.41047852 433.375755 -156.97094727 432.9198761 C-170.64242517 421.74486046 -183.68639673 409.39310959 -194.32250977 395.26069641 C-194.79720703 394.64065735 -195.2719043 394.02061829 -195.76098633 393.38179016 C-228.60941856 350.29249635 -246.52456441 298.29127264 -246.57250977 244.07319641 C-246.57318451 243.3781601 -246.57385925 242.68312378 -246.57455444 241.96702576 C-246.5190366 205.58831126 -238.32841534 169.9617918 -222.32250977 137.26069641 C-221.94900391 136.49450989 -221.57549805 135.72832336 -221.19067383 134.93891907 C-210.09220087 112.44163978 -195.67181756 92.34736315 -178.32250977 74.26069641 C-177.73872559 73.6443634 -177.15494141 73.0280304 -176.5534668 72.39302063 C-166.88410203 62.22727675 -156.75810489 53.38230274 -145.32250977 45.26069641 C-144.62996094 44.76118469 -143.93741211 44.26167297 -143.22387695 43.74702454 C-115.33110773 23.76608412 -83.68301768 10.96407984 -50.19750977 4.01069641 C-49.48393311 3.85955383 -48.77035645 3.70841125 -48.03515625 3.5526886 C-32.13934085 0.45566992 -16.137169 -0.0336832 0 0 Z " fill="#156830" transform="translate(4951.322509765625,369.7393035888672)"/>
<path d="M0 0 C1.42892578 1.13888672 1.42892578 1.13888672 2.88671875 2.30078125 C8.21079647 6.60014109 13.367321 11.04683286 18.41796875 15.6640625 C19.83672909 16.9476006 21.26179872 18.22468664 22.71362305 19.47070312 C28.54395698 24.47927264 34.00196815 29.81838706 39.4375 35.25 C40.32759766 36.12785156 41.21769531 37.00570312 42.13476562 37.91015625 C47.44968347 43.21342709 52.35789859 48.68440316 57.03027344 54.56274414 C58.88203501 56.85403514 60.80979944 59.02807594 62.8125 61.1875 C116.11862896 120.80204658 147.15100672 205.0196742 153 284 C153.12918823 285.71582275 153.12918823 285.71582275 153.26098633 287.46630859 C153.9639994 297.608978 154.20180147 307.70943348 154.1875 317.875 C154.18659363 319.08021805 154.18659363 319.08021805 154.18566895 320.30978394 C154.06126743 381.73454788 139.99618219 441.82017469 113 497 C112.30052246 498.42989258 112.30052246 498.42989258 111.58691406 499.88867188 C96.00159184 531.40161578 76.03692789 560.72511467 52.1953125 586.59375 C50.36857095 588.59601476 48.59870026 590.62891702 46.83203125 592.68359375 C42.61329278 597.51611024 38.10775213 602.03890911 33.5625 606.5625 C32.75490234 607.37396484 31.94730469 608.18542969 31.11523438 609.02148438 C26.2396362 613.88922502 21.24171424 618.53055607 16 623 C14.97883131 623.88893782 13.95797425 624.77823381 12.9375 625.66796875 C-8.16449734 643.76742126 -31.26962939 659.35573731 -55.64355469 672.70654297 C-57.8059349 673.89347732 -59.95450883 675.10205455 -62.1015625 676.31640625 C-142.15531293 720.92258545 -239.84198961 731.38219085 -365.09521484 706.23632812 C-410.69083958 693.02778633 -454.10210785 671.58947147 -492 643 C-492.59458008 642.5570459 -493.18916016 642.1140918 -493.80175781 641.65771484 C-502.53328145 635.1528047 -510.83266573 628.19503257 -519 621 C-519.928125 620.1853125 -520.85625 619.370625 -521.8125 618.53125 C-528.64320158 612.3991429 -535.17005748 605.96181066 -541.6875 599.5 C-542.56672119 598.63383057 -543.44594238 597.76766113 -544.35180664 596.87524414 C-549.58877497 591.64516721 -554.40602295 586.23238241 -559.0324707 580.45556641 C-560.59593919 578.50428634 -562.18184426 576.59569099 -563.828125 574.71484375 C-614.55867936 516.53835318 -643.04367902 440.75238021 -653 365 C-653.13277344 364.00532715 -653.26554687 363.0106543 -653.40234375 361.98583984 C-663.18481222 284.45428145 -646.96943184 201.98809814 -610.99755859 132.92138672 C-609.96058625 130.9240856 -608.94298687 128.91758716 -607.92578125 126.91015625 C-593.84098701 99.3993933 -575.41680631 74.13404303 -555 51 C-554.35417969 50.26515381 -553.70835938 49.53030762 -553.04296875 48.77319336 C-547.44839629 42.47489714 -541.6266242 36.44037948 -535.67138672 30.48608398 C-534.1282647 28.94076934 -532.59335694 27.38759554 -531.05859375 25.83398438 C-524.69733242 19.43722429 -518.07329145 13.6150087 -511 8 C-509.97233161 7.13675263 -508.94891348 6.26836312 -507.93359375 5.390625 C-499.35614284 -1.96531099 -490.24707515 -8.51813405 -481 -15 C-480.37786621 -15.43812012 -479.75573242 -15.87624023 -479.11474609 -16.32763672 C-421.82306767 -56.4143204 -352.63480171 -80.6087103 -283 -86 C-282.31776367 -86.05639648 -281.63552734 -86.11279297 -280.93261719 -86.17089844 C-180.98839978 -94.15698484 -78.27748467 -62.55911425 0 0 Z M-292 80 C-292.89332031 80.16097168 -293.78664062 80.32194336 -294.70703125 80.48779297 C-330.55399892 87.23828019 -365.00910857 101.7925982 -394 124 C-394.85207031 124.65226562 -395.70414063 125.30453125 -396.58203125 125.9765625 C-399.08979183 127.94549892 -401.55091716 129.95849113 -404 132 C-404.81235107 132.67699951 -404.81235107 132.67699951 -405.64111328 133.36767578 C-415.84586145 141.90496303 -425.46327872 150.75927565 -434 161 C-434.42651855 161.50740723 -434.85303711 162.01481445 -435.29248047 162.53759766 C-463.2139832 195.92262822 -482.44279925 236.87244319 -489 280 C-489.2638147 281.69322388 -489.2638147 281.69322388 -489.53295898 283.4206543 C-491.09822475 294.48191209 -491.3593241 305.40196291 -491.3125 316.5625 C-491.31034485 317.48819794 -491.3081897 318.41389587 -491.30596924 319.36764526 C-491.25348753 333.43046666 -490.82000854 347.17866432 -488 361 C-487.70198486 362.47895752 -487.70198486 362.47895752 -487.39794922 363.98779297 C-479.47777388 402.05802901 -463.65692079 437.79429514 -439 468 C-438.19691406 469.00675781 -437.39382813 470.01351563 -436.56640625 471.05078125 C-424.72102571 485.66283226 -411.20778175 498.93096106 -396 510 C-394.85005169 510.85649066 -393.70031411 511.71326433 -392.55078125 512.5703125 C-341.8103835 549.98868717 -277.1285141 565.76917445 -214.81298828 556.52734375 C-155.72860174 546.93024081 -98.79795933 515.92586455 -62 468 C-61.53883789 467.40993164 -61.07767578 466.81986328 -60.60253906 466.21191406 C-53.31128236 456.87132562 -46.75422038 447.35903046 -41 437 C-40.56300781 436.22027832 -40.12601563 435.44055664 -39.67578125 434.63720703 C-22.07874815 402.98596088 -10.11315926 366.35883474 -9.76171875 329.8828125 C-9.7519249 329.03632141 -9.74213104 328.18983032 -9.73204041 327.31768799 C-9.55336993 307.85049982 -9.94404944 289.12357378 -14 270 C-14.31348389 268.4838208 -14.31348389 268.4838208 -14.63330078 266.93701172 C-23.58115884 224.85191754 -43.9682408 188.25459143 -72 156 C-72.79792969 155.07703125 -73.59585938 154.1540625 -74.41796875 153.203125 C-78.35448977 148.73134553 -82.3701627 144.59708373 -86.9296875 140.76171875 C-89.20704647 138.82381517 -91.37543149 136.78909853 -93.5625 134.75 C-116.44211333 114.17581335 -144.98346591 98.78535717 -174 89 C-174.83096191 88.71930664 -175.66192383 88.43861328 -176.51806641 88.14941406 C-189.14322211 83.96485143 -201.87518537 81.10333568 -215 79 C-216.04414063 78.82210937 -216.04414063 78.82210937 -217.109375 78.640625 C-241.25842637 74.64747477 -268.00488239 75.65412168 -292 80 Z " fill="#156830" transform="translate(6896,456)"/>
<path d="M0 0 C1.01289099 0.9194139 2.02591816 1.83867779 3.0390625 2.7578125 C10.43985494 9.48674529 17.60317093 16.26657422 24.1328125 23.85546875 C26.13153645 26.15107429 28.18945229 28.384796 30.25 30.625 C35.83677502 36.82622574 40.92256779 43.38178273 46 50 C46.73355713 50.94818604 46.73355713 50.94818604 47.48193359 51.91552734 C107.40884114 129.49441418 134.65096111 226.76527341 126.73413086 349.38598633 C121.15504959 390.31331623 110.01082052 430.76051599 92 468 C91.49388184 469.04969971 91.49388184 469.04969971 90.97753906 470.12060547 C89.03879965 474.11630012 87.04805131 478.08246695 85.01367188 482.03027344 C84.32831994 483.36202185 83.64744356 484.69608155 82.97070312 486.03222656 C63.84997801 523.75738162 37.15870627 556.7732501 7.5 586.6875 C6.2008667 588.00621094 6.2008667 588.00621094 4.87548828 589.3515625 C-0.35467198 594.58861362 -5.76752561 599.40594928 -11.54443359 604.0324707 C-13.49571366 605.59593919 -15.40430901 607.18184426 -17.28515625 608.828125 C-36.55251995 625.62948294 -58.24265873 639.22943553 -80.53076172 651.62597656 C-82.06918404 652.4820415 -83.60513091 653.34258953 -85.13720703 654.20996094 C-169.08074389 701.6661502 -273.93723506 711.82036301 -382.84765625 686.94775391 C-438.73107245 670.90366557 -490.49879163 644.59339756 -535 607 C-536.01175293 606.15590576 -537.02350586 605.31181152 -538.06591797 604.44213867 C-546.25734957 597.56018976 -553.98769787 590.32678378 -561.5246582 582.73608398 C-563.32215805 580.92778392 -565.13022316 579.13054023 -566.93945312 577.33398438 C-573.75276667 570.52839831 -580.03024979 563.56542555 -586 556 C-586.8629301 554.97206518 -587.73133544 553.9486528 -588.609375 552.93359375 C-608.91824223 529.25226863 -625.61388598 501.99526515 -639.07763672 473.90966797 C-639.99292021 472.01465806 -640.93366839 470.13412358 -641.87890625 468.25390625 C-665.40090473 420.77908153 -678.84785902 364.96484229 -679.23828125 312.0625 C-679.2480751 310.95604126 -679.25786896 309.84958252 -679.26795959 308.70959473 C-679.44693204 283.21643433 -679.09428008 258.19480341 -675 233 C-674.89109436 232.32487366 -674.78218872 231.64974731 -674.66998291 230.9541626 C-671.68397933 212.64540314 -667.48357553 194.72421866 -662 177 C-661.69868164 176.01515625 -661.39736328 175.0303125 -661.08691406 174.015625 C-647.18305442 129.05245561 -624.85826326 87.12726562 -596 50 C-595.05640625 48.78376953 -595.05640625 48.78376953 -594.09375 47.54296875 C-579.91738865 29.56106778 -564.48563463 11.6940097 -547.0625 -3.2109375 C-545.64444849 -4.44098976 -544.24952322 -5.69805377 -542.875 -6.9765625 C-535.69223925 -13.64973549 -527.97460371 -19.53226794 -520.13427734 -25.40087891 C-518.16289597 -26.87794914 -516.20007984 -28.36571326 -514.23828125 -29.85546875 C-504.53133983 -37.16676583 -494.394775 -43.71195322 -484 -50 C-483.18821289 -50.49113281 -482.37642578 -50.98226562 -481.54003906 -51.48828125 C-459.76982437 -64.53835854 -436.86886626 -75.38206561 -413 -84 C-412.07251953 -84.33837891 -411.14503906 -84.67675781 -410.18945312 -85.02539062 C-377.37389477 -96.86979161 -342.77088608 -104.23422816 -308 -107 C-306.73285156 -107.11085938 -305.46570312 -107.22171875 -304.16015625 -107.3359375 C-204.6358007 -114.69338237 -104.6750684 -83.69560572 0 0 Z M-436.6875 117.74609375 C-437.21085937 118.26026855 -437.73421875 118.77444336 -438.2734375 119.30419922 C-439.51717504 120.52577741 -440.76807036 121.74008324 -442.0234375 122.94970703 C-451.49314296 132.0754092 -460.2913505 141.33352716 -468 152 C-468.77601563 153.06605469 -469.55203125 154.13210938 -470.3515625 155.23046875 C-479.49434399 168.12776017 -487.33286439 181.67310313 -494 196 C-494.3285498 196.70543945 -494.65709961 197.41087891 -494.99560547 198.13769531 C-504.29505198 218.42492124 -510.72402708 239.929583 -514 262 C-514.11569336 262.75168457 -514.23138672 263.50336914 -514.35058594 264.27783203 C-523.49585839 326.13732332 -505.19146111 390.35417533 -468.33105469 440.21679688 C-462.05977644 448.61837728 -455.2208364 456.41119396 -448 464 C-447.46068848 464.56799316 -446.92137695 465.13598633 -446.36572266 465.72119141 C-438.14739671 474.31469664 -429.564593 481.94226676 -420 489 C-419.42781738 489.42764648 -418.85563477 489.85529297 -418.26611328 490.29589844 C-396.40170384 506.59089696 -372.07162812 518.95932044 -346 527 C-345.26297852 527.23267578 -344.52595703 527.46535156 -343.76660156 527.70507812 C-331.08894034 531.66226718 -318.13653238 534.11232062 -305 536 C-303.89338013 536.15903809 -303.89338013 536.15903809 -302.7644043 536.32128906 C-246.20026248 543.16268738 -184.28277067 528.66633027 -138 495 C-137.03320312 494.30519531 -136.06640625 493.61039063 -135.0703125 492.89453125 C-127.41241646 487.27542571 -120.16446565 481.22648023 -113 475 C-112.07703125 474.20207031 -111.1540625 473.40414063 -110.203125 472.58203125 C-105.73134553 468.64551023 -101.59708373 464.6298373 -97.76171875 460.0703125 C-95.82381517 457.79295353 -93.78909853 455.62456851 -91.75 453.4375 C-48.82321227 405.57993259 -31.71195212 342.06550544 -34 279 C-37.1764022 224.02675902 -61.76213646 170.34855489 -100 131 C-100.94383545 130.01749268 -100.94383545 130.01749268 -101.90673828 129.01513672 C-110.54347441 120.05179275 -119.27624509 111.58823978 -129.32910156 104.2265625 C-130.98171254 103.01342434 -132.61224369 101.77461088 -134.2421875 100.53125 C-211.90503833 42.20627606 -324.97929637 40.41729517 -436.6875 117.74609375 Z " fill="#DBAB0A" transform="translate(3121,477)"/>
<path d="M0 0 C0.64479343 -0.00453111 1.28958685 -0.00906223 1.95391947 -0.01373065 C4.12426388 -0.02643661 6.29435935 -0.02475035 8.46473694 -0.02310181 C10.01679815 -0.02908318 11.56885637 -0.03588782 13.12091064 -0.04345703 C17.34401528 -0.06116345 21.56703894 -0.06581434 25.79017711 -0.0670886 C29.31171358 -0.06898469 32.83323105 -0.07633881 36.35476023 -0.08343279 C44.6606346 -0.09973175 52.9664656 -0.10460035 61.27235413 -0.10317993 C69.84980337 -0.10197788 78.42700124 -0.12308879 87.00438684 -0.15466726 C94.36068852 -0.18078839 101.71690788 -0.19154899 109.0732556 -0.19026911 C113.47038414 -0.18975828 117.86728938 -0.19550819 122.26437187 -0.21662521 C126.39879651 -0.23593794 130.53278322 -0.23618032 134.66722298 -0.22159195 C136.18661256 -0.21949408 137.70602906 -0.22426266 139.22537231 -0.23631287 C141.29603248 -0.25167494 143.36516543 -0.24252018 145.43579102 -0.22705078 C146.59557433 -0.22814032 147.75535765 -0.22922985 148.95028591 -0.2303524 C151.78138733 0.26742554 151.78138733 0.26742554 153.43480736 1.82979786 C155.25613891 5.12683799 155.19466589 8.09829217 155.15776825 11.76724625 C155.16201937 12.52950459 155.16627048 13.29176293 155.17065042 14.07712001 C155.18130826 16.6464514 155.17050636 19.21525098 155.15992737 21.78457642 C155.16321647 23.6394613 155.16782889 25.49434424 155.17365503 27.3492229 C155.18590686 32.45881874 155.17948186 37.56824946 155.17015004 42.67784524 C155.16337056 48.18477364 155.17387816 53.69167104 155.18243408 59.19859314 C155.19502101 68.74925259 155.19696624 78.29986677 155.19207764 87.85053253 C155.18527399 101.6854101 155.19778098 115.52021938 155.21558481 129.35508475 C155.244264 151.83448869 155.26179082 174.31388542 155.27015686 196.79330444 C155.27041077 197.46619842 155.27066467 198.1390924 155.27092627 198.8323771 C155.27477384 209.06072646 155.27813292 219.28907597 155.28138733 229.51742554 C155.2848486 240.38965872 155.28849669 251.2618918 155.2926178 262.13412476 C155.29286809 262.80361246 155.29311837 263.47310016 155.29337624 264.16287537 C155.30206845 287.20861489 155.32251935 310.25433135 155.3520999 333.30005431 C155.36922931 347.08574995 155.37588738 360.87137414 155.36879385 374.65707901 C155.36459387 384.12352465 155.37103051 393.58992547 155.38559258 403.05636069 C155.39360038 408.50736639 155.39684751 413.95826076 155.38677025 419.40926552 C155.30381465 468.06816636 159.70958425 516.76373728 189.78138733 557.26742554 C190.54966858 558.31801147 191.31794983 559.36859741 192.10951233 560.45101929 C197.84541416 568.17194267 204.11329002 575.339218 210.78138733 582.26742554 C211.38257385 582.89584351 211.98376038 583.52426147 212.60316467 584.17172241 C221.43014672 593.35196148 230.44030604 601.8203254 240.78138733 609.26742554 C241.62008362 609.88061646 241.62008362 609.88061646 242.47572327 610.50619507 C258.23772701 621.9189697 276.15989348 631.51119585 294.78138733 637.26742554 C295.49649475 637.48978882 296.21160217 637.7121521 296.94837952 637.94125366 C351.54037566 654.48142686 410.17867855 643.4933315 459.78138733 617.26742554 C464.6596414 614.54908957 469.24956781 611.53589895 473.78138733 608.26742554 C474.59107971 607.68444702 474.59107971 607.68444702 475.41712952 607.08969116 C483.73365331 601.04573414 491.33802539 594.34688978 498.78138733 587.26742554 C499.41431702 586.68734741 500.0472467 586.10726929 500.69935608 585.50961304 C535.20322705 552.89075165 554.65491057 499.77901813 556.78138733 453.26742554 C556.94818993 447.0474898 556.90414481 440.82451597 556.88818359 434.60296631 C556.8871857 432.74582392 556.88663763 430.88868125 556.8864966 429.03153861 C556.88486146 423.96297548 556.87701668 418.89443852 556.86813486 413.82588363 C556.85966626 408.34679545 556.85709995 402.86770417 556.85388184 397.38861084 C556.84759854 387.90629996 556.83786837 378.42399778 556.82598686 368.94169235 C556.80898307 355.22767991 556.79944974 341.51366961 556.79210813 327.79964896 C556.78017631 305.54134673 556.76524678 283.28304762 556.7469635 261.02474976 C556.7464191 260.35954367 556.74587469 259.69433759 556.74531379 259.00897375 C556.73257667 243.47325581 556.71855389 227.93753967 556.7023468 212.40182495 C556.70164961 211.73258689 556.70095243 211.06334883 556.70023411 210.37383082 C556.69671611 206.99868508 556.69318932 203.62353934 556.68966223 200.24839361 C556.68896544 199.5812599 556.68826866 198.91412619 556.68755077 198.2267763 C556.68614401 196.88021996 556.68473575 195.53366361 556.68332596 194.18710726 C556.65943375 171.32512762 556.64314972 148.46314937 556.63388067 125.60115874 C556.62802078 111.91455066 556.61562834 98.2279788 556.59490789 84.54138501 C556.58123116 75.17564901 556.57470861 65.80992572 556.57389777 56.44417982 C556.5731918 51.03610274 556.56914952 45.62807978 556.55643463 40.22001648 C556.54486833 35.27477745 556.54241777 30.32962291 556.54737682 25.38437362 C556.54752876 23.59065158 556.54425354 21.79692548 556.53729974 20.00321691 C556.52836631 17.5744029 556.53164048 15.14590713 556.53808498 12.71709251 C556.53254511 12.01285568 556.52700523 11.30861884 556.52129748 10.58304149 C556.54475563 6.99890708 556.70247203 4.25880261 558.78138733 1.26742554 C561.57815377 -0.13095768 563.87665936 0.13823201 567.00672913 0.13371277 C567.65222812 0.13144721 568.29772711 0.12918166 568.96278667 0.12684745 C571.13541111 0.12049467 573.30797336 0.12133762 575.48060608 0.12216187 C577.03428732 0.11917121 578.58796782 0.1157689 580.14164734 0.11198425 C584.36880507 0.10313153 588.59594257 0.10080563 592.82310867 0.10016847 C596.34721816 0.09922053 599.8713229 0.09554365 603.39543056 0.09199637 C611.7060514 0.08384733 620.0166614 0.08141258 628.32728577 0.0821228 C636.91262863 0.08272404 645.49790876 0.07216407 654.08323574 0.05637914 C661.44460821 0.0433247 668.80596012 0.03793801 676.16734409 0.03857821 C680.56828578 0.03883378 684.96917172 0.03595049 689.37010193 0.02540016 C693.50688008 0.0157541 697.64354876 0.01561582 701.78033066 0.02291679 C703.30174798 0.02396694 704.823172 0.02157447 706.34457779 0.01555634 C708.41519784 0.00789379 710.48543436 0.01244249 712.55604553 0.02018738 C714.2971032 0.01937023 714.2971032 0.01937023 716.07333374 0.01853657 C718.78138733 0.26742554 718.78138733 0.26742554 720.78138733 2.26742554 C720.97929884 4.77943922 721.05094817 7.181313 721.03586292 9.69459248 C721.04067264 10.86266221 721.04067264 10.86266221 721.04557952 12.05432931 C721.05395124 14.69162184 721.04793024 17.32869147 721.04208374 19.96598816 C721.04510128 21.86507988 721.04898875 23.76417039 721.05367631 25.66325873 C721.06401875 30.90450476 721.06175856 36.14568287 721.05749571 41.38693464 C721.05503931 47.03236794 721.06402981 52.67778443 721.0715332 58.32321167 C721.08431895 69.39919668 721.08606856 80.47515749 721.08373294 91.55114863 C721.08195161 100.56496719 721.0836955 109.57877838 721.08795738 118.59259605 C721.08855257 119.87449509 721.08914776 121.15639412 721.08976099 122.47713858 C721.09097275 125.0814543 721.09218689 127.68577003 721.09340336 130.29008576 C721.10119938 147.7982414 721.10510412 165.30639255 721.10108662 182.81454945 C721.10093024 183.4999161 721.10077386 184.18528275 721.10061275 184.89141809 C721.09980698 188.36504095 721.09896121 191.8386638 721.09809945 195.31228665 C721.09792836 196.0021342 721.09775727 196.69198174 721.097581 197.40273375 C721.09723434 198.79778393 721.09688581 200.19283412 721.09653541 201.5878843 C721.09119366 223.23197606 721.09906118 244.87602695 721.11756897 266.52011108 C721.13835199 290.85337298 721.14896736 315.18660335 721.14499348 339.51987571 C721.14308707 352.39535853 721.14551276 365.2708042 721.15970802 378.14628029 C721.17168976 389.12549483 721.17295236 400.10464944 721.16091786 411.0838649 C721.15507244 416.67522111 721.15380718 422.26646809 721.16592026 427.8578167 C721.28869288 488.80012996 712.06616471 546.73688055 685.78138733 602.26742554 C685.15514465 603.60039673 685.15514465 603.60039673 684.51625061 604.96029663 C669.86561434 635.90620625 650.29407042 664.54468071 627.10951233 689.72055054 C625.1633814 691.8495394 623.27565301 694.00899206 621.40638733 696.20492554 C614.18205379 704.50522364 606.1902929 712.18144001 597.78138733 719.26742554 C596.85197327 720.07437866 595.9225592 720.88133179 594.96498108 721.71273804 C577.54753745 736.77233792 558.70285073 749.75672402 538.78138733 761.26742554 C538.05387268 761.69136597 537.32635803 762.1153064 536.57679749 762.55209351 C491.97129515 788.39024375 441.86159462 802.80248156 390.78138733 808.26742554 C389.94889465 808.36313843 389.11640198 808.45885132 388.25868225 808.5574646 C333.26623949 814.09092111 277.34654402 805.5741104 225.78138733 786.26742554 C224.9955426 785.97819214 224.20969788 785.68895874 223.40003967 785.39096069 C188.39599986 772.41563373 155.57911107 752.97812622 126.78138733 729.26742554 C126.23289124 728.81657593 125.68439514 728.36572632 125.11927795 727.9012146 C108.66043462 714.30771504 92.11728834 699.78991395 78.90638733 682.95101929 C76.9551368 680.48684812 74.92528196 678.11208213 72.85902405 675.74423218 C26.85403176 622.73426477 0.630355 552.30255097 -7.21861267 483.26742554 C-7.30167217 482.58629214 -7.38473167 481.90515874 -7.47030813 481.20338494 C-8.47770512 471.85264477 -8.36089272 462.50674671 -8.35232544 453.11506653 C-8.35419553 451.16834169 -8.35649702 449.22161722 -8.35919076 447.27489334 C-8.36528994 441.94486342 -8.36517741 436.61484923 -8.36399639 431.28481662 C-8.36379192 425.52963259 -8.36931524 419.77445355 -8.37405396 414.01927185 C-8.38234891 402.75506252 -8.3851082 391.49085843 -8.38566633 380.2266463 C-8.3861417 371.07646667 -8.38819745 361.92628877 -8.39136696 352.7761097 C-8.39873652 331.05955089 -8.40489221 309.34299357 -8.4043684 287.62643337 C-8.40435282 286.93266566 -8.40433724 286.23889795 -8.40432119 285.52410698 C-8.40423809 282.00792384 -8.40413905 278.4917407 -8.40403648 274.97555756 C-8.40401654 274.27724405 -8.40399659 273.57893054 -8.40397604 272.85945601 C-8.40393561 271.44730215 -8.40389381 270.03514828 -8.40385065 268.62299441 C-8.40323706 246.6218965 -8.41076185 224.62081397 -8.42442322 202.61972046 C-8.43976783 177.89771777 -8.44837788 153.17572556 -8.44746 128.45371777 C-8.44712738 115.36405524 -8.44990314 102.27441007 -8.46063805 89.18475151 C-8.4697115 78.04982037 -8.47194415 66.91491447 -8.46512862 55.77998125 C-8.46184841 50.09471626 -8.46186062 44.40949981 -8.47048187 38.72423935 C-8.47828112 33.52793936 -8.47698367 28.33172695 -8.46819774 23.13542927 C-8.4666482 21.24811682 -8.46853279 19.36079804 -8.47405782 17.47349303 C-8.48103381 14.9232064 -8.47589141 12.37323423 -8.46750164 9.82295895 C-8.47246982 9.07731494 -8.477438 8.33167093 -8.48255673 7.56343165 C-8.43392405 0.64974072 -6.58625094 0.01903997 0 0 Z " fill="#156830" transform="translate(3905.2186126708984,369.7325744628906)"/>
<path d="M0 0 C3.03639181 3.27276869 5.21366001 6.89291788 7.3984375 10.76953125 C8.03531494 11.89311035 8.67219238 13.01668945 9.32836914 14.17431641 C9.66160187 14.76674133 9.99483459 15.35916626 10.33816528 15.96954346 C12.1187723 19.13454294 13.91401229 22.29123997 15.70703125 25.44921875 C16.07007858 26.08956055 16.43312592 26.72990234 16.80717468 27.38964844 C20.1778933 33.32943033 23.61085978 39.23189531 27.0625 45.125 C33.7927702 56.6283216 40.45656049 68.16923906 47.10888672 79.71777344 C50.23680148 85.14659942 53.36858448 90.57319281 56.5 96 C57.75001879 98.16665583 59.00001878 100.3333225 60.25 102.5 C60.86875 103.5725 61.4875 104.645 62.125 105.75 C127.75 219.49999999 127.75 219.49999999 129.62524414 222.75048828 C130.87435518 224.91557071 132.12354129 227.08060982 133.37280273 229.24560547 C136.51202309 234.68615706 139.64990563 240.12747216 142.78515625 245.5703125 C148.80747329 256.02206199 154.84669337 266.46299548 160.9375 276.875 C166.35921178 286.14499777 171.70204915 295.45831752 177.01922607 304.78845215 C182.22045129 313.9128284 187.48027878 323.00132774 192.78344727 332.06689453 C198.93766742 342.59084625 205.02369996 353.15380137 211.10888672 363.71777344 C214.23680148 369.14659942 217.36858448 374.57319281 220.5 380 C221.75001879 382.16665583 223.00001878 384.3333225 224.25 386.5 C225.178125 388.10875 225.178125 388.10875 226.125 389.75 C291.75 503.5 291.75 503.5 293.62524414 506.75048828 C294.87435518 508.91557071 296.12354129 511.08060982 297.37280273 513.24560547 C300.51202309 518.68615706 303.64990563 524.12747216 306.78515625 529.5703125 C312.80747329 540.02206199 318.84669337 550.46299548 324.9375 560.875 C330.35921178 570.14499777 335.70204915 579.45831752 341.01922607 588.78845215 C346.22045129 597.9128284 351.48027878 607.00132774 356.78344727 616.06689453 C362.93766742 626.59084625 369.02369996 637.15380137 375.10888672 647.71777344 C378.23680148 653.14659942 381.36858448 658.57319281 384.5 664 C385.75001879 666.16665583 387.00001878 668.3333225 388.25 670.5 C389.178125 672.10875 389.178125 672.10875 390.125 673.75 C397 685.66666667 403.875 697.58333333 410.75 709.5 C411.3697168 710.57411133 411.98943359 711.64822266 412.62792969 712.75488281 C413.86838986 714.90514319 415.10862703 717.05553224 416.34863281 719.20605469 C419.26830662 724.26897509 422.19018475 729.33058332 425.12011719 734.38757324 C426.49918031 736.76812173 427.87695785 739.14941306 429.25463867 741.53076172 C430.22384658 743.2048265 431.19490565 744.87781912 432.16601562 746.55078125 C432.75576172 747.57042969 433.34550781 748.59007812 433.953125 749.640625 C434.47036133 750.53297852 434.98759766 751.42533203 435.52050781 752.34472656 C440.06555189 760.50180566 440.06555189 760.50180566 439.6875 763.375 C439.460625 763.91125 439.23375 764.4475 439 765 C434.89102713 763.7423893 431.34593014 762.22023808 427.640625 760.05078125 C426.62097656 759.4578125 425.60132813 758.86484375 424.55078125 758.25390625 C423.46152344 757.61324219 422.37226562 756.97257812 421.25 756.3125 C420.09279028 755.63743361 418.93523143 754.96296538 417.77734375 754.2890625 C415.37429418 752.88984195 412.9727608 751.48807065 410.57226562 750.08447266 C405.06213188 746.86550635 399.52992383 743.68480155 394 740.5 C391.83323021 739.25017876 389.66656385 738.0001782 387.5 736.75 C386.4275 736.13125 385.355 735.5125 384.25 734.875 C381 733 377.75 731.125 374.5 729.25 C373.42733887 728.63116943 372.35467773 728.01233887 371.24951172 727.37475586 C369.08442929 726.12564482 366.91939018 724.87645871 364.75439453 723.62719727 C359.31384294 720.48797691 353.87252784 717.35009437 348.4296875 714.21484375 C337.97793801 708.19252671 327.53700452 702.15330663 317.125 696.0625 C308.44737759 690.98724877 299.73394432 685.97741233 291 681 C281.27884383 675.4599827 271.59105342 669.86625191 261.93310547 664.21655273 C251.40915375 658.06233258 240.84619863 651.97630004 230.28222656 645.89111328 C224.85340058 642.76319852 219.42680719 639.63141552 214 636.5 C211.83334417 635.24998121 209.6666775 633.99998122 207.5 632.75 C151.16666667 600.25 94.83333333 567.75 38.5 535.25 C37.42733887 534.63116943 36.35467773 534.01233887 35.24951172 533.37475586 C33.08442929 532.12564482 30.91939018 530.87645871 28.75439453 529.62719727 C23.31384294 526.48797691 17.87252784 523.35009437 12.4296875 520.21484375 C1.97793801 514.19252671 -8.46299548 508.15330663 -18.875 502.0625 C-27.55262241 496.98724877 -36.26605568 491.97741233 -45 487 C-54.72115617 481.4599827 -64.40894658 475.86625191 -74.06689453 470.21655273 C-84.59084625 464.06233258 -95.15380137 457.97630004 -105.71777344 451.89111328 C-111.14659942 448.76319852 -116.57319281 445.63141552 -122 442.5 C-124.16665583 441.24998121 -126.3333225 439.99998122 -128.5 438.75 C-193.5 401.25 -258.5 363.75 -323.5 326.25 C-324.57266113 325.63116943 -325.64532227 325.01233887 -326.75048828 324.37475586 C-328.91557071 323.12564482 -331.08060982 321.87645871 -333.24560547 320.62719727 C-338.68615706 317.48797691 -344.12747216 314.35009437 -349.5703125 311.21484375 C-361.00636805 304.62536778 -372.42392693 298.00632163 -383.81640625 291.34179688 C-390.96306371 287.16901064 -398.14171872 283.0543147 -405.33294678 278.95907593 C-409.42447052 276.62666631 -413.50995773 274.28367969 -417.59667969 271.94287109 C-419.85462871 270.65386404 -422.11567958 269.37027447 -424.37988281 268.09228516 C-427.51098556 266.32469712 -430.63132602 264.53939889 -433.75 262.75 C-434.69117676 262.225271 -435.63235352 261.70054199 -436.60205078 261.15991211 C-437.45009277 260.66885986 -438.29813477 260.17780762 -439.171875 259.671875 C-439.9153418 259.2500293 -440.65880859 258.82818359 -441.42480469 258.39355469 C-441.94461914 257.93368164 -442.46443359 257.47380859 -443 257 C-443 253 -443 253 -441.53125 251.45507812 C-436.82683324 248.15746291 -432.06824427 245.20283011 -427 242.5 C-419.80103498 238.57947236 -412.69442185 234.52444326 -405.625 230.375 C-396.78282778 225.19146146 -387.90577984 220.07311933 -379 215 C-369.27856294 209.46048161 -359.59104683 203.86624806 -349.93310547 198.21655273 C-339.40915375 192.06233258 -328.84619863 185.97630004 -318.28222656 179.89111328 C-312.85340058 176.76319852 -307.42680719 173.63141552 -302 170.5 C-299.83334417 169.24998121 -297.6666775 167.99998122 -295.5 166.75 C-294.4275 166.13125 -293.355 165.5125 -292.25 164.875 C-74.49999999 39.25 -74.49999999 39.25 -71.24829102 37.37402344 C-69.08731012 36.12729744 -66.92634002 34.88055273 -64.76538086 33.63378906 C-59.26181149 30.45854117 -53.75803968 27.28364505 -48.25390625 24.109375 C-42.84188045 20.98812469 -37.43044132 17.86585988 -32.01953125 14.74267578 C-30.03532706 13.597523 -28.05095704 12.45265748 -26.06640625 11.30810547 C-23.39786935 9.76888524 -20.73007517 8.22838621 -18.0625 6.6875 C-17.28140869 6.23729492 -16.50031738 5.78708984 -15.69555664 5.32324219 C-14.98262451 4.91106445 -14.26969238 4.49888672 -13.53515625 4.07421875 C-12.920354 3.71932373 -12.30555176 3.36442871 -11.67211914 2.9987793 C-7.24687911 0.35552379 -5.29290721 -0.65000615 0 0 Z " fill="#DBAB0A" transform="translate(1369,803)"/>
<path d="M0 0 C7.06397256 2.25588298 13.42179724 6.55496671 19.8125 10.25 C21.06019893 10.96768858 22.30808634 11.68504957 23.55615234 12.40209961 C26.75643219 14.24203017 29.95404481 16.08654094 33.15081787 17.93255615 C36.0016837 19.57822379 38.85446648 21.22056078 41.70703125 22.86328125 C47.06767504 25.9520119 52.42540772 29.04575475 57.78222656 32.14111328 C63.18670645 35.26324605 68.59347412 38.38141204 74 41.5 C76.1666775 42.74998122 78.33334417 43.99998121 80.5 45.25 C82.10875 46.178125 82.10875 46.178125 83.75 47.125 C182.33333333 104 280.91666667 160.875 379.5 217.75 C380.57314453 218.36907227 381.64628906 218.98814453 382.75195312 219.62597656 C384.91228293 220.87242061 387.07244003 222.11916402 389.23242188 223.36621094 C394.74464393 226.54813031 400.26003792 229.72432714 405.78125 232.890625 C415.77210153 238.62472455 425.75495637 244.37212208 435.625 250.3125 C436.38361328 250.76270508 437.14222656 251.21291016 437.92382812 251.67675781 C439.65154661 252.72801944 441.33231451 253.85589019 443 255 C443 255.66 443 256.32 443 257 C442.14341797 257.48073975 442.14341797 257.48073975 441.26953125 257.97119141 C429.18625718 264.75962857 417.15439352 271.62688908 405.19287109 278.62768555 C394.58353211 284.83596803 383.93371497 290.97328774 373.28222656 297.10888672 C367.85340058 300.23680148 362.42680719 303.36858448 357 306.5 C354.83334417 307.75001879 352.6666775 309.00001878 350.5 310.25 C349.4275 310.86875 348.355 311.4875 347.25 312.125 C233.5 377.75 233.5 377.75 230.24951172 379.62524414 C228.08442929 380.87435518 225.91939018 382.12354129 223.75439453 383.37280273 C218.31384294 386.51202309 212.87252784 389.64990563 207.4296875 392.78515625 C196.97793801 398.80747329 186.53700452 404.84669337 176.125 410.9375 C166.85500223 416.35921178 157.54168248 421.70204915 148.21154785 427.01922607 C139.0871716 432.22045129 129.99867226 437.48027878 120.93310547 442.78344727 C110.40915375 448.93766742 99.84619863 455.02369996 89.28222656 461.10888672 C83.85340058 464.23680148 78.42680719 467.36858448 73 470.5 C70.83334417 471.75001879 68.6666775 473.00001878 66.5 474.25 C65.4275 474.86875 64.355 475.4875 63.25 476.125 C-50.50000001 541.75 -50.50000001 541.75 -53.75048828 543.62524414 C-55.91557071 544.87435518 -58.08060982 546.12354129 -60.24560547 547.37280273 C-65.68615706 550.51202309 -71.12747216 553.64990563 -76.5703125 556.78515625 C-87.02206199 562.80747329 -97.46299548 568.84669337 -107.875 574.9375 C-117.14499777 580.35921178 -126.45831752 585.70204915 -135.78845215 591.01922607 C-144.9128284 596.22045129 -154.00132774 601.48027878 -163.06689453 606.78344727 C-173.59084625 612.93766742 -184.15380137 619.02369996 -194.71777344 625.10888672 C-200.14659942 628.23680148 -205.57319281 631.36858448 -211 634.5 C-213.16665583 635.75001879 -215.3333225 637.00001878 -217.5 638.25 C-219.10875 639.178125 -219.10875 639.178125 -220.75 640.125 C-334.49999999 705.75 -334.49999999 705.75 -337.75048828 707.62524414 C-339.91557071 708.87435518 -342.08060982 710.12354129 -344.24560547 711.37280273 C-349.68615706 714.51202309 -355.12747216 717.64990563 -360.5703125 720.78515625 C-371.02206229 726.80747346 -381.46297444 732.84672896 -391.875 738.9375 C-404.26181714 746.18159931 -416.70968018 753.32005543 -429.19580078 760.39160156 C-430.89467473 761.36602099 -432.5838447 762.35802394 -434.25341797 763.38183594 C-435.79514516 764.32420409 -437.39221139 765.17538115 -439 766 C-439.99 765.67 -440.98 765.34 -442 765 C-441.47188606 760.76125143 -440.56371885 757.73391085 -438.3671875 754.078125 C-437.81619385 753.14887207 -437.2652002 752.21961914 -436.69750977 751.26220703 C-436.09608154 750.26817871 -435.49465332 749.27415039 -434.875 748.25 C-433.58906731 746.08639879 -432.3039379 743.92231998 -431.01953125 741.7578125 C-430.3538916 740.64180664 -429.68825195 739.52580078 -429.00244141 738.37597656 C-425.80627861 732.98746899 -422.68489786 727.55647405 -419.5625 722.125 C-418.30353904 719.94001564 -417.04442362 717.75512028 -415.78515625 715.5703125 C-414.84760498 713.94270996 -414.84760498 713.94270996 -413.89111328 712.28222656 C-410.76319852 706.85340058 -407.63141552 701.42680719 -404.5 696 C-403.24998121 693.83334417 -401.99998122 691.6666775 -400.75 689.5 C-363.25 624.5 -325.75 559.5 -288.25 494.5 C-287.63116943 493.42733887 -287.01233887 492.35467773 -286.37475586 491.24951172 C-285.12564482 489.08442929 -283.87645871 486.91939018 -282.62719727 484.75439453 C-279.48797691 479.31384294 -276.35009437 473.87252784 -273.21484375 468.4296875 C-267.19252671 457.97793801 -261.15330663 447.53700452 -255.0625 437.125 C-249.98724877 428.44737759 -244.97741233 419.73394432 -240 411 C-234.4599827 401.27884383 -228.86625191 391.59105342 -223.21655273 381.93310547 C-217.06233258 371.40915375 -210.97630004 360.84619863 -204.89111328 350.28222656 C-201.76319852 344.85340058 -198.63141552 339.42680719 -195.5 334 C-194.24998121 331.83334417 -192.99998122 329.6666775 -191.75 327.5 C-164.25 279.83333333 -136.75 232.16666667 -109.25 184.5 C-108.63116943 183.42733887 -108.01233887 182.35467773 -107.37475586 181.24951172 C-106.12564482 179.08442929 -104.87645871 176.91939018 -103.62719727 174.75439453 C-100.48797691 169.31384294 -97.35009437 163.87252784 -94.21484375 158.4296875 C-88.19252671 147.97793801 -82.15330663 137.53700452 -76.0625 127.125 C-70.98724877 118.44737759 -65.97741233 109.73394432 -61 101 C-55.4599827 91.27884383 -49.86625191 81.59105342 -44.21655273 71.93310547 C-39.9738263 64.67788108 -35.76026988 57.40632361 -31.5625 50.125 C-30.94632812 49.05693115 -30.33015625 47.9888623 -29.6953125 46.88842773 C-26.77447477 41.82298012 -23.85799014 36.75511112 -20.95271301 31.6807251 C-19.93749165 29.90815723 -18.92097661 28.13633769 -17.90405273 26.36474609 C-16.6327264 24.14911864 -15.36383879 21.93208926 -14.09790039 19.71337891 C-4.49811739 2.99874492 -4.49811739 2.99874492 0 0 Z " fill="#169539" transform="translate(442,802)"/>
<path d="M0 0 C1.04233384 -0.00751056 2.08466768 -0.01502111 3.1585874 -0.02275926 C4.30979057 -0.01573576 5.46099374 -0.00871226 6.64708185 -0.00147593 C7.87033877 -0.00583625 9.09359569 -0.01019657 10.353921 -0.01468903 C13.77085536 -0.02379548 17.18729961 -0.01934878 20.60420061 -0.00935517 C24.31330124 -0.00177815 28.02236173 -0.0115116 31.73145676 -0.01908517 C38.23920283 -0.0299485 44.74687432 -0.02957428 51.25462389 -0.02194369 C60.93162818 -0.01062768 70.6085692 -0.01638103 80.28557302 -0.02556861 C97.56552774 -0.04139301 114.84544927 -0.03998587 132.12540717 -0.03133187 C147.24706384 -0.02379563 162.3687083 -0.02181022 177.49036646 -0.0253998 C178.49205359 -0.02562896 179.49374072 -0.02585811 180.525782 -0.02609421 C184.59159724 -0.02702818 188.65741248 -0.02798337 192.72322772 -0.02897351 C230.89106417 -0.03815776 269.05887942 -0.02981863 307.22671261 -0.01368281 C341.16265647 0.0005548 375.09856657 -0.00071905 409.03451014 -0.01506579 C447.13097146 -0.03111746 485.22741405 -0.03750651 523.32387829 -0.028229 C527.38243627 -0.02726679 531.44099426 -0.02632828 535.49955225 -0.0253998 C536.49892828 -0.02516257 537.4983043 -0.02492534 538.52796445 -0.02468092 C553.64291901 -0.02126344 568.75786006 -0.02526872 583.87281275 -0.03283846 C601.0531409 -0.04139948 618.23343054 -0.03930765 635.41375387 -0.02299623 C645.03793937 -0.0141611 654.66204157 -0.01365002 664.28622497 -0.02493476 C670.70516615 -0.0316334 677.12404018 -0.02752721 683.54297136 -0.01442045 C687.20670718 -0.00724569 690.87027682 -0.00492287 694.53400773 -0.0156384 C698.47037411 -0.02703459 702.40647425 -0.01550717 706.34283686 -0.00147593 C708.06964161 -0.01201118 708.06964161 -0.01201118 709.83133131 -0.02275926 C711.39483207 -0.01149343 711.39483207 -0.01149343 712.98991871 0 C713.89097148 0.00020328 714.79202425 0.00040655 715.72038165 0.00061599 C718.47393034 0.45510427 719.34445287 1.15983886 720.99495935 3.37604749 C721.99387395 7.48462248 722.12212776 11.46748595 722.12867212 15.68258131 C722.13293711 16.92889829 722.13720209 18.17521528 722.14159632 19.45929945 C722.14124687 20.82746354 722.14078537 22.19562761 722.14022303 23.56379163 C722.14321743 25.01467447 722.14662061 26.46555651 722.15040064 27.91643751 C722.15921344 31.84604895 722.16157753 35.7756386 722.16221642 39.70525897 C722.16292815 42.16136005 722.16506473 44.61745563 722.16771364 47.07355535 C722.17695607 55.6445231 722.18104966 64.21547532 722.18026209 72.78644788 C722.17966068 80.77310523 722.19022769 88.75969517 722.20600575 96.74633545 C722.21907882 103.60847675 722.22444613 110.470596 722.22380668 117.33274966 C722.22355174 121.42912132 722.22640084 125.52543296 722.23698473 129.6217922 C722.24666249 133.47218449 722.24674715 137.32245932 722.2394681 141.17285573 C722.23842205 142.58497512 722.24078635 143.99710181 722.24682856 145.40920866 C722.25454781 147.33829005 722.24870459 149.26741146 722.24219751 151.19649732 C722.24274228 152.27549834 722.24328705 153.35449935 722.24384832 154.46619737 C721.98019598 157.54865135 721.52312259 159.68217958 719.99495935 162.37604749 C717.05428217 163.41479402 714.27538255 163.50490691 711.17675638 163.51471269 C709.71745923 163.52292436 709.71745923 163.52292436 708.22868133 163.53130192 C707.16254001 163.53228002 706.0963987 163.53325813 704.99795008 163.53426588 C703.29610752 163.54167284 703.29610752 163.54167284 701.55988431 163.54922944 C697.74429885 163.56463217 693.92873026 163.57297261 690.11312342 163.58136976 C687.38350029 163.5903978 684.65388337 163.6009126 681.92426538 163.61136854 C676.04044023 163.63312677 670.15661281 163.65127365 664.2727685 163.66697347 C655.76569929 163.68967804 647.25865492 163.71782006 638.75160679 163.74729275 C624.94976002 163.79496145 611.14790309 163.8382276 597.34603357 163.87873304 C583.93814793 163.91809163 570.53027131 163.95951873 557.12240076 164.00373304 C555.88288044 164.00781945 555.88288044 164.00781945 554.6183193 164.01198841 C550.47281399 164.02566795 546.32730881 164.03938821 542.1818037 164.05312872 C507.78620758 164.16708216 473.3905925 164.27389403 438.99495935 164.37604749 C438.99455917 164.93480781 438.99415899 165.49356814 438.99374668 166.06926059 C438.95009267 226.87360808 438.90274672 287.67795217 438.83597803 348.48227918 C438.83498246 349.38987404 438.8339869 350.29746891 438.83296116 351.23256665 C438.811305 370.95481151 438.78898248 390.67705557 438.76597307 410.3992989 C438.75469409 420.07042199 438.74356243 429.74154524 438.73250818 439.41266859 C438.73140562 440.37508576 438.73030305 441.33750294 438.72916707 442.32908427 C438.69346853 473.55026599 438.66750702 504.77144662 438.64656967 535.99264142 C438.62501103 568.06386511 438.59367959 600.13506465 438.54996822 632.20626616 C438.54380555 636.73120418 438.53775515 641.25614234 438.53177309 645.7810806 C438.53059221 646.67169467 438.52941133 647.56230873 438.52819466 648.4799111 C438.50943881 662.8435786 438.50105222 677.20723452 438.49649811 691.57091277 C438.49170528 705.99476132 438.47609601 720.41856553 438.4492937 734.84239028 C438.43368297 743.42252794 438.42651737 752.00257821 438.43119006 760.58272931 C438.43349129 766.30458069 438.42504371 772.02634909 438.40763524 777.74817433 C438.39801139 781.01464348 438.39489892 784.28089163 438.40156373 787.54737388 C438.40799771 791.05589752 438.39630244 794.56388645 438.37972021 798.07236516 C438.38599691 799.1003096 438.3922736 800.12825404 438.3987405 801.18734831 C438.3905652 802.11496357 438.38238991 803.04257883 438.37396687 803.99830365 C438.37318697 804.80160387 438.37240707 805.60490408 438.37160353 806.43254673 C438.18516466 807.39457961 438.18516466 807.39457961 437.99495935 808.37604749 C434.45134789 810.73845513 432.97690345 810.62722448 428.77671289 810.63001478 C427.47417566 810.63565443 426.17163843 810.64129407 424.82963037 810.64710462 C423.38286774 810.64321585 421.93610564 810.6391195 420.48934412 810.63483655 C418.9683158 810.63754611 417.4472888 810.64110685 415.92626429 810.64545667 C411.79197507 810.65458792 407.65778548 810.6510332 403.52349448 810.6446985 C399.19984731 810.63964139 394.87620878 810.64432923 390.55256128 810.64747083 C383.29009959 810.65111171 376.02767855 810.6463086 368.76522303 810.63678968 C360.36677638 810.62590898 351.96842687 810.62942741 343.56998259 810.64044249 C336.36311672 810.64951678 329.15628011 810.65079982 321.94941038 810.64556515 C317.64344134 810.64244571 313.33751795 810.64203533 309.03155184 810.64863813 C304.98256619 810.65441288 300.93370579 810.65041233 296.88473368 810.63884962 C295.39802302 810.63620355 293.91130183 810.63696723 292.42459536 810.64137495 C290.39646387 810.64683373 288.36830936 810.63877704 286.34018946 810.63001478 C285.20474978 810.62926073 284.06931011 810.62850667 282.89946318 810.62772977 C280.03008431 810.37909115 278.37619547 809.9614108 275.99495935 808.37604749 C274.82442366 806.03497611 274.86877552 804.67053273 274.86665016 802.06176525 C274.8634819 801.14833187 274.86031364 800.23489849 274.85704938 799.2937853 C274.85864374 798.28170921 274.8602381 797.26963312 274.86188078 796.22688806 C274.85963775 795.15396106 274.85739473 794.08103407 274.85508373 792.97559413 C274.84870748 789.33776209 274.84950987 785.69996552 274.85019922 782.06212842 C274.84706806 779.44471699 274.84349386 776.82730606 274.83951181 774.20989579 C274.83151938 768.49711051 274.82722089 762.7843316 274.82529497 757.07154119 C274.82240141 748.57648736 274.81378538 740.08144622 274.80388185 731.58639801 C274.78734615 717.29693504 274.77517036 703.00747156 274.7651639 688.71800268 C274.75076677 668.30740611 274.72800783 647.89682355 274.70349878 627.48623695 C274.69370725 619.30134101 274.68418691 611.11644474 274.67466879 602.93154848 C274.67361002 602.02213613 274.67255126 601.11272378 274.67146041 600.17575349 C274.6462958 578.51669018 274.62380618 556.85762431 274.60213709 535.19855726 C274.60118665 534.25055172 274.60023621 533.30254617 274.59925697 532.32581319 C274.5771025 510.20543363 274.55622705 488.08505332 274.53756189 465.96467054 C274.53675814 465.01324272 274.53595439 464.0618149 274.53512628 463.08155594 C274.53107554 458.28409092 274.52703397 453.48662589 274.52299302 448.68916086 C274.52179454 447.26695222 274.52179454 447.26695222 274.52057184 445.8160121 C274.51895952 443.90227847 274.51734869 441.98854484 274.51573937 440.0748112 C274.48912722 408.47853644 274.45577204 376.88227439 274.41496123 345.28601468 C274.40921091 340.82672022 274.40355234 336.36742566 274.39795732 331.908131 C274.39685552 331.03046056 274.39575372 330.15279012 274.39461852 329.24852361 C274.37708876 315.10314137 274.36693863 300.95776287 274.35970487 286.812372 C274.35232417 272.6038062 274.33794327 258.39526191 274.31627912 244.18671056 C274.30362882 235.73829399 274.29661595 227.28991539 274.29752931 218.84148918 C274.29760678 212.54364144 274.28737223 206.24585098 274.27303766 199.94802044 C274.26886181 197.39215684 274.26810327 194.83628504 274.27100176 192.28041967 C274.27444483 188.8211016 274.26574885 185.36202468 274.25387907 181.90273035 C274.2578146 180.89767775 274.26175013 179.89262516 274.26580492 178.85711643 C274.30226669 172.35667666 274.30226669 172.35667666 271.99495935 166.37604749 C268.81510548 164.25614491 268.04666536 164.12522487 264.40747499 164.11992109 C263.46058514 164.11368899 262.51369529 164.1074569 261.53811181 164.10103595 C260.49581394 164.10433493 259.45351608 164.1076339 258.37963343 164.11103284 C257.27395529 164.10665157 256.16827716 164.1022703 255.02909362 164.09775627 C251.30494713 164.08538365 247.5809405 164.08724796 243.85677576 164.08893812 C241.1945225 164.08291725 238.53228291 164.07609694 235.87003565 164.06823194 C230.12752204 164.05276305 224.38503303 164.04436432 218.6425004 164.04052198 C210.3342755 164.0347788 202.02611685 164.01619889 193.71792118 163.99408144 C180.23182754 163.95834462 166.74573015 163.9300391 153.25960779 163.90778577 C152.45215925 163.90645078 151.6447107 163.90511579 150.81279401 163.90374035 C145.08184944 163.89431345 139.35090445 163.88515084 133.61995935 163.87604749 C127.0769903 163.8656526 120.53402147 163.85513512 113.9910531 163.84430921 C112.78226218 163.8423131 112.78226218 163.8423131 111.54905124 163.84027666 C98.11645564 163.81785338 84.68388827 163.78766052 71.25132167 163.75191677 C62.9634143 163.73024163 54.6755509 163.71562832 46.38761674 163.710078 C40.70902721 163.70583335 35.03047956 163.69460225 29.35191323 163.67785406 C26.07436557 163.66844179 22.79691194 163.66342736 19.51934862 163.66491735 C15.96755956 163.66607193 12.41600926 163.65509644 8.86425257 163.64106214 C7.82641615 163.64436111 6.78857972 163.64766009 5.71929371 163.65105903 C4.76718837 163.64482694 3.81508302 163.63859484 2.834126 163.6321739 C1.60456271 163.63038263 1.60456271 163.63038263 0.35015976 163.62855518 C-2.4078521 163.33286094 -4.51902204 162.59591982 -7.00504065 161.37604749 C-8.39312219 158.5998844 -8.13740639 156.34108354 -8.14548254 153.23336256 C-8.15119268 151.92234067 -8.15690283 150.61131879 -8.16278601 149.26056898 C-8.16403142 147.79914329 -8.1651565 146.3377175 -8.16617346 144.87629163 C-8.17080049 143.34393669 -8.17582499 141.81158291 -8.18121862 140.27923048 C-8.19435417 136.1098594 -8.20078962 131.94050444 -8.20522928 127.7711159 C-8.20815765 125.16831355 -8.21226196 122.56551563 -8.21673346 119.96271551 C-8.23041032 111.82499816 -8.24007652 103.68729091 -8.24393535 95.54956287 C-8.24841922 86.14455537 -8.26598154 76.73969298 -8.29493594 67.33472961 C-8.3165224 60.07185446 -8.32663797 52.80902022 -8.32797647 45.54611331 C-8.32902652 41.20490923 -8.33497676 36.86384152 -8.35279608 32.5226711 C-8.36922483 28.44084424 -8.37145776 24.35925702 -8.36265707 20.27740896 C-8.36188394 18.77737002 -8.36626556 17.27731848 -8.37611532 15.77731168 C-8.38875152 13.73348519 -8.38119684 11.68956326 -8.37253332 9.64571607 C-8.37399988 8.50068144 -8.37546644 7.35564682 -8.37697744 6.17591417 C-8.00504065 3.37604749 -8.00504065 3.37604749 -6.79460964 1.72455879 C-4.41641804 -0.06750301 -2.96398328 0.00066867 0 0 Z " fill="#156931" transform="translate(5522.005040645599,369.6239525079727)"/>
<path d="M0 0 C0.64958254 -0.00311998 1.29916509 -0.00623996 1.96843195 -0.00945449 C4.15494903 -0.01746071 6.34119059 -0.01110082 8.52770996 -0.00482178 C10.09124413 -0.00753048 11.65477703 -0.01109073 13.2183075 -0.01544189 C17.47235156 -0.02458254 21.72629895 -0.02101477 25.98034477 -0.01468372 C30.42505028 -0.00963238 34.86974731 -0.01431276 39.31445312 -0.01745605 C46.77959688 -0.02109823 54.24470111 -0.01629002 61.70983887 -0.0067749 C70.34971932 0.00411013 78.9895054 0.00058473 87.62938356 -0.01042771 C95.03747 -0.01949344 102.44552796 -0.02078938 109.85361814 -0.01555037 C114.28249885 -0.01242673 118.71133514 -0.01203211 123.14021301 -0.01862335 C127.30326586 -0.02438582 131.46619661 -0.0204202 135.62923622 -0.00883484 C137.16032521 -0.00618234 138.69142441 -0.00696334 140.22250938 -0.01136017 C142.30627621 -0.01679401 144.38964733 -0.01000833 146.47338867 0 C148.22550785 0.00113108 148.22550785 0.00113108 150.01302338 0.002285 C152.73669434 0.25396729 152.73669434 0.25396729 154.73669434 2.25396729 C154.98772201 4.16474921 154.98772201 4.16474921 154.98920202 6.55197346 C154.99461758 7.46177134 155.00003313 8.37156921 155.00561279 9.30893672 C155.00139141 10.31694657 154.99717004 11.32495643 154.99282074 12.36351204 C154.99621761 13.4321635 154.99961448 14.50081496 155.00311428 15.60184979 C155.01216234 19.22520769 155.0068281 22.84840758 155.00170898 26.47177124 C155.00527576 29.07879576 155.00972464 31.68581919 155.01498556 34.29284084 C155.02505644 39.98301845 155.02769852 45.67316244 155.02556419 51.36334801 C155.02243676 59.82494236 155.03073683 68.28649801 155.0415193 76.7480847 C155.05937144 90.9820306 155.0681961 105.21596856 155.07221985 119.44992447 C155.07783578 138.88959226 155.09649014 158.32923198 155.11866039 177.76888715 C155.12896466 186.81945469 155.13862826 195.87002293 155.14812469 204.92059135 C155.1490762 205.82673536 155.15002771 206.73287936 155.15100806 207.66648227 C155.17352131 229.2483749 155.18975743 250.83027156 155.20495605 272.41217041 C155.20562361 273.35679399 155.20629116 274.30141757 155.20697894 275.27466611 C155.21712469 289.64276634 155.22694436 304.01086678 155.23669434 318.37896729 C155.24708579 333.69049086 155.25760172 349.00201433 155.26843262 364.3135376 C155.26909749 365.25674743 155.26976237 366.19995726 155.2704474 367.17174921 C155.28565908 388.70336421 155.30265836 410.23497578 155.32526398 431.7665844 C155.32621323 432.6714409 155.32716249 433.5762974 155.32814052 434.5085738 C155.33765798 443.54197726 155.34748786 452.57538033 155.35778447 461.60878293 C155.37984707 481.02560096 155.39641489 500.44240176 155.40191002 519.85923198 C155.40599953 534.0163182 155.41688673 548.17338499 155.43488777 562.3304605 C155.4453461 570.74492124 155.45015225 579.15934226 155.44698758 587.57380912 C155.44522734 593.85170639 155.45379239 600.12954931 155.46640331 606.40743326 C155.46987439 608.95123821 155.46994511 611.49505046 155.46633071 614.03885521 C155.46190588 617.48911385 155.4696896 620.93913632 155.48056793 624.38937569 C155.47634656 625.38333855 155.47212518 626.37730141 155.46777588 627.40138435 C155.5005828 633.0038516 155.83769247 637.95094289 157.73669434 643.25396729 C160.59403651 645.62230888 163.46830384 645.50551222 167.09033203 645.51009369 C168.18264885 645.51632578 169.27496567 645.52255788 170.400383 645.52897882 C171.59997902 645.52567985 172.79957504 645.52238088 174.03552246 645.51898193 C175.94751812 645.52555384 175.94751812 645.52555384 177.89813995 645.53225851 C181.43869681 645.54419439 184.97916126 645.54373876 188.51973343 645.54132342 C192.3371052 645.54090443 196.15444495 645.55199736 199.97180176 645.56178284 C206.58736327 645.57724698 213.20290344 645.58564938 219.81848145 645.5894928 C229.38788728 645.59523651 238.95723563 645.61381691 248.5266161 645.63593334 C264.05757029 645.6716636 279.58852773 645.69997286 295.11950684 645.722229 C296.0492674 645.72356399 296.97902796 645.72489899 297.93696308 645.72627443 C304.53687323 645.7357024 311.13678373 645.74486561 317.73669434 645.75396729 C325.2757571 645.76436411 332.81481967 645.77488065 340.35388184 645.78570557 C341.28251195 645.78703631 342.21114206 645.78836705 343.16791248 645.78973812 C358.64020482 645.81215185 374.11247258 645.84233903 389.58473969 645.87809801 C399.13257144 645.89978523 408.68036495 645.91438981 418.22821999 645.91993678 C424.76740436 645.92417749 431.30655229 645.93539811 437.84571648 645.95216072 C441.62135518 645.96158407 445.39692573 645.96767313 449.1725769 645.96509743 C453.26107796 645.96236801 457.34938849 645.97489973 461.43786621 645.98895264 C462.63746223 645.98565366 463.83705826 645.98235469 465.07300568 645.97895575 C466.16532249 645.98518784 467.25763931 645.99141994 468.38305664 645.99784088 C469.32715141 645.99903506 470.27124619 646.00022923 471.24394989 646.0014596 C473.88246356 646.26873328 475.51042071 646.8320143 477.73669434 648.25396729 C479.09158813 651.44829947 478.86246974 654.83301724 478.86367798 658.26184082 C478.8664978 659.49265884 478.86931763 660.72347687 478.8722229 661.99159241 C478.87027862 663.35281387 478.86823045 664.71403518 478.86608887 666.07525635 C478.86744417 667.51112411 478.86922483 668.94699152 478.87139893 670.38285828 C478.87595952 674.28180321 478.87418889 678.18072169 478.87101984 682.07966709 C478.86848721 686.16387058 478.87083648 690.24807181 478.87240601 694.33227539 C478.87422588 701.19533697 478.87182701 708.0583878 478.86706543 714.92144775 C478.86163183 722.84436415 478.86337963 730.76725477 478.86889184 738.69017053 C478.87343849 745.49881467 478.87406565 752.30745108 478.87145317 759.11609626 C478.86989782 763.17959754 478.86967608 767.24308673 478.87298965 771.30658722 C478.87589061 775.13149271 478.87385194 778.95636522 478.8680954 782.78126717 C478.86677933 784.18083453 478.86714221 785.5804047 478.86935806 786.97997093 C478.88981267 801.21873473 478.88981267 801.21873473 477.73669434 807.25396729 C474.30752767 810.68313395 470.82579327 810.36976478 466.0987201 810.38690287 C465.34641727 810.3845617 464.59411444 810.38222054 463.81901455 810.37980843 C463.01163209 810.38126187 462.20424963 810.38271531 461.37240103 810.38421279 C458.64993628 810.38788046 455.92752726 810.3843828 453.20506287 810.38095093 C451.24034346 810.38210244 449.27562426 810.38369017 447.31090552 810.38567817 C441.89857981 810.38986731 436.48627166 810.38778266 431.07394588 810.38469195 C425.24227393 810.38243642 419.41060506 810.38591823 413.57893372 810.38867188 C402.14966276 810.39312682 390.72039836 810.39215435 379.29112714 810.38925923 C370.00587277 810.38700423 360.72062024 810.3866931 351.43536568 810.38778305 C350.11570186 810.38793628 348.79603803 810.38808952 347.4363844 810.38824739 C345.42782099 810.38848532 343.41925759 810.38872654 341.41069419 810.38897428 C316.30013179 810.3920347 291.18957297 810.38925751 266.07901112 810.38387739 C243.75681442 810.37913107 221.43462341 810.37955671 199.11242676 810.38433838 C174.04693866 810.38968971 148.98145373 810.39181823 123.91596514 810.38872612 C121.24537917 810.38840539 118.5747932 810.38809318 115.90420723 810.38778305 C114.59009283 810.38762878 113.27597843 810.3874745 111.92204238 810.38731555 C102.64298839 810.38645062 93.36393642 810.38791275 84.08488274 810.3902626 C72.78402759 810.39306145 61.4831794 810.39232051 50.18232506 810.38698186 C44.41193743 810.38434609 38.64156141 810.38333772 32.87117386 810.38663101 C27.59561265 810.38959646 22.32007388 810.38799695 17.04451472 810.38265346 C15.12938518 810.38153035 13.21425378 810.38211812 11.29912543 810.38452925 C8.70890046 810.38754181 6.11875376 810.38447972 3.52853298 810.37980843 C2.39656698 810.38332018 2.39656698 810.38332018 1.24173298 810.38690287 C-1.8694739 810.37558209 -4.28766935 810.24584606 -7.26330566 809.25396729 C-8.5650049 806.65056882 -8.38895836 804.76323405 -8.3898055 801.84618807 C-8.39256524 800.68830509 -8.39532498 799.5304221 -8.39816836 798.33745176 C-8.39611304 797.0517794 -8.39405772 795.76610704 -8.39194012 794.44147491 C-8.39328538 793.06687917 -8.39506848 791.69228379 -8.39725235 790.31768912 C-8.40200911 786.5103772 -8.4004721 782.70308901 -8.39797458 778.89577588 C-8.3963491 774.76508441 -8.40047596 770.63439819 -8.40388376 766.50370836 C-8.40905146 759.25422596 -8.41045259 752.00475025 -8.40942764 744.75526619 C-8.40790724 733.97533583 -8.41205437 723.19541291 -8.41730227 712.415484 C-8.42699091 692.0462791 -8.42978706 671.67707672 -8.43035933 651.30786979 C-8.43081821 635.58377087 -8.43287309 619.85967294 -8.43605995 604.13557434 C-8.43695744 599.61558358 -8.43784725 595.09559282 -8.43873483 590.57560205 C-8.43895588 589.45204448 -8.43917693 588.32848691 -8.43940467 587.17088214 C-8.4455618 555.55273123 -8.44950493 523.93458067 -8.44906139 492.31642914 C-8.44904582 491.1235091 -8.44903024 489.93058906 -8.44901419 488.70151993 C-8.44893107 482.65477533 -8.44883203 476.60803074 -8.44872948 470.56128615 C-8.44870953 469.36029679 -8.44868959 468.15930744 -8.44866904 466.92192446 C-8.4486286 464.49323062 -8.4485868 462.06453677 -8.44854365 459.63584293 C-8.44793063 421.83325423 -8.45544108 384.03067451 -8.46911621 346.22808838 C-8.48445954 303.79616878 -8.49308351 261.36425507 -8.49215299 218.93233252 C-8.49207835 214.41234175 -8.49202965 209.89235099 -8.49199867 205.37236023 C-8.49198702 204.25935194 -8.49197536 203.14634365 -8.49196336 201.99960783 C-8.49193252 184.04875096 -8.49833219 166.09790183 -8.50693094 148.14704727 C-8.51538645 130.12311524 -8.51641392 112.09919462 -8.50982162 94.07526171 C-8.50611198 83.35332504 -8.50800022 72.63142289 -8.51776396 61.90948983 C-8.52372707 54.76006592 -8.52250978 47.61066722 -8.51529346 40.4612445 C-8.51138065 36.37947581 -8.51072509 32.29777432 -8.51875081 28.21601015 C-8.52597452 24.50995735 -8.52415918 20.80402833 -8.51482694 17.09798125 C-8.51226679 15.12214576 -8.51961462 13.14630521 -8.52724972 11.17048281 C-8.52249891 10.01259983 -8.5177481 8.85471685 -8.51285332 7.6617465 C-8.51294155 6.65799072 -8.51302977 5.65423494 -8.51312066 4.62006232 C-7.95787153 -0.63891826 -4.40031764 0.00284062 0 0 Z " fill="#DBAB0A" transform="translate(1964.2633056640625,369.74603271484375)"/>
<path d="M0 0 C2.72367096 -0.3719368 2.72367096 -0.3719368 6.26330566 -0.36749268 C6.91288821 -0.37076152 7.56247075 -0.37403036 8.23173761 -0.37739825 C10.41839787 -0.38470795 12.60439581 -0.37049504 14.79101562 -0.35644531 C16.3545493 -0.35723578 17.91808278 -0.35933179 19.48161316 -0.36264038 C23.73571877 -0.36778628 27.98958359 -0.35421542 32.24365044 -0.33711338 C36.68834737 -0.32210901 41.13304077 -0.32325215 45.57775879 -0.32244873 C53.04292935 -0.31875291 60.50800813 -0.30376991 67.97314453 -0.28125 C77.56420292 -0.25237639 87.15518736 -0.24202735 96.74628448 -0.2375679 C104.97958726 -0.23359129 113.21287387 -0.22108834 121.44616508 -0.20722103 C124.09861591 -0.20311747 126.75106616 -0.20019415 129.40351868 -0.19742584 C133.56654885 -0.19254012 137.72953395 -0.18234901 141.89254189 -0.16798782 C143.4236288 -0.1634569 144.95472179 -0.16062429 146.48581505 -0.15958023 C148.56948707 -0.15784018 150.65304553 -0.14997229 152.73669434 -0.14044189 C154.48881351 -0.1359799 154.48881351 -0.1359799 156.27632904 -0.13142776 C159 0 159 0 161 1 C162.49184104 4.78705871 162.13828304 8.92706447 162.12584114 12.93431377 C162.12729458 13.74354698 162.12874802 14.55278019 162.13024551 15.38653561 C162.13391339 18.1155124 162.13041534 20.8444336 162.12698364 23.57341003 C162.12813518 25.54307421 162.12972293 27.51273816 162.13171089 29.48240167 C162.13590044 34.90926171 162.1338151 40.33610425 162.13072467 45.76296437 C162.12846897 51.61141717 162.13195125 57.45986689 162.13470459 63.30831909 C162.13916119 74.77705724 162.1381858 86.24578886 162.13529195 97.71452727 C162.13303518 107.04488236 162.13270016 116.3752358 162.13381577 125.7055912 C162.13393034 126.69998579 162.13393034 126.69998579 162.13404724 127.71446915 C162.13435859 130.40574459 162.13467699 133.09702002 162.135007 135.78829545 C162.13806869 161.05864815 162.13528963 186.32899729 162.1299101 211.59934945 C162.12517574 234.00902459 162.12557913 256.41869405 162.13037109 278.82836914 C162.13574013 304.02078616 162.13784005 329.21320002 162.13475883 354.40561754 C162.13443814 357.09850426 162.1341253 359.79139099 162.13381577 362.48427773 C162.13373669 363.14730153 162.13365761 363.81032533 162.13357614 364.49344077 C162.13244344 374.46221816 162.13376655 384.43099362 162.13629532 394.39977074 C162.13911427 405.76257903 162.1383116 417.12538042 162.13301457 428.48818793 C162.13040401 434.27750347 162.12932698 440.06680755 162.13266373 445.85612297 C162.16377921 504.8628546 162.16377921 504.8628546 159.3125 527.375 C159.22730103 528.05901886 159.14210205 528.74303772 159.05432129 529.44778442 C151.40610343 590.15225004 125.89211035 645.99631356 87 693 C86.23558594 693.95003906 85.47117187 694.90007813 84.68359375 695.87890625 C77.9105167 704.14548125 70.47008625 711.7448852 62.9375 719.3125 C62.430979 719.82419739 61.92445801 720.33589478 61.40258789 720.86309814 C54.60882847 727.71150422 47.59450678 734.02943722 40 740 C39.39341553 740.48621826 38.78683105 740.97243652 38.16186523 741.47338867 C20.62257679 755.49875142 1.37091886 767.35553162 -18.90136719 776.99804688 C-20.30978596 777.67047017 -21.71407951 778.35159758 -23.11425781 779.04101562 C-46.94419878 790.747327 -73.0283896 798.71416721 -99 804 C-99.96550781 804.19674316 -100.93101562 804.39348633 -101.92578125 804.59619141 C-128.81827944 809.93779036 -155.46907643 810.29638284 -182.77278614 810.23571944 C-187.63463507 810.22681794 -192.49648198 810.22869854 -197.3583374 810.2290802 C-205.49411657 810.22815045 -213.6298579 810.21955115 -221.765625 810.20581055 C-231.16991116 810.18998628 -240.57415632 810.18481644 -249.97845483 810.1855461 C-260.0280536 810.18622042 -270.07763662 810.17929837 -280.12723064 810.1700995 C-283.01526385 810.16796902 -285.90329451 810.16725851 -288.79132843 810.16686058 C-293.31249116 810.16585853 -297.83361933 810.15977338 -302.35477066 810.14969444 C-304.01446191 810.14676863 -305.67415713 810.14554424 -307.33385086 810.14612198 C-309.59339285 810.14661106 -311.8528373 810.14097347 -314.11236572 810.13371277 C-316.0102352 810.131199 -316.0102352 810.131199 -317.94644547 810.12863445 C-321 810 -321 810 -324 809 C-325.36574349 806.26851301 -325.21474481 804.00734949 -325.31201172 800.94921875 C-325.35335236 799.65459717 -325.39469299 798.35997559 -325.43728638 797.02612305 C-325.47705967 795.57993281 -325.51617037 794.13372424 -325.5546875 792.6875 C-325.57562344 791.94505035 -325.59655937 791.20260071 -325.61812973 790.43765259 C-326.14051487 771.57783253 -326.15258931 752.71629215 -326.13037109 733.85058594 C-326.12467452 728.97736765 -326.12806893 724.10420399 -326.13380814 719.23098755 C-326.15245245 700.58627998 -326.08025789 681.95076618 -325.5546875 663.3125 C-325.53527225 662.58350494 -325.51585701 661.85450989 -325.49585342 661.10342407 C-325.44036199 659.08570894 -325.37643414 657.06823098 -325.31201172 655.05078125 C-325.2761496 653.92325439 -325.24028748 652.79572754 -325.20333862 651.6340332 C-325 649 -325 649 -324 647 C-320.56309702 645.85436567 -317.91517085 645.86949925 -314.28872681 645.86196899 C-313.60269296 645.85914771 -312.91665911 645.85632643 -312.20983636 645.85341966 C-309.90501625 645.84507017 -307.60024416 645.84373501 -305.29541016 645.84228516 C-303.64433151 645.83761654 -301.99325415 645.8324729 -300.34217834 645.82688904 C-296.7801793 645.81559963 -293.21818865 645.80716888 -289.65617752 645.80076981 C-284.00450806 645.79007068 -278.3528981 645.76981448 -272.70126343 645.74765015 C-256.62704235 645.68581043 -240.55282298 645.63192763 -224.47851562 645.59863281 C-215.60511448 645.58017265 -206.73181151 645.55108531 -197.85848272 645.5106281 C-193.17134325 645.4897261 -188.4843267 645.47412524 -183.79713821 645.47182083 C-150.69578742 645.64012803 -150.69578742 645.64012803 -118.3125 639.3125 C-117.45567627 639.05831299 -116.59885254 638.80412598 -115.71606445 638.54223633 C-89.30910579 630.40108574 -66.23554589 615.75542551 -47 596 C-46.51660156 595.56171875 -46.03320312 595.1234375 -45.53515625 594.671875 C-27.59321561 577.95420795 -15.53373705 552.82408726 -8.6875 529.625 C-8.45716064 528.86098877 -8.22682129 528.09697754 -7.98950195 527.30981445 C-3.4785485 511.06541585 -2.55676294 494.54483208 -2.61473083 477.78501892 C-2.61071312 475.72399204 -2.60538069 473.66296739 -2.59886509 471.60194689 C-2.58484395 465.99769861 -2.58910277 460.39359698 -2.59657824 454.78934181 C-2.60134913 448.72344356 -2.58872746 442.65757761 -2.57821655 436.59169006 C-2.56229607 426.10109094 -2.55688565 415.61052455 -2.55874443 405.11991692 C-2.56058929 394.12559449 -2.5553294 383.13130904 -2.54106331 372.13699532 C-2.54017343 371.45117748 -2.53928355 370.76535964 -2.53836671 370.05875945 C-2.53379639 366.57520852 -2.52907936 363.0916578 -2.52429188 359.60810716 C-2.51459748 352.52782728 -2.50586442 345.44754623 -2.49742985 338.36726475 C-2.49616347 337.30453322 -2.49616347 337.30453322 -2.4948715 336.22033236 C-2.47506476 319.39420694 -2.46503962 302.56807763 -2.45629883 285.74194336 C-2.45572183 284.6388554 -2.45572183 284.6388554 -2.45513317 283.51348284 C-2.45201672 277.55423239 -2.44892555 271.59498193 -2.44587547 265.63573145 C-2.43705832 248.43773554 -2.42583961 231.23974165 -2.41333008 214.04174805 C-2.41253005 212.93539002 -2.41253005 212.93539002 -2.41171386 211.80668132 C-2.39950245 194.97353458 -2.38521857 178.14039199 -2.36577702 161.30725193 C-2.36496216 160.60036222 -2.3641473 159.89347251 -2.36330775 159.1651619 C-2.35514257 152.10970718 -2.34670564 145.05425285 -2.33781785 137.998799 C-2.31881748 122.83867117 -2.30583996 107.67856987 -2.30482311 92.51842953 C-2.30403164 81.48228525 -2.29653525 70.4461599 -2.28229337 59.41002374 C-2.2748498 53.42888751 -2.27080134 47.44779582 -2.27541161 41.46665573 C-2.27958585 35.99926368 -2.27473096 30.53195919 -2.26250375 25.06457991 C-2.25972092 23.07994413 -2.26037321 21.09530015 -2.26468485 19.1106671 C-2.27004777 16.4268347 -2.26328934 13.74330572 -2.25333309 11.05949306 C-2.25784032 10.27733572 -2.26234754 9.49517837 -2.26699135 8.68931928 C-2.2396646 4.91502389 -2.14756279 3.22134419 0 0 Z " fill="#156830" transform="translate(3575,370)"/>
</svg>
